<mxfile host="Electron" modified="2024-01-06T15:29:07.963Z" agent="Mozilla/5.0 (X11; Linux x86_64) AppleWebKit/537.36 (KHTML, like Gecko) draw.io/22.1.16 Chrome/120.0.6099.109 Electron/28.1.0 Safari/537.36" etag="p_IytY6PQl_FD2DGxizF" version="22.1.16" type="device" pages="3">
  <diagram id="gW4KWFH_ABjafCwhLisA" name="liste des classes">
    <mxGraphModel dx="1434" dy="870" grid="1" gridSize="10" guides="1" tooltips="1" connect="1" arrows="1" fold="1" page="1" pageScale="1" pageWidth="827" pageHeight="1169" math="0" shadow="0">
      <root>
        <mxCell id="0" />
        <mxCell id="1" parent="0" />
        <mxCell id="_W3E5ohwo0yO-UJUAuAc-1" value="Classes du Monopoly Builder" style="shape=table;startSize=40;container=1;collapsible=0;childLayout=tableLayout;strokeWidth=1;labelBackgroundColor=none;fillColor=#B2C9AB;strokeColor=#788AA3;fontColor=#46495D;rounded=1;" parent="1" vertex="1">
          <mxGeometry x="20" y="20" width="781" height="530" as="geometry" />
        </mxCell>
        <mxCell id="_W3E5ohwo0yO-UJUAuAc-2" value="" style="shape=tableRow;horizontal=0;startSize=0;swimlaneHead=0;swimlaneBody=0;strokeColor=#788AA3;top=0;left=0;bottom=0;right=0;collapsible=0;dropTarget=0;fillColor=none;points=[[0,0.5],[1,0.5]];portConstraint=eastwest;labelBackgroundColor=none;fontColor=#46495D;rounded=1;" parent="_W3E5ohwo0yO-UJUAuAc-1" vertex="1">
          <mxGeometry y="40" width="781" height="38" as="geometry" />
        </mxCell>
        <mxCell id="_W3E5ohwo0yO-UJUAuAc-3" value="&lt;span style=&quot;background-color: rgb(230, 230, 230);&quot;&gt;Nom&lt;/span&gt;" style="shape=partialRectangle;html=1;whiteSpace=wrap;connectable=0;strokeColor=#788AA3;overflow=hidden;fillColor=#B2C9AB;top=0;left=0;bottom=0;right=0;pointerEvents=1;strokeWidth=14;labelBackgroundColor=none;fontColor=#46495D;rounded=1;" parent="_W3E5ohwo0yO-UJUAuAc-2" vertex="1">
          <mxGeometry width="212" height="38" as="geometry">
            <mxRectangle width="212" height="38" as="alternateBounds" />
          </mxGeometry>
        </mxCell>
        <mxCell id="_W3E5ohwo0yO-UJUAuAc-4" value="nombre" style="shape=partialRectangle;html=1;whiteSpace=wrap;connectable=0;strokeColor=#788AA3;overflow=hidden;fillColor=#B2C9AB;top=0;left=0;bottom=0;right=0;pointerEvents=1;labelBackgroundColor=none;fontColor=#46495D;rounded=1;" parent="_W3E5ohwo0yO-UJUAuAc-2" vertex="1">
          <mxGeometry x="212" width="100" height="38" as="geometry">
            <mxRectangle width="100" height="38" as="alternateBounds" />
          </mxGeometry>
        </mxCell>
        <mxCell id="_W3E5ohwo0yO-UJUAuAc-5" value="description" style="shape=partialRectangle;html=1;whiteSpace=wrap;connectable=0;strokeColor=#788AA3;overflow=hidden;fillColor=#B2C9AB;top=0;left=0;bottom=0;right=0;pointerEvents=1;labelBackgroundColor=none;fontColor=#46495D;rounded=1;" parent="_W3E5ohwo0yO-UJUAuAc-2" vertex="1">
          <mxGeometry x="312" width="469" height="38" as="geometry">
            <mxRectangle width="469" height="38" as="alternateBounds" />
          </mxGeometry>
        </mxCell>
        <mxCell id="_W3E5ohwo0yO-UJUAuAc-6" value="" style="shape=tableRow;horizontal=0;startSize=0;swimlaneHead=0;swimlaneBody=0;strokeColor=#788AA3;top=0;left=0;bottom=0;right=0;collapsible=0;dropTarget=0;fillColor=none;points=[[0,0.5],[1,0.5]];portConstraint=eastwest;labelBackgroundColor=none;fontColor=#46495D;rounded=1;" parent="_W3E5ohwo0yO-UJUAuAc-1" vertex="1">
          <mxGeometry y="78" width="781" height="42" as="geometry" />
        </mxCell>
        <mxCell id="_W3E5ohwo0yO-UJUAuAc-7" value="Jeu&lt;span style=&quot;white-space: pre;&quot;&gt;&#x9;&lt;/span&gt;" style="shape=partialRectangle;html=1;whiteSpace=wrap;connectable=0;strokeColor=#788AA3;overflow=hidden;fillColor=none;top=0;left=0;bottom=0;right=0;pointerEvents=1;labelBackgroundColor=none;fontColor=#46495D;rounded=1;" parent="_W3E5ohwo0yO-UJUAuAc-6" vertex="1">
          <mxGeometry width="212" height="42" as="geometry">
            <mxRectangle width="212" height="42" as="alternateBounds" />
          </mxGeometry>
        </mxCell>
        <mxCell id="_W3E5ohwo0yO-UJUAuAc-8" value="1" style="shape=partialRectangle;html=1;whiteSpace=wrap;connectable=0;strokeColor=#788AA3;overflow=hidden;fillColor=none;top=0;left=0;bottom=0;right=0;pointerEvents=1;labelBackgroundColor=none;fontColor=#46495D;rounded=1;" parent="_W3E5ohwo0yO-UJUAuAc-6" vertex="1">
          <mxGeometry x="212" width="100" height="42" as="geometry">
            <mxRectangle width="100" height="42" as="alternateBounds" />
          </mxGeometry>
        </mxCell>
        <mxCell id="_W3E5ohwo0yO-UJUAuAc-9" value="&lt;div align=&quot;center&quot;&gt;Le jeu Monopoly en lui même qui va pouvoir être joué par les joueurs qui veulent bien y jouer&lt;br&gt;&lt;/div&gt;" style="shape=partialRectangle;html=1;whiteSpace=wrap;connectable=0;strokeColor=#788AA3;overflow=hidden;fillColor=none;top=0;left=0;bottom=0;right=0;pointerEvents=1;labelBackgroundColor=none;fontColor=#46495D;rounded=1;" parent="_W3E5ohwo0yO-UJUAuAc-6" vertex="1">
          <mxGeometry x="312" width="469" height="42" as="geometry">
            <mxRectangle width="469" height="42" as="alternateBounds" />
          </mxGeometry>
        </mxCell>
        <mxCell id="_W3E5ohwo0yO-UJUAuAc-10" value="" style="shape=tableRow;horizontal=0;startSize=0;swimlaneHead=0;swimlaneBody=0;strokeColor=#788AA3;top=0;left=0;bottom=0;right=0;collapsible=0;dropTarget=0;fillColor=none;points=[[0,0.5],[1,0.5]];portConstraint=eastwest;labelBackgroundColor=none;fontColor=#46495D;rounded=1;" parent="_W3E5ohwo0yO-UJUAuAc-1" vertex="1">
          <mxGeometry y="120" width="781" height="30" as="geometry" />
        </mxCell>
        <mxCell id="_W3E5ohwo0yO-UJUAuAc-11" value="Joueurs" style="shape=partialRectangle;html=1;whiteSpace=wrap;connectable=0;strokeColor=#788AA3;overflow=hidden;fillColor=none;top=0;left=0;bottom=0;right=0;pointerEvents=1;labelBackgroundColor=none;fontColor=#46495D;rounded=1;" parent="_W3E5ohwo0yO-UJUAuAc-10" vertex="1">
          <mxGeometry width="212" height="30" as="geometry">
            <mxRectangle width="212" height="30" as="alternateBounds" />
          </mxGeometry>
        </mxCell>
        <mxCell id="_W3E5ohwo0yO-UJUAuAc-12" value="2. .4" style="shape=partialRectangle;html=1;whiteSpace=wrap;connectable=0;strokeColor=#788AA3;overflow=hidden;fillColor=none;top=0;left=0;bottom=0;right=0;pointerEvents=1;labelBackgroundColor=none;fontColor=#46495D;rounded=1;" parent="_W3E5ohwo0yO-UJUAuAc-10" vertex="1">
          <mxGeometry x="212" width="100" height="30" as="geometry">
            <mxRectangle width="100" height="30" as="alternateBounds" />
          </mxGeometry>
        </mxCell>
        <mxCell id="_W3E5ohwo0yO-UJUAuAc-13" value="Les joueurs/adversaires&amp;nbsp;qui disputent une partie (matérialisés par des pions.)" style="shape=partialRectangle;html=1;whiteSpace=wrap;connectable=0;strokeColor=#788AA3;overflow=hidden;fillColor=none;top=0;left=0;bottom=0;right=0;pointerEvents=1;labelBackgroundColor=none;fontColor=#46495D;rounded=1;" parent="_W3E5ohwo0yO-UJUAuAc-10" vertex="1">
          <mxGeometry x="312" width="469" height="30" as="geometry">
            <mxRectangle width="469" height="30" as="alternateBounds" />
          </mxGeometry>
        </mxCell>
        <mxCell id="_W3E5ohwo0yO-UJUAuAc-14" value="" style="shape=tableRow;horizontal=0;startSize=0;swimlaneHead=0;swimlaneBody=0;strokeColor=#788AA3;top=0;left=0;bottom=0;right=0;collapsible=0;dropTarget=0;fillColor=none;points=[[0,0.5],[1,0.5]];portConstraint=eastwest;labelBackgroundColor=none;fontColor=#46495D;rounded=1;" parent="_W3E5ohwo0yO-UJUAuAc-1" vertex="1">
          <mxGeometry y="150" width="781" height="40" as="geometry" />
        </mxCell>
        <mxCell id="_W3E5ohwo0yO-UJUAuAc-15" value="Cartes propriété" style="shape=partialRectangle;html=1;whiteSpace=wrap;connectable=0;strokeColor=#788AA3;overflow=hidden;fillColor=none;top=0;left=0;bottom=0;right=0;pointerEvents=1;labelBackgroundColor=none;fontColor=#46495D;rounded=1;" parent="_W3E5ohwo0yO-UJUAuAc-14" vertex="1">
          <mxGeometry width="212" height="40" as="geometry">
            <mxRectangle width="212" height="40" as="alternateBounds" />
          </mxGeometry>
        </mxCell>
        <mxCell id="_W3E5ohwo0yO-UJUAuAc-16" value="16" style="shape=partialRectangle;html=1;whiteSpace=wrap;connectable=0;strokeColor=#788AA3;overflow=hidden;fillColor=none;top=0;left=0;bottom=0;right=0;pointerEvents=1;labelBackgroundColor=none;fontColor=#46495D;rounded=1;" parent="_W3E5ohwo0yO-UJUAuAc-14" vertex="1">
          <mxGeometry x="212" width="100" height="40" as="geometry">
            <mxRectangle width="100" height="40" as="alternateBounds" />
          </mxGeometry>
        </mxCell>
        <mxCell id="_W3E5ohwo0yO-UJUAuAc-17" value="Les cartes propriétés qui permettent de se rappeler quels sont les propriété que les joueurs ont, car il n&#39;y a pas d&#39;indice visuel pour voir sur le plateau" style="shape=partialRectangle;html=1;whiteSpace=wrap;connectable=0;strokeColor=#788AA3;overflow=hidden;fillColor=none;top=0;left=0;bottom=0;right=0;pointerEvents=1;labelBackgroundColor=none;fontColor=#46495D;rounded=1;" parent="_W3E5ohwo0yO-UJUAuAc-14" vertex="1">
          <mxGeometry x="312" width="469" height="40" as="geometry">
            <mxRectangle width="469" height="40" as="alternateBounds" />
          </mxGeometry>
        </mxCell>
        <mxCell id="_W3E5ohwo0yO-UJUAuAc-18" style="shape=tableRow;horizontal=0;startSize=0;swimlaneHead=0;swimlaneBody=0;strokeColor=#788AA3;top=0;left=0;bottom=0;right=0;collapsible=0;dropTarget=0;fillColor=none;points=[[0,0.5],[1,0.5]];portConstraint=eastwest;labelBackgroundColor=none;fontColor=#46495D;rounded=1;" parent="_W3E5ohwo0yO-UJUAuAc-1" vertex="1">
          <mxGeometry y="190" width="781" height="30" as="geometry" />
        </mxCell>
        <mxCell id="_W3E5ohwo0yO-UJUAuAc-19" value="Dés" style="shape=partialRectangle;html=1;whiteSpace=wrap;connectable=0;strokeColor=#788AA3;overflow=hidden;fillColor=none;top=0;left=0;bottom=0;right=0;pointerEvents=1;labelBackgroundColor=none;fontColor=#46495D;rounded=1;" parent="_W3E5ohwo0yO-UJUAuAc-18" vertex="1">
          <mxGeometry width="212" height="30" as="geometry">
            <mxRectangle width="212" height="30" as="alternateBounds" />
          </mxGeometry>
        </mxCell>
        <mxCell id="_W3E5ohwo0yO-UJUAuAc-20" value="2" style="shape=partialRectangle;html=1;whiteSpace=wrap;connectable=0;strokeColor=#788AA3;overflow=hidden;fillColor=none;top=0;left=0;bottom=0;right=0;pointerEvents=1;labelBackgroundColor=none;fontColor=#46495D;rounded=1;" parent="_W3E5ohwo0yO-UJUAuAc-18" vertex="1">
          <mxGeometry x="212" width="100" height="30" as="geometry">
            <mxRectangle width="100" height="30" as="alternateBounds" />
          </mxGeometry>
        </mxCell>
        <mxCell id="_W3E5ohwo0yO-UJUAuAc-21" value="&lt;div&gt;Les dés que le joueur lance pour savoir de combien il peut avancer&lt;/div&gt;" style="shape=partialRectangle;html=1;whiteSpace=wrap;connectable=0;strokeColor=#788AA3;overflow=hidden;fillColor=none;top=0;left=0;bottom=0;right=0;pointerEvents=1;labelBackgroundColor=none;fontColor=#46495D;rounded=1;" parent="_W3E5ohwo0yO-UJUAuAc-18" vertex="1">
          <mxGeometry x="312" width="469" height="30" as="geometry">
            <mxRectangle width="469" height="30" as="alternateBounds" />
          </mxGeometry>
        </mxCell>
        <mxCell id="_W3E5ohwo0yO-UJUAuAc-22" style="shape=tableRow;horizontal=0;startSize=0;swimlaneHead=0;swimlaneBody=0;strokeColor=#788AA3;top=0;left=0;bottom=0;right=0;collapsible=0;dropTarget=0;fillColor=none;points=[[0,0.5],[1,0.5]];portConstraint=eastwest;labelBackgroundColor=none;fontColor=#46495D;rounded=1;" parent="_W3E5ohwo0yO-UJUAuAc-1" vertex="1">
          <mxGeometry y="220" width="781" height="30" as="geometry" />
        </mxCell>
        <mxCell id="_W3E5ohwo0yO-UJUAuAc-23" value="Plateau" style="shape=partialRectangle;html=1;whiteSpace=wrap;connectable=0;strokeColor=#788AA3;overflow=hidden;fillColor=none;top=0;left=0;bottom=0;right=0;pointerEvents=1;labelBackgroundColor=none;fontColor=#46495D;rounded=1;" parent="_W3E5ohwo0yO-UJUAuAc-22" vertex="1">
          <mxGeometry width="212" height="30" as="geometry">
            <mxRectangle width="212" height="30" as="alternateBounds" />
          </mxGeometry>
        </mxCell>
        <mxCell id="_W3E5ohwo0yO-UJUAuAc-24" value="1" style="shape=partialRectangle;html=1;whiteSpace=wrap;connectable=0;strokeColor=#788AA3;overflow=hidden;fillColor=none;top=0;left=0;bottom=0;right=0;pointerEvents=1;labelBackgroundColor=none;fontColor=#46495D;rounded=1;" parent="_W3E5ohwo0yO-UJUAuAc-22" vertex="1">
          <mxGeometry x="212" width="100" height="30" as="geometry">
            <mxRectangle width="100" height="30" as="alternateBounds" />
          </mxGeometry>
        </mxCell>
        <mxCell id="_W3E5ohwo0yO-UJUAuAc-25" value="Le plateau de jeu sur lesquels les joueurs vont pouvoir se déplacer lors de la partie" style="shape=partialRectangle;html=1;whiteSpace=wrap;connectable=0;strokeColor=#788AA3;overflow=hidden;fillColor=none;top=0;left=0;bottom=0;right=0;pointerEvents=1;labelBackgroundColor=none;fontColor=#46495D;rounded=1;" parent="_W3E5ohwo0yO-UJUAuAc-22" vertex="1">
          <mxGeometry x="312" width="469" height="30" as="geometry">
            <mxRectangle width="469" height="30" as="alternateBounds" />
          </mxGeometry>
        </mxCell>
        <mxCell id="_W3E5ohwo0yO-UJUAuAc-26" style="shape=tableRow;horizontal=0;startSize=0;swimlaneHead=0;swimlaneBody=0;strokeColor=#788AA3;top=0;left=0;bottom=0;right=0;collapsible=0;dropTarget=0;fillColor=none;points=[[0,0.5],[1,0.5]];portConstraint=eastwest;labelBackgroundColor=none;fontColor=#46495D;rounded=1;" parent="_W3E5ohwo0yO-UJUAuAc-1" vertex="1">
          <mxGeometry y="250" width="781" height="50" as="geometry" />
        </mxCell>
        <mxCell id="_W3E5ohwo0yO-UJUAuAc-27" value="Cartes chances" style="shape=partialRectangle;html=1;whiteSpace=wrap;connectable=0;strokeColor=#788AA3;overflow=hidden;fillColor=none;top=0;left=0;bottom=0;right=0;pointerEvents=1;labelBackgroundColor=none;fontColor=#46495D;rounded=1;" parent="_W3E5ohwo0yO-UJUAuAc-26" vertex="1">
          <mxGeometry width="212" height="50" as="geometry">
            <mxRectangle width="212" height="50" as="alternateBounds" />
          </mxGeometry>
        </mxCell>
        <mxCell id="_W3E5ohwo0yO-UJUAuAc-28" value="25" style="shape=partialRectangle;html=1;whiteSpace=wrap;connectable=0;strokeColor=#788AA3;overflow=hidden;fillColor=none;top=0;left=0;bottom=0;right=0;pointerEvents=1;labelBackgroundColor=none;fontColor=#46495D;rounded=1;" parent="_W3E5ohwo0yO-UJUAuAc-26" vertex="1">
          <mxGeometry x="212" width="100" height="50" as="geometry">
            <mxRectangle width="100" height="50" as="alternateBounds" />
          </mxGeometry>
        </mxCell>
        <mxCell id="_W3E5ohwo0yO-UJUAuAc-29" value="Carte qui permettront de recevoir des bonus et des malus (5 ont été rajouté par rapport au jeu de base, mais elles seront plus rare)" style="shape=partialRectangle;html=1;whiteSpace=wrap;connectable=0;strokeColor=#788AA3;overflow=hidden;fillColor=none;top=0;left=0;bottom=0;right=0;pointerEvents=1;labelBackgroundColor=none;fontColor=#46495D;rounded=1;" parent="_W3E5ohwo0yO-UJUAuAc-26" vertex="1">
          <mxGeometry x="312" width="469" height="50" as="geometry">
            <mxRectangle width="469" height="50" as="alternateBounds" />
          </mxGeometry>
        </mxCell>
        <mxCell id="_W3E5ohwo0yO-UJUAuAc-30" style="shape=tableRow;horizontal=0;startSize=0;swimlaneHead=0;swimlaneBody=0;strokeColor=#788AA3;top=0;left=0;bottom=0;right=0;collapsible=0;dropTarget=0;fillColor=none;points=[[0,0.5],[1,0.5]];portConstraint=eastwest;labelBackgroundColor=none;fontColor=#46495D;rounded=1;" parent="_W3E5ohwo0yO-UJUAuAc-1" vertex="1">
          <mxGeometry y="300" width="781" height="30" as="geometry" />
        </mxCell>
        <mxCell id="_W3E5ohwo0yO-UJUAuAc-31" value="Banque" style="shape=partialRectangle;html=1;whiteSpace=wrap;connectable=0;strokeColor=#788AA3;overflow=hidden;fillColor=none;top=0;left=0;bottom=0;right=0;pointerEvents=1;labelBackgroundColor=none;fontColor=#46495D;rounded=1;" parent="_W3E5ohwo0yO-UJUAuAc-30" vertex="1">
          <mxGeometry width="212" height="30" as="geometry">
            <mxRectangle width="212" height="30" as="alternateBounds" />
          </mxGeometry>
        </mxCell>
        <mxCell id="_W3E5ohwo0yO-UJUAuAc-32" value="1" style="shape=partialRectangle;html=1;whiteSpace=wrap;connectable=0;strokeColor=#788AA3;overflow=hidden;fillColor=none;top=0;left=0;bottom=0;right=0;pointerEvents=1;labelBackgroundColor=none;fontColor=#46495D;rounded=1;" parent="_W3E5ohwo0yO-UJUAuAc-30" vertex="1">
          <mxGeometry x="212" width="100" height="30" as="geometry">
            <mxRectangle width="100" height="30" as="alternateBounds" />
          </mxGeometry>
        </mxCell>
        <mxCell id="_W3E5ohwo0yO-UJUAuAc-33" value="Gestion de l&#39;argent lors de la partie" style="shape=partialRectangle;html=1;whiteSpace=wrap;connectable=0;strokeColor=#788AA3;overflow=hidden;fillColor=none;top=0;left=0;bottom=0;right=0;pointerEvents=1;labelBackgroundColor=none;fontColor=#46495D;rounded=1;" parent="_W3E5ohwo0yO-UJUAuAc-30" vertex="1">
          <mxGeometry x="312" width="469" height="30" as="geometry">
            <mxRectangle width="469" height="30" as="alternateBounds" />
          </mxGeometry>
        </mxCell>
        <mxCell id="_W3E5ohwo0yO-UJUAuAc-34" style="shape=tableRow;horizontal=0;startSize=0;swimlaneHead=0;swimlaneBody=0;strokeColor=#788AA3;top=0;left=0;bottom=0;right=0;collapsible=0;dropTarget=0;fillColor=none;points=[[0,0.5],[1,0.5]];portConstraint=eastwest;labelBackgroundColor=none;fontColor=#46495D;rounded=1;" parent="_W3E5ohwo0yO-UJUAuAc-1" vertex="1">
          <mxGeometry y="330" width="781" height="40" as="geometry" />
        </mxCell>
        <mxCell id="_W3E5ohwo0yO-UJUAuAc-35" value="Hameaux" style="shape=partialRectangle;html=1;whiteSpace=wrap;connectable=0;strokeColor=#788AA3;overflow=hidden;fillColor=none;top=0;left=0;bottom=0;right=0;pointerEvents=1;labelBackgroundColor=none;fontColor=#46495D;rounded=1;" parent="_W3E5ohwo0yO-UJUAuAc-34" vertex="1">
          <mxGeometry width="212" height="40" as="geometry">
            <mxRectangle width="212" height="40" as="alternateBounds" />
          </mxGeometry>
        </mxCell>
        <mxCell id="_W3E5ohwo0yO-UJUAuAc-36" value="8" style="shape=partialRectangle;html=1;whiteSpace=wrap;connectable=0;strokeColor=#788AA3;overflow=hidden;fillColor=none;top=0;left=0;bottom=0;right=0;pointerEvents=1;labelBackgroundColor=none;fontColor=#46495D;rounded=1;" parent="_W3E5ohwo0yO-UJUAuAc-34" vertex="1">
          <mxGeometry x="212" width="100" height="40" as="geometry">
            <mxRectangle width="100" height="40" as="alternateBounds" />
          </mxGeometry>
        </mxCell>
        <mxCell id="_W3E5ohwo0yO-UJUAuAc-37" value="Case où les joueurs peuvent acheter des propriétés pour ensuite construire des bâtiments dans des quartiers" style="shape=partialRectangle;html=1;whiteSpace=wrap;connectable=0;strokeColor=#788AA3;overflow=hidden;fillColor=none;top=0;left=0;bottom=0;right=0;pointerEvents=1;labelBackgroundColor=none;fontColor=#46495D;rounded=1;" parent="_W3E5ohwo0yO-UJUAuAc-34" vertex="1">
          <mxGeometry x="312" width="469" height="40" as="geometry">
            <mxRectangle width="469" height="40" as="alternateBounds" />
          </mxGeometry>
        </mxCell>
        <mxCell id="_W3E5ohwo0yO-UJUAuAc-38" style="shape=tableRow;horizontal=0;startSize=0;swimlaneHead=0;swimlaneBody=0;strokeColor=#788AA3;top=0;left=0;bottom=0;right=0;collapsible=0;dropTarget=0;fillColor=none;points=[[0,0.5],[1,0.5]];portConstraint=eastwest;labelBackgroundColor=none;fontColor=#46495D;rounded=1;" parent="_W3E5ohwo0yO-UJUAuAc-1" vertex="1">
          <mxGeometry y="370" width="781" height="30" as="geometry" />
        </mxCell>
        <mxCell id="_W3E5ohwo0yO-UJUAuAc-39" value="Ressources" style="shape=partialRectangle;html=1;whiteSpace=wrap;connectable=0;strokeColor=#788AA3;overflow=hidden;fillColor=none;top=0;left=0;bottom=0;right=0;pointerEvents=1;labelBackgroundColor=none;fontColor=#46495D;rounded=1;" parent="_W3E5ohwo0yO-UJUAuAc-38" vertex="1">
          <mxGeometry width="212" height="30" as="geometry">
            <mxRectangle width="212" height="30" as="alternateBounds" />
          </mxGeometry>
        </mxCell>
        <mxCell id="_W3E5ohwo0yO-UJUAuAc-40" value="80" style="shape=partialRectangle;html=1;whiteSpace=wrap;connectable=0;strokeColor=#788AA3;overflow=hidden;fillColor=none;top=0;left=0;bottom=0;right=0;pointerEvents=1;labelBackgroundColor=none;fontColor=#46495D;rounded=1;" parent="_W3E5ohwo0yO-UJUAuAc-38" vertex="1">
          <mxGeometry x="212" width="100" height="30" as="geometry">
            <mxRectangle width="100" height="30" as="alternateBounds" />
          </mxGeometry>
        </mxCell>
        <mxCell id="_W3E5ohwo0yO-UJUAuAc-41" value="Ressources qui permettent de construire les étages des bâtiments" style="shape=partialRectangle;html=1;whiteSpace=wrap;connectable=0;strokeColor=#788AA3;overflow=hidden;fillColor=none;top=0;left=0;bottom=0;right=0;pointerEvents=1;labelBackgroundColor=none;fontColor=#46495D;rounded=1;" parent="_W3E5ohwo0yO-UJUAuAc-38" vertex="1">
          <mxGeometry x="312" width="469" height="30" as="geometry">
            <mxRectangle width="469" height="30" as="alternateBounds" />
          </mxGeometry>
        </mxCell>
        <mxCell id="_W3E5ohwo0yO-UJUAuAc-42" style="shape=tableRow;horizontal=0;startSize=0;swimlaneHead=0;swimlaneBody=0;strokeColor=#788AA3;top=0;left=0;bottom=0;right=0;collapsible=0;dropTarget=0;fillColor=none;points=[[0,0.5],[1,0.5]];portConstraint=eastwest;labelBackgroundColor=none;fontColor=#46495D;rounded=1;" parent="_W3E5ohwo0yO-UJUAuAc-1" vertex="1">
          <mxGeometry y="400" width="781" height="30" as="geometry" />
        </mxCell>
        <mxCell id="_W3E5ohwo0yO-UJUAuAc-43" value="Quartier" style="shape=partialRectangle;html=1;whiteSpace=wrap;connectable=0;strokeColor=#788AA3;overflow=hidden;fillColor=none;top=0;left=0;bottom=0;right=0;pointerEvents=1;labelBackgroundColor=none;fontColor=#46495D;rounded=1;" parent="_W3E5ohwo0yO-UJUAuAc-42" vertex="1">
          <mxGeometry width="212" height="30" as="geometry">
            <mxRectangle width="212" height="30" as="alternateBounds" />
          </mxGeometry>
        </mxCell>
        <mxCell id="_W3E5ohwo0yO-UJUAuAc-44" value="8" style="shape=partialRectangle;html=1;whiteSpace=wrap;connectable=0;strokeColor=#788AA3;overflow=hidden;fillColor=none;top=0;left=0;bottom=0;right=0;pointerEvents=1;labelBackgroundColor=none;fontColor=#46495D;rounded=1;" parent="_W3E5ohwo0yO-UJUAuAc-42" vertex="1">
          <mxGeometry x="212" width="100" height="30" as="geometry">
            <mxRectangle width="100" height="30" as="alternateBounds" />
          </mxGeometry>
        </mxCell>
        <mxCell id="_W3E5ohwo0yO-UJUAuAc-45" value="Zone où les joueurs peuvent construire leurs bâtiments" style="shape=partialRectangle;html=1;whiteSpace=wrap;connectable=0;strokeColor=#788AA3;overflow=hidden;fillColor=none;top=0;left=0;bottom=0;right=0;pointerEvents=1;labelBackgroundColor=none;fontColor=#46495D;rounded=1;" parent="_W3E5ohwo0yO-UJUAuAc-42" vertex="1">
          <mxGeometry x="312" width="469" height="30" as="geometry">
            <mxRectangle width="469" height="30" as="alternateBounds" />
          </mxGeometry>
        </mxCell>
        <mxCell id="_W3E5ohwo0yO-UJUAuAc-46" style="shape=tableRow;horizontal=0;startSize=0;swimlaneHead=0;swimlaneBody=0;strokeColor=#788AA3;top=0;left=0;bottom=0;right=0;collapsible=0;dropTarget=0;fillColor=none;points=[[0,0.5],[1,0.5]];portConstraint=eastwest;labelBackgroundColor=none;fontColor=#46495D;rounded=1;" parent="_W3E5ohwo0yO-UJUAuAc-1" vertex="1">
          <mxGeometry y="430" width="781" height="40" as="geometry" />
        </mxCell>
        <mxCell id="_W3E5ohwo0yO-UJUAuAc-47" value="Batiment" style="shape=partialRectangle;html=1;whiteSpace=wrap;connectable=0;strokeColor=#788AA3;overflow=hidden;fillColor=none;top=0;left=0;bottom=0;right=0;pointerEvents=1;labelBackgroundColor=none;fontColor=#46495D;rounded=1;" parent="_W3E5ohwo0yO-UJUAuAc-46" vertex="1">
          <mxGeometry width="212" height="40" as="geometry">
            <mxRectangle width="212" height="40" as="alternateBounds" />
          </mxGeometry>
        </mxCell>
        <mxCell id="_W3E5ohwo0yO-UJUAuAc-48" value="*" style="shape=partialRectangle;html=1;whiteSpace=wrap;connectable=0;strokeColor=#788AA3;overflow=hidden;fillColor=none;top=0;left=0;bottom=0;right=0;pointerEvents=1;labelBackgroundColor=none;fontColor=#46495D;rounded=1;" parent="_W3E5ohwo0yO-UJUAuAc-46" vertex="1">
          <mxGeometry x="212" width="100" height="40" as="geometry">
            <mxRectangle width="100" height="40" as="alternateBounds" />
          </mxGeometry>
        </mxCell>
        <mxCell id="_W3E5ohwo0yO-UJUAuAc-49" value="Les bâtiments sont ce que les joueurs peuvent construire au milieu du plateau au fur et à mesure qu&#39;ils avancent dans la partie" style="shape=partialRectangle;html=1;whiteSpace=wrap;connectable=0;strokeColor=#788AA3;overflow=hidden;fillColor=none;top=0;left=0;bottom=0;right=0;pointerEvents=1;labelBackgroundColor=none;fontColor=#46495D;rounded=1;" parent="_W3E5ohwo0yO-UJUAuAc-46" vertex="1">
          <mxGeometry x="312" width="469" height="40" as="geometry">
            <mxRectangle width="469" height="40" as="alternateBounds" />
          </mxGeometry>
        </mxCell>
        <mxCell id="_W3E5ohwo0yO-UJUAuAc-50" style="shape=tableRow;horizontal=0;startSize=0;swimlaneHead=0;swimlaneBody=0;strokeColor=#788AA3;top=0;left=0;bottom=0;right=0;collapsible=0;dropTarget=0;fillColor=none;points=[[0,0.5],[1,0.5]];portConstraint=eastwest;labelBackgroundColor=none;fontColor=#46495D;rounded=1;" parent="_W3E5ohwo0yO-UJUAuAc-1" vertex="1">
          <mxGeometry y="470" width="781" height="30" as="geometry" />
        </mxCell>
        <mxCell id="_W3E5ohwo0yO-UJUAuAc-51" value="Cases" style="shape=partialRectangle;html=1;whiteSpace=wrap;connectable=0;strokeColor=#788AA3;overflow=hidden;fillColor=none;top=0;left=0;bottom=0;right=0;pointerEvents=1;labelBackgroundColor=none;fontColor=#46495D;rounded=1;" parent="_W3E5ohwo0yO-UJUAuAc-50" vertex="1">
          <mxGeometry width="212" height="30" as="geometry">
            <mxRectangle width="212" height="30" as="alternateBounds" />
          </mxGeometry>
        </mxCell>
        <mxCell id="_W3E5ohwo0yO-UJUAuAc-52" value="32" style="shape=partialRectangle;html=1;whiteSpace=wrap;connectable=0;strokeColor=#788AA3;overflow=hidden;fillColor=none;top=0;left=0;bottom=0;right=0;pointerEvents=1;labelBackgroundColor=none;fontColor=#46495D;rounded=1;" parent="_W3E5ohwo0yO-UJUAuAc-50" vertex="1">
          <mxGeometry x="212" width="100" height="30" as="geometry">
            <mxRectangle width="100" height="30" as="alternateBounds" />
          </mxGeometry>
        </mxCell>
        <mxCell id="_W3E5ohwo0yO-UJUAuAc-53" value="Cases disposées sur le plateau sur lesquels les joueurs peuvent aller dessus" style="shape=partialRectangle;html=1;whiteSpace=wrap;connectable=0;strokeColor=#788AA3;overflow=hidden;fillColor=none;top=0;left=0;bottom=0;right=0;pointerEvents=1;labelBackgroundColor=none;fontColor=#46495D;rounded=1;" parent="_W3E5ohwo0yO-UJUAuAc-50" vertex="1">
          <mxGeometry x="312" width="469" height="30" as="geometry">
            <mxRectangle width="469" height="30" as="alternateBounds" />
          </mxGeometry>
        </mxCell>
        <mxCell id="_W3E5ohwo0yO-UJUAuAc-54" style="shape=tableRow;horizontal=0;startSize=0;swimlaneHead=0;swimlaneBody=0;strokeColor=#788AA3;top=0;left=0;bottom=0;right=0;collapsible=0;dropTarget=0;fillColor=none;points=[[0,0.5],[1,0.5]];portConstraint=eastwest;labelBackgroundColor=none;fontColor=#46495D;rounded=1;" parent="_W3E5ohwo0yO-UJUAuAc-1" vertex="1">
          <mxGeometry y="500" width="781" height="30" as="geometry" />
        </mxCell>
        <mxCell id="_W3E5ohwo0yO-UJUAuAc-55" value="étages" style="shape=partialRectangle;html=1;whiteSpace=wrap;connectable=0;strokeColor=#788AA3;overflow=hidden;fillColor=none;top=0;left=0;bottom=0;right=0;pointerEvents=1;labelBackgroundColor=none;fontColor=#46495D;rounded=1;" parent="_W3E5ohwo0yO-UJUAuAc-54" vertex="1">
          <mxGeometry width="212" height="30" as="geometry">
            <mxRectangle width="212" height="30" as="alternateBounds" />
          </mxGeometry>
        </mxCell>
        <mxCell id="_W3E5ohwo0yO-UJUAuAc-56" value="1. .5" style="shape=partialRectangle;html=1;whiteSpace=wrap;connectable=0;strokeColor=#788AA3;overflow=hidden;fillColor=none;top=0;left=0;bottom=0;right=0;pointerEvents=1;labelBackgroundColor=none;fontColor=#46495D;rounded=1;" parent="_W3E5ohwo0yO-UJUAuAc-54" vertex="1">
          <mxGeometry x="212" width="100" height="30" as="geometry">
            <mxRectangle width="100" height="30" as="alternateBounds" />
          </mxGeometry>
        </mxCell>
        <mxCell id="_W3E5ohwo0yO-UJUAuAc-57" value="Étages que les joueurs peuvent mettre pour construire les bâtiments" style="shape=partialRectangle;html=1;whiteSpace=wrap;connectable=0;strokeColor=#788AA3;overflow=hidden;fillColor=none;top=0;left=0;bottom=0;right=0;pointerEvents=1;labelBackgroundColor=none;fontColor=#46495D;rounded=1;" parent="_W3E5ohwo0yO-UJUAuAc-54" vertex="1">
          <mxGeometry x="312" width="469" height="30" as="geometry">
            <mxRectangle width="469" height="30" as="alternateBounds" />
          </mxGeometry>
        </mxCell>
        <mxCell id="_W3E5ohwo0yO-UJUAuAc-58" value="A update quand on aurra toutes nos classes" style="rounded=1;whiteSpace=wrap;html=1;fillColor=#f8cecc;strokeColor=#b85450;" parent="1" vertex="1">
          <mxGeometry x="300" y="220" width="200" height="160" as="geometry" />
        </mxCell>
      </root>
    </mxGraphModel>
  </diagram>
  <diagram name="liens interclasses" id="33vtKQogQdE3ajYRxeQ-">
    <mxGraphModel dx="478" dy="255" grid="1" gridSize="10" guides="1" tooltips="1" connect="1" arrows="1" fold="1" page="1" pageScale="1" pageWidth="827" pageHeight="1169" math="0" shadow="0">
      <root>
        <mxCell id="0" />
        <mxCell id="1" parent="0" />
        <mxCell id="MjI_oz7FUHxnhjYQ3JHi-481" style="edgeStyle=orthogonalEdgeStyle;rounded=1;orthogonalLoop=1;jettySize=auto;html=1;entryX=0.5;entryY=0;entryDx=0;entryDy=0;endArrow=block;endFill=1;startArrow=diamond;startFill=1;labelBackgroundColor=none;strokeColor=#788AA3;fontColor=default;" parent="1" source="MjI_oz7FUHxnhjYQ3JHi-483" target="MjI_oz7FUHxnhjYQ3JHi-538" edge="1">
          <mxGeometry relative="1" as="geometry" />
        </mxCell>
        <mxCell id="MjI_oz7FUHxnhjYQ3JHi-719" value="1" style="edgeLabel;html=1;align=center;verticalAlign=middle;resizable=0;points=[];fontColor=#46495D;labelBackgroundColor=none;" parent="MjI_oz7FUHxnhjYQ3JHi-481" vertex="1" connectable="0">
          <mxGeometry x="-0.6612" y="-2" relative="1" as="geometry">
            <mxPoint as="offset" />
          </mxGeometry>
        </mxCell>
        <mxCell id="MjI_oz7FUHxnhjYQ3JHi-722" value="32" style="edgeLabel;html=1;align=center;verticalAlign=middle;resizable=0;points=[];fontColor=#46495D;labelBackgroundColor=none;" parent="MjI_oz7FUHxnhjYQ3JHi-481" vertex="1" connectable="0">
          <mxGeometry x="0.4817" y="1" relative="1" as="geometry">
            <mxPoint as="offset" />
          </mxGeometry>
        </mxCell>
        <mxCell id="MjI_oz7FUHxnhjYQ3JHi-483" value="Plateau" style="swimlane;fontStyle=1;align=center;verticalAlign=top;childLayout=stackLayout;horizontal=1;startSize=26;horizontalStack=0;resizeParent=1;resizeParentMax=0;resizeLast=0;collapsible=1;marginBottom=0;whiteSpace=wrap;html=1;labelBackgroundColor=none;fillColor=#B2C9AB;strokeColor=#788AA3;fontColor=#46495D;rounded=1;" parent="1" vertex="1" collapsed="1">
          <mxGeometry x="813" y="873" width="80" height="30" as="geometry">
            <mxRectangle x="813" y="847" width="160" height="86" as="alternateBounds" />
          </mxGeometry>
        </mxCell>
        <mxCell id="MjI_oz7FUHxnhjYQ3JHi-484" value="+ field: type" style="text;strokeColor=none;fillColor=none;align=left;verticalAlign=top;spacingLeft=4;spacingRight=4;overflow=hidden;rotatable=0;points=[[0,0.5],[1,0.5]];portConstraint=eastwest;whiteSpace=wrap;html=1;labelBackgroundColor=none;fontColor=#46495D;rounded=1;" parent="MjI_oz7FUHxnhjYQ3JHi-483" vertex="1">
          <mxGeometry y="26" width="160" height="26" as="geometry" />
        </mxCell>
        <mxCell id="MjI_oz7FUHxnhjYQ3JHi-485" value="" style="line;strokeWidth=1;fillColor=none;align=left;verticalAlign=middle;spacingTop=-1;spacingLeft=3;spacingRight=3;rotatable=0;labelPosition=right;points=[];portConstraint=eastwest;strokeColor=#788AA3;labelBackgroundColor=none;fontColor=#46495D;rounded=1;" parent="MjI_oz7FUHxnhjYQ3JHi-483" vertex="1">
          <mxGeometry y="52" width="160" height="8" as="geometry" />
        </mxCell>
        <mxCell id="MjI_oz7FUHxnhjYQ3JHi-486" value="+ method(type): type" style="text;strokeColor=none;fillColor=none;align=left;verticalAlign=top;spacingLeft=4;spacingRight=4;overflow=hidden;rotatable=0;points=[[0,0.5],[1,0.5]];portConstraint=eastwest;whiteSpace=wrap;html=1;labelBackgroundColor=none;fontColor=#46495D;rounded=1;" parent="MjI_oz7FUHxnhjYQ3JHi-483" vertex="1">
          <mxGeometry y="60" width="160" height="26" as="geometry" />
        </mxCell>
        <mxCell id="MjI_oz7FUHxnhjYQ3JHi-487" style="edgeStyle=orthogonalEdgeStyle;rounded=1;orthogonalLoop=1;jettySize=auto;html=1;entryX=0.5;entryY=0;entryDx=0;entryDy=0;endArrow=block;endFill=1;startArrow=diamond;startFill=1;labelBackgroundColor=none;strokeColor=#788AA3;fontColor=default;" parent="1" source="MjI_oz7FUHxnhjYQ3JHi-489" target="MjI_oz7FUHxnhjYQ3JHi-483" edge="1">
          <mxGeometry relative="1" as="geometry" />
        </mxCell>
        <mxCell id="MjI_oz7FUHxnhjYQ3JHi-704" value="1" style="edgeLabel;html=1;align=center;verticalAlign=middle;resizable=0;points=[];fontColor=#46495D;labelBackgroundColor=none;" parent="MjI_oz7FUHxnhjYQ3JHi-487" vertex="1" connectable="0">
          <mxGeometry x="-0.5992" relative="1" as="geometry">
            <mxPoint as="offset" />
          </mxGeometry>
        </mxCell>
        <mxCell id="MjI_oz7FUHxnhjYQ3JHi-705" value="1" style="edgeLabel;html=1;align=center;verticalAlign=middle;resizable=0;points=[];fontColor=#46495D;labelBackgroundColor=none;" parent="MjI_oz7FUHxnhjYQ3JHi-487" vertex="1" connectable="0">
          <mxGeometry x="0.4644" y="-1" relative="1" as="geometry">
            <mxPoint as="offset" />
          </mxGeometry>
        </mxCell>
        <mxCell id="MjI_oz7FUHxnhjYQ3JHi-488" style="edgeStyle=orthogonalEdgeStyle;rounded=1;orthogonalLoop=1;jettySize=auto;html=1;entryX=1;entryY=0.5;entryDx=0;entryDy=0;startArrow=diamond;startFill=1;labelBackgroundColor=none;strokeColor=#788AA3;fontColor=default;" parent="1" source="MjI_oz7FUHxnhjYQ3JHi-489" target="MjI_oz7FUHxnhjYQ3JHi-511" edge="1">
          <mxGeometry relative="1" as="geometry">
            <Array as="points">
              <mxPoint x="790" y="680" />
              <mxPoint x="790" y="1010" />
              <mxPoint x="730" y="1010" />
            </Array>
          </mxGeometry>
        </mxCell>
        <mxCell id="MjI_oz7FUHxnhjYQ3JHi-700" value="2..4" style="edgeLabel;html=1;align=center;verticalAlign=middle;resizable=0;points=[];fontColor=#46495D;labelBackgroundColor=none;" parent="MjI_oz7FUHxnhjYQ3JHi-488" vertex="1" connectable="0">
          <mxGeometry x="0.7236" relative="1" as="geometry">
            <mxPoint x="-18" as="offset" />
          </mxGeometry>
        </mxCell>
        <mxCell id="MjI_oz7FUHxnhjYQ3JHi-701" value="1" style="edgeLabel;html=1;align=center;verticalAlign=middle;resizable=0;points=[];fontColor=#46495D;labelBackgroundColor=none;" parent="MjI_oz7FUHxnhjYQ3JHi-488" vertex="1" connectable="0">
          <mxGeometry x="-0.8075" relative="1" as="geometry">
            <mxPoint as="offset" />
          </mxGeometry>
        </mxCell>
        <mxCell id="MjI_oz7FUHxnhjYQ3JHi-489" value="Jeu" style="swimlane;fontStyle=1;align=center;verticalAlign=top;childLayout=stackLayout;horizontal=1;startSize=26;horizontalStack=0;resizeParent=1;resizeParentMax=0;resizeLast=0;collapsible=1;marginBottom=0;whiteSpace=wrap;html=1;labelBackgroundColor=none;fillColor=#B2C9AB;strokeColor=#788AA3;fontColor=#46495D;rounded=1;" parent="1" vertex="1">
          <mxGeometry x="820" y="560" width="177" height="190" as="geometry">
            <mxRectangle x="310" y="90" width="60" height="30" as="alternateBounds" />
          </mxGeometry>
        </mxCell>
        <mxCell id="MjI_oz7FUHxnhjYQ3JHi-490" value="+ nbrDeJoueurs: int&amp;nbsp;" style="text;strokeColor=none;fillColor=none;align=left;verticalAlign=top;spacingLeft=4;spacingRight=4;overflow=hidden;rotatable=0;points=[[0,0.5],[1,0.5]];portConstraint=eastwest;whiteSpace=wrap;html=1;labelBackgroundColor=none;fontColor=#46495D;rounded=1;" parent="MjI_oz7FUHxnhjYQ3JHi-489" vertex="1">
          <mxGeometry y="26" width="177" height="26" as="geometry" />
        </mxCell>
        <mxCell id="1nXWLDHFK35CQusHAVdz-1" value="+ joueurActif: Joueur&amp;nbsp;" style="text;strokeColor=none;fillColor=none;align=left;verticalAlign=top;spacingLeft=4;spacingRight=4;overflow=hidden;rotatable=0;points=[[0,0.5],[1,0.5]];portConstraint=eastwest;whiteSpace=wrap;html=1;labelBackgroundColor=none;fontColor=#46495D;rounded=1;" parent="MjI_oz7FUHxnhjYQ3JHi-489" vertex="1">
          <mxGeometry y="52" width="177" height="26" as="geometry" />
        </mxCell>
        <mxCell id="MjI_oz7FUHxnhjYQ3JHi-491" value="" style="line;strokeWidth=1;fillColor=none;align=left;verticalAlign=middle;spacingTop=-1;spacingLeft=3;spacingRight=3;rotatable=0;labelPosition=right;points=[];portConstraint=eastwest;strokeColor=#788AA3;labelBackgroundColor=none;fontColor=#46495D;rounded=1;" parent="MjI_oz7FUHxnhjYQ3JHi-489" vertex="1">
          <mxGeometry y="78" width="177" height="8" as="geometry" />
        </mxCell>
        <mxCell id="MjI_oz7FUHxnhjYQ3JHi-492" value="+ preparer(): None" style="text;strokeColor=none;fillColor=none;align=left;verticalAlign=top;spacingLeft=4;spacingRight=4;overflow=hidden;rotatable=0;points=[[0,0.5],[1,0.5]];portConstraint=eastwest;whiteSpace=wrap;html=1;labelBackgroundColor=none;fontColor=#46495D;rounded=1;" parent="MjI_oz7FUHxnhjYQ3JHi-489" vertex="1">
          <mxGeometry y="86" width="177" height="26" as="geometry" />
        </mxCell>
        <mxCell id="DPkY8M5NOTegdsCLXGKW-4" value="+ jouerUnTour(): None" style="text;strokeColor=none;fillColor=none;align=left;verticalAlign=top;spacingLeft=4;spacingRight=4;overflow=hidden;rotatable=0;points=[[0,0.5],[1,0.5]];portConstraint=eastwest;whiteSpace=wrap;html=1;labelBackgroundColor=none;fontColor=#46495D;rounded=1;" parent="MjI_oz7FUHxnhjYQ3JHi-489" vertex="1">
          <mxGeometry y="112" width="177" height="26" as="geometry" />
        </mxCell>
        <mxCell id="DPkY8M5NOTegdsCLXGKW-6" value="+ choixNbrJoueur(): None" style="text;strokeColor=none;fillColor=none;align=left;verticalAlign=top;spacingLeft=4;spacingRight=4;overflow=hidden;rotatable=0;points=[[0,0.5],[1,0.5]];portConstraint=eastwest;whiteSpace=wrap;html=1;labelBackgroundColor=none;fontColor=#46495D;rounded=1;" parent="MjI_oz7FUHxnhjYQ3JHi-489" vertex="1">
          <mxGeometry y="138" width="177" height="26" as="geometry" />
        </mxCell>
        <mxCell id="ZuW708f_jff6XIaV6Dxy-1" value="+ changerJoueurActif():None" style="text;strokeColor=none;fillColor=none;align=left;verticalAlign=top;spacingLeft=4;spacingRight=4;overflow=hidden;rotatable=0;points=[[0,0.5],[1,0.5]];portConstraint=eastwest;whiteSpace=wrap;html=1;labelBackgroundColor=none;fontColor=#46495D;rounded=1;" parent="MjI_oz7FUHxnhjYQ3JHi-489" vertex="1">
          <mxGeometry y="164" width="177" height="26" as="geometry" />
        </mxCell>
        <mxCell id="MjI_oz7FUHxnhjYQ3JHi-498" value="Hameau" style="swimlane;fontStyle=1;align=center;verticalAlign=top;childLayout=stackLayout;horizontal=1;startSize=26;horizontalStack=0;resizeParent=1;resizeParentMax=0;resizeLast=0;collapsible=1;marginBottom=0;whiteSpace=wrap;html=1;labelBackgroundColor=none;fillColor=#B2C9AB;strokeColor=#788AA3;fontColor=#46495D;rounded=1;" parent="1" vertex="1" collapsed="1">
          <mxGeometry x="813" y="1542" width="117" height="28" as="geometry">
            <mxRectangle x="813" y="1542" width="160" height="86" as="alternateBounds" />
          </mxGeometry>
        </mxCell>
        <mxCell id="MjI_oz7FUHxnhjYQ3JHi-499" value="+ field: type" style="text;strokeColor=none;fillColor=none;align=left;verticalAlign=top;spacingLeft=4;spacingRight=4;overflow=hidden;rotatable=0;points=[[0,0.5],[1,0.5]];portConstraint=eastwest;whiteSpace=wrap;html=1;labelBackgroundColor=none;fontColor=#46495D;rounded=1;" parent="MjI_oz7FUHxnhjYQ3JHi-498" vertex="1">
          <mxGeometry y="26" width="160" height="26" as="geometry" />
        </mxCell>
        <mxCell id="MjI_oz7FUHxnhjYQ3JHi-500" value="" style="line;strokeWidth=1;fillColor=none;align=left;verticalAlign=middle;spacingTop=-1;spacingLeft=3;spacingRight=3;rotatable=0;labelPosition=right;points=[];portConstraint=eastwest;strokeColor=#788AA3;labelBackgroundColor=none;fontColor=#46495D;rounded=1;" parent="MjI_oz7FUHxnhjYQ3JHi-498" vertex="1">
          <mxGeometry y="52" width="160" height="8" as="geometry" />
        </mxCell>
        <mxCell id="MjI_oz7FUHxnhjYQ3JHi-501" value="+ method(type): type" style="text;strokeColor=none;fillColor=none;align=left;verticalAlign=top;spacingLeft=4;spacingRight=4;overflow=hidden;rotatable=0;points=[[0,0.5],[1,0.5]];portConstraint=eastwest;whiteSpace=wrap;html=1;labelBackgroundColor=none;fontColor=#46495D;rounded=1;" parent="MjI_oz7FUHxnhjYQ3JHi-498" vertex="1">
          <mxGeometry y="60" width="160" height="26" as="geometry" />
        </mxCell>
        <mxCell id="MjI_oz7FUHxnhjYQ3JHi-502" style="edgeStyle=orthogonalEdgeStyle;rounded=1;orthogonalLoop=1;jettySize=auto;html=1;entryX=0.5;entryY=0;entryDx=0;entryDy=0;endArrow=block;endFill=1;startArrow=diamond;startFill=1;labelBackgroundColor=none;strokeColor=#788AA3;fontColor=default;" parent="1" source="MjI_oz7FUHxnhjYQ3JHi-503" target="MjI_oz7FUHxnhjYQ3JHi-514" edge="1">
          <mxGeometry relative="1" as="geometry" />
        </mxCell>
        <mxCell id="MjI_oz7FUHxnhjYQ3JHi-679" value="1" style="edgeLabel;html=1;align=center;verticalAlign=middle;resizable=0;points=[];labelBackgroundColor=none;fontColor=#46495D;rounded=1;" parent="MjI_oz7FUHxnhjYQ3JHi-502" vertex="1" connectable="0">
          <mxGeometry x="-0.4634" relative="1" as="geometry">
            <mxPoint as="offset" />
          </mxGeometry>
        </mxCell>
        <mxCell id="MjI_oz7FUHxnhjYQ3JHi-680" value="3" style="edgeLabel;html=1;align=center;verticalAlign=middle;resizable=0;points=[];labelBackgroundColor=none;fontColor=#46495D;rounded=1;" parent="MjI_oz7FUHxnhjYQ3JHi-502" vertex="1" connectable="0">
          <mxGeometry x="0.3641" relative="1" as="geometry">
            <mxPoint as="offset" />
          </mxGeometry>
        </mxCell>
        <mxCell id="MjI_oz7FUHxnhjYQ3JHi-503" value="Quartier" style="swimlane;fontStyle=1;align=center;verticalAlign=top;childLayout=stackLayout;horizontal=1;startSize=26;horizontalStack=0;resizeParent=1;resizeParentMax=0;resizeLast=0;collapsible=1;marginBottom=0;whiteSpace=wrap;html=1;labelBackgroundColor=none;fillColor=#B2C9AB;strokeColor=#788AA3;fontColor=#46495D;rounded=1;" parent="1" vertex="1" collapsed="1">
          <mxGeometry x="1170" y="1436" width="60" height="30" as="geometry">
            <mxRectangle x="1100" y="1410" width="155" height="86" as="alternateBounds" />
          </mxGeometry>
        </mxCell>
        <mxCell id="MjI_oz7FUHxnhjYQ3JHi-504" value="+ field: type" style="text;strokeColor=none;fillColor=none;align=left;verticalAlign=top;spacingLeft=4;spacingRight=4;overflow=hidden;rotatable=0;points=[[0,0.5],[1,0.5]];portConstraint=eastwest;whiteSpace=wrap;html=1;labelBackgroundColor=none;fontColor=#46495D;rounded=1;" parent="MjI_oz7FUHxnhjYQ3JHi-503" vertex="1">
          <mxGeometry y="26" width="155" height="26" as="geometry" />
        </mxCell>
        <mxCell id="MjI_oz7FUHxnhjYQ3JHi-505" value="" style="line;strokeWidth=1;fillColor=none;align=left;verticalAlign=middle;spacingTop=-1;spacingLeft=3;spacingRight=3;rotatable=0;labelPosition=right;points=[];portConstraint=eastwest;strokeColor=#788AA3;labelBackgroundColor=none;fontColor=#46495D;rounded=1;" parent="MjI_oz7FUHxnhjYQ3JHi-503" vertex="1">
          <mxGeometry y="52" width="155" height="8" as="geometry" />
        </mxCell>
        <mxCell id="MjI_oz7FUHxnhjYQ3JHi-506" value="+ method(type): type" style="text;strokeColor=none;fillColor=none;align=left;verticalAlign=top;spacingLeft=4;spacingRight=4;overflow=hidden;rotatable=0;points=[[0,0.5],[1,0.5]];portConstraint=eastwest;whiteSpace=wrap;html=1;labelBackgroundColor=none;fontColor=#46495D;rounded=1;" parent="MjI_oz7FUHxnhjYQ3JHi-503" vertex="1">
          <mxGeometry y="60" width="155" height="26" as="geometry" />
        </mxCell>
        <mxCell id="MjI_oz7FUHxnhjYQ3JHi-507" style="edgeStyle=orthogonalEdgeStyle;rounded=1;orthogonalLoop=1;jettySize=auto;html=1;entryX=0.5;entryY=0;entryDx=0;entryDy=0;startArrow=diamond;startFill=0;labelBackgroundColor=none;strokeColor=#788AA3;fontColor=default;" parent="1" source="MjI_oz7FUHxnhjYQ3JHi-508" target="MjI_oz7FUHxnhjYQ3JHi-530" edge="1">
          <mxGeometry relative="1" as="geometry" />
        </mxCell>
        <mxCell id="MjI_oz7FUHxnhjYQ3JHi-723" value="0..1" style="edgeLabel;html=1;align=center;verticalAlign=middle;resizable=0;points=[];fontColor=#46495D;labelBackgroundColor=none;" parent="MjI_oz7FUHxnhjYQ3JHi-507" vertex="1" connectable="0">
          <mxGeometry x="-0.5541" y="1" relative="1" as="geometry">
            <mxPoint as="offset" />
          </mxGeometry>
        </mxCell>
        <mxCell id="MjI_oz7FUHxnhjYQ3JHi-724" value="0..6" style="edgeLabel;html=1;align=center;verticalAlign=middle;resizable=0;points=[];fontColor=#46495D;labelBackgroundColor=none;" parent="MjI_oz7FUHxnhjYQ3JHi-507" vertex="1" connectable="0">
          <mxGeometry x="0.4761" y="1" relative="1" as="geometry">
            <mxPoint as="offset" />
          </mxGeometry>
        </mxCell>
        <mxCell id="MjI_oz7FUHxnhjYQ3JHi-508" value="Joueur" style="swimlane;fontStyle=1;align=center;verticalAlign=top;childLayout=stackLayout;horizontal=1;startSize=26;horizontalStack=0;resizeParent=1;resizeParentMax=0;resizeLast=0;collapsible=1;marginBottom=0;whiteSpace=wrap;html=1;labelBackgroundColor=none;fillColor=#B2C9AB;strokeColor=#788AA3;fontColor=#46495D;rounded=1;" parent="1" vertex="1">
          <mxGeometry x="570" y="650" width="160" height="372" as="geometry">
            <mxRectangle x="180" y="170" width="60" height="30" as="alternateBounds" />
          </mxGeometry>
        </mxCell>
        <mxCell id="MjI_oz7FUHxnhjYQ3JHi-509" value="+ argent: int" style="text;strokeColor=none;fillColor=none;align=left;verticalAlign=top;spacingLeft=4;spacingRight=4;overflow=hidden;rotatable=0;points=[[0,0.5],[1,0.5]];portConstraint=eastwest;whiteSpace=wrap;html=1;labelBackgroundColor=none;fontColor=#46495D;rounded=1;" parent="MjI_oz7FUHxnhjYQ3JHi-508" vertex="1">
          <mxGeometry y="26" width="160" height="26" as="geometry" />
        </mxCell>
        <mxCell id="nFjOk-xrcSDJZlxNWX2R-1" value="+ jetonsTractopelle: int" style="text;strokeColor=none;fillColor=none;align=left;verticalAlign=top;spacingLeft=4;spacingRight=4;overflow=hidden;rotatable=0;points=[[0,0.5],[1,0.5]];portConstraint=eastwest;whiteSpace=wrap;html=1;labelBackgroundColor=none;fontColor=#46495D;rounded=1;" parent="MjI_oz7FUHxnhjYQ3JHi-508" vertex="1">
          <mxGeometry y="52" width="160" height="26" as="geometry" />
        </mxCell>
        <mxCell id="nFjOk-xrcSDJZlxNWX2R-3" value="+ jetonsBateau: int" style="text;strokeColor=none;fillColor=none;align=left;verticalAlign=top;spacingLeft=4;spacingRight=4;overflow=hidden;rotatable=0;points=[[0,0.5],[1,0.5]];portConstraint=eastwest;whiteSpace=wrap;html=1;labelBackgroundColor=none;fontColor=#46495D;rounded=1;" parent="MjI_oz7FUHxnhjYQ3JHi-508" vertex="1">
          <mxGeometry y="78" width="160" height="26" as="geometry" />
        </mxCell>
        <mxCell id="nFjOk-xrcSDJZlxNWX2R-2" value="+ jetonsCamion: int" style="text;strokeColor=none;fillColor=none;align=left;verticalAlign=top;spacingLeft=4;spacingRight=4;overflow=hidden;rotatable=0;points=[[0,0.5],[1,0.5]];portConstraint=eastwest;whiteSpace=wrap;html=1;labelBackgroundColor=none;fontColor=#46495D;rounded=1;" parent="MjI_oz7FUHxnhjYQ3JHi-508" vertex="1">
          <mxGeometry y="104" width="160" height="26" as="geometry" />
        </mxCell>
        <mxCell id="nFjOk-xrcSDJZlxNWX2R-7" value="+ jetonsGrue: int" style="text;strokeColor=none;fillColor=none;align=left;verticalAlign=top;spacingLeft=4;spacingRight=4;overflow=hidden;rotatable=0;points=[[0,0.5],[1,0.5]];portConstraint=eastwest;whiteSpace=wrap;html=1;labelBackgroundColor=none;fontColor=#46495D;rounded=1;" parent="MjI_oz7FUHxnhjYQ3JHi-508" vertex="1">
          <mxGeometry y="130" width="160" height="26" as="geometry" />
        </mxCell>
        <mxCell id="nFjOk-xrcSDJZlxNWX2R-8" value="+ proprietes: array" style="text;strokeColor=none;fillColor=none;align=left;verticalAlign=top;spacingLeft=4;spacingRight=4;overflow=hidden;rotatable=0;points=[[0,0.5],[1,0.5]];portConstraint=eastwest;whiteSpace=wrap;html=1;labelBackgroundColor=none;fontColor=#46495D;rounded=1;" parent="MjI_oz7FUHxnhjYQ3JHi-508" vertex="1">
          <mxGeometry y="156" width="160" height="26" as="geometry" />
        </mxCell>
        <mxCell id="nFjOk-xrcSDJZlxNWX2R-9" value="+ etagesRestants: int" style="text;strokeColor=none;fillColor=none;align=left;verticalAlign=top;spacingLeft=4;spacingRight=4;overflow=hidden;rotatable=0;points=[[0,0.5],[1,0.5]];portConstraint=eastwest;whiteSpace=wrap;html=1;labelBackgroundColor=none;fontColor=#46495D;rounded=1;" parent="MjI_oz7FUHxnhjYQ3JHi-508" vertex="1">
          <mxGeometry y="182" width="160" height="26" as="geometry" />
        </mxCell>
        <mxCell id="vgZAcrqW0Am1pJLElLVy-1" value="+ valeurPremierLance: int" style="text;strokeColor=none;fillColor=none;align=left;verticalAlign=top;spacingLeft=4;spacingRight=4;overflow=hidden;rotatable=0;points=[[0,0.5],[1,0.5]];portConstraint=eastwest;whiteSpace=wrap;html=1;labelBackgroundColor=none;fontColor=#46495D;rounded=1;" parent="MjI_oz7FUHxnhjYQ3JHi-508" vertex="1">
          <mxGeometry y="208" width="160" height="26" as="geometry" />
        </mxCell>
        <mxCell id="XEbCQ0VBqnzqvgVLmQbW-1" value="+ caseActuelle: int" style="text;strokeColor=none;fillColor=none;align=left;verticalAlign=top;spacingLeft=4;spacingRight=4;overflow=hidden;rotatable=0;points=[[0,0.5],[1,0.5]];portConstraint=eastwest;whiteSpace=wrap;html=1;labelBackgroundColor=none;fontColor=#46495D;rounded=1;" vertex="1" parent="MjI_oz7FUHxnhjYQ3JHi-508">
          <mxGeometry y="234" width="160" height="26" as="geometry" />
        </mxCell>
        <mxCell id="XEbCQ0VBqnzqvgVLmQbW-3" value="+ dernerreSommeDE: int" style="text;strokeColor=none;fillColor=none;align=left;verticalAlign=top;spacingLeft=4;spacingRight=4;overflow=hidden;rotatable=0;points=[[0,0.5],[1,0.5]];portConstraint=eastwest;whiteSpace=wrap;html=1;labelBackgroundColor=none;fontColor=#46495D;rounded=1;" vertex="1" parent="MjI_oz7FUHxnhjYQ3JHi-508">
          <mxGeometry y="260" width="160" height="26" as="geometry" />
        </mxCell>
        <mxCell id="XEbCQ0VBqnzqvgVLmQbW-4" value="+ enPrison: bool" style="text;strokeColor=none;fillColor=none;align=left;verticalAlign=top;spacingLeft=4;spacingRight=4;overflow=hidden;rotatable=0;points=[[0,0.5],[1,0.5]];portConstraint=eastwest;whiteSpace=wrap;html=1;labelBackgroundColor=none;fontColor=#46495D;rounded=1;" vertex="1" parent="MjI_oz7FUHxnhjYQ3JHi-508">
          <mxGeometry y="286" width="160" height="26" as="geometry" />
        </mxCell>
        <mxCell id="MjI_oz7FUHxnhjYQ3JHi-510" value="" style="line;strokeWidth=1;fillColor=none;align=left;verticalAlign=middle;spacingTop=-1;spacingLeft=3;spacingRight=3;rotatable=0;labelPosition=right;points=[];portConstraint=eastwest;strokeColor=#788AA3;labelBackgroundColor=none;fontColor=#46495D;rounded=1;" parent="MjI_oz7FUHxnhjYQ3JHi-508" vertex="1">
          <mxGeometry y="312" width="160" height="8" as="geometry" />
        </mxCell>
        <mxCell id="MjI_oz7FUHxnhjYQ3JHi-511" value="+ lancerDE(): int" style="text;strokeColor=none;fillColor=none;align=left;verticalAlign=top;spacingLeft=4;spacingRight=4;overflow=hidden;rotatable=0;points=[[0,0.5],[1,0.5]];portConstraint=eastwest;whiteSpace=wrap;html=1;labelBackgroundColor=none;fontColor=#46495D;rounded=1;" parent="MjI_oz7FUHxnhjYQ3JHi-508" vertex="1">
          <mxGeometry y="320" width="160" height="26" as="geometry" />
        </mxCell>
        <mxCell id="XEbCQ0VBqnzqvgVLmQbW-2" value="+ avancer(): int" style="text;strokeColor=none;fillColor=none;align=left;verticalAlign=top;spacingLeft=4;spacingRight=4;overflow=hidden;rotatable=0;points=[[0,0.5],[1,0.5]];portConstraint=eastwest;whiteSpace=wrap;html=1;labelBackgroundColor=none;fontColor=#46495D;rounded=1;" vertex="1" parent="MjI_oz7FUHxnhjYQ3JHi-508">
          <mxGeometry y="346" width="160" height="26" as="geometry" />
        </mxCell>
        <mxCell id="MjI_oz7FUHxnhjYQ3JHi-513" style="edgeStyle=orthogonalEdgeStyle;rounded=1;orthogonalLoop=1;jettySize=auto;html=1;entryX=0.5;entryY=0;entryDx=0;entryDy=0;startArrow=diamond;startFill=1;labelBackgroundColor=none;strokeColor=#788AA3;fontColor=default;" parent="1" source="MjI_oz7FUHxnhjYQ3JHi-514" target="MjI_oz7FUHxnhjYQ3JHi-547" edge="1">
          <mxGeometry relative="1" as="geometry">
            <Array as="points">
              <mxPoint x="1550" y="1449" />
              <mxPoint x="1550" y="1410" />
              <mxPoint x="1645" y="1410" />
            </Array>
          </mxGeometry>
        </mxCell>
        <mxCell id="MjI_oz7FUHxnhjYQ3JHi-677" value="1" style="edgeLabel;html=1;align=center;verticalAlign=middle;resizable=0;points=[];labelBackgroundColor=none;fontColor=#46495D;rounded=1;" parent="MjI_oz7FUHxnhjYQ3JHi-513" vertex="1" connectable="0">
          <mxGeometry x="-0.3048" relative="1" as="geometry">
            <mxPoint as="offset" />
          </mxGeometry>
        </mxCell>
        <mxCell id="MjI_oz7FUHxnhjYQ3JHi-678" value="0..5" style="edgeLabel;html=1;align=center;verticalAlign=middle;resizable=0;points=[];labelBackgroundColor=none;fontColor=#46495D;rounded=1;" parent="MjI_oz7FUHxnhjYQ3JHi-513" vertex="1" connectable="0">
          <mxGeometry x="0.1905" y="-1" relative="1" as="geometry">
            <mxPoint as="offset" />
          </mxGeometry>
        </mxCell>
        <mxCell id="MjI_oz7FUHxnhjYQ3JHi-514" value="Batiment" style="swimlane;fontStyle=1;align=center;verticalAlign=top;childLayout=stackLayout;horizontal=1;startSize=26;horizontalStack=0;resizeParent=1;resizeParentMax=0;resizeLast=0;collapsible=1;marginBottom=0;whiteSpace=wrap;html=1;labelBackgroundColor=none;fillColor=#B2C9AB;strokeColor=#788AA3;fontColor=#46495D;rounded=1;" parent="1" vertex="1" collapsed="1">
          <mxGeometry x="1394.98" y="1436" width="95.02" height="30" as="geometry">
            <mxRectangle x="1364.98" y="1410" width="160" height="86" as="alternateBounds" />
          </mxGeometry>
        </mxCell>
        <mxCell id="MjI_oz7FUHxnhjYQ3JHi-515" value="+ field: type" style="text;strokeColor=none;fillColor=none;align=left;verticalAlign=top;spacingLeft=4;spacingRight=4;overflow=hidden;rotatable=0;points=[[0,0.5],[1,0.5]];portConstraint=eastwest;whiteSpace=wrap;html=1;labelBackgroundColor=none;fontColor=#46495D;rounded=1;" parent="MjI_oz7FUHxnhjYQ3JHi-514" vertex="1">
          <mxGeometry y="26" width="160" height="26" as="geometry" />
        </mxCell>
        <mxCell id="MjI_oz7FUHxnhjYQ3JHi-516" value="" style="line;strokeWidth=1;fillColor=none;align=left;verticalAlign=middle;spacingTop=-1;spacingLeft=3;spacingRight=3;rotatable=0;labelPosition=right;points=[];portConstraint=eastwest;strokeColor=#788AA3;labelBackgroundColor=none;fontColor=#46495D;rounded=1;" parent="MjI_oz7FUHxnhjYQ3JHi-514" vertex="1">
          <mxGeometry y="52" width="160" height="8" as="geometry" />
        </mxCell>
        <mxCell id="MjI_oz7FUHxnhjYQ3JHi-517" value="+ method(type): type" style="text;strokeColor=none;fillColor=none;align=left;verticalAlign=top;spacingLeft=4;spacingRight=4;overflow=hidden;rotatable=0;points=[[0,0.5],[1,0.5]];portConstraint=eastwest;whiteSpace=wrap;html=1;labelBackgroundColor=none;fontColor=#46495D;rounded=1;" parent="MjI_oz7FUHxnhjYQ3JHi-514" vertex="1">
          <mxGeometry y="60" width="160" height="26" as="geometry" />
        </mxCell>
        <mxCell id="MjI_oz7FUHxnhjYQ3JHi-519" value="CarteChances" style="swimlane;fontStyle=1;align=center;verticalAlign=top;childLayout=stackLayout;horizontal=1;startSize=26;horizontalStack=0;resizeParent=1;resizeParentMax=0;resizeLast=0;collapsible=1;marginBottom=0;whiteSpace=wrap;html=1;labelBackgroundColor=none;fillColor=#B2C9AB;strokeColor=#788AA3;fontColor=#46495D;rounded=1;" parent="1" vertex="1">
          <mxGeometry x="240" y="873" width="160" height="138" as="geometry">
            <mxRectangle x="220" y="910" width="110" height="30" as="alternateBounds" />
          </mxGeometry>
        </mxCell>
        <mxCell id="MjI_oz7FUHxnhjYQ3JHi-520" value="+ titre: str" style="text;strokeColor=none;fillColor=none;align=left;verticalAlign=top;spacingLeft=4;spacingRight=4;overflow=hidden;rotatable=0;points=[[0,0.5],[1,0.5]];portConstraint=eastwest;whiteSpace=wrap;html=1;labelBackgroundColor=none;fontColor=#46495D;rounded=1;" parent="MjI_oz7FUHxnhjYQ3JHi-519" vertex="1">
          <mxGeometry y="26" width="160" height="26" as="geometry" />
        </mxCell>
        <mxCell id="-OmZr9gVB3smvno8yra1-1" value="+ contenu: str" style="text;strokeColor=none;fillColor=none;align=left;verticalAlign=top;spacingLeft=4;spacingRight=4;overflow=hidden;rotatable=0;points=[[0,0.5],[1,0.5]];portConstraint=eastwest;whiteSpace=wrap;html=1;labelBackgroundColor=none;fontColor=#46495D;rounded=1;" vertex="1" parent="MjI_oz7FUHxnhjYQ3JHi-519">
          <mxGeometry y="52" width="160" height="26" as="geometry" />
        </mxCell>
        <mxCell id="-OmZr9gVB3smvno8yra1-2" value="+ identifiant: int" style="text;strokeColor=none;fillColor=none;align=left;verticalAlign=top;spacingLeft=4;spacingRight=4;overflow=hidden;rotatable=0;points=[[0,0.5],[1,0.5]];portConstraint=eastwest;whiteSpace=wrap;html=1;labelBackgroundColor=none;fontColor=#46495D;rounded=1;" vertex="1" parent="MjI_oz7FUHxnhjYQ3JHi-519">
          <mxGeometry y="78" width="160" height="26" as="geometry" />
        </mxCell>
        <mxCell id="MjI_oz7FUHxnhjYQ3JHi-521" value="" style="line;strokeWidth=1;fillColor=none;align=left;verticalAlign=middle;spacingTop=-1;spacingLeft=3;spacingRight=3;rotatable=0;labelPosition=right;points=[];portConstraint=eastwest;strokeColor=#788AA3;labelBackgroundColor=none;fontColor=#46495D;rounded=1;" parent="MjI_oz7FUHxnhjYQ3JHi-519" vertex="1">
          <mxGeometry y="104" width="160" height="8" as="geometry" />
        </mxCell>
        <mxCell id="MjI_oz7FUHxnhjYQ3JHi-522" value="+ method(type): type" style="text;strokeColor=none;fillColor=none;align=left;verticalAlign=top;spacingLeft=4;spacingRight=4;overflow=hidden;rotatable=0;points=[[0,0.5],[1,0.5]];portConstraint=eastwest;whiteSpace=wrap;html=1;labelBackgroundColor=none;fontColor=#46495D;rounded=1;" parent="MjI_oz7FUHxnhjYQ3JHi-519" vertex="1">
          <mxGeometry y="112" width="160" height="26" as="geometry" />
        </mxCell>
        <mxCell id="MjI_oz7FUHxnhjYQ3JHi-523" style="edgeStyle=orthogonalEdgeStyle;rounded=1;orthogonalLoop=1;jettySize=auto;html=1;endArrow=none;endFill=0;labelBackgroundColor=none;strokeColor=#788AA3;fontColor=default;" parent="1" source="MjI_oz7FUHxnhjYQ3JHi-526" target="MjI_oz7FUHxnhjYQ3JHi-503" edge="1">
          <mxGeometry relative="1" as="geometry">
            <Array as="points">
              <mxPoint x="882" y="1451" />
            </Array>
          </mxGeometry>
        </mxCell>
        <mxCell id="MjI_oz7FUHxnhjYQ3JHi-670" value="1" style="edgeLabel;html=1;align=center;verticalAlign=middle;resizable=0;points=[];labelBackgroundColor=none;fontColor=#46495D;rounded=1;" parent="MjI_oz7FUHxnhjYQ3JHi-523" vertex="1" connectable="0">
          <mxGeometry x="-0.9043" relative="1" as="geometry">
            <mxPoint as="offset" />
          </mxGeometry>
        </mxCell>
        <mxCell id="MjI_oz7FUHxnhjYQ3JHi-681" value="1" style="edgeLabel;html=1;align=center;verticalAlign=middle;resizable=0;points=[];labelBackgroundColor=none;fontColor=#46495D;rounded=1;" parent="MjI_oz7FUHxnhjYQ3JHi-523" vertex="1" connectable="0">
          <mxGeometry x="0.9235" relative="1" as="geometry">
            <mxPoint as="offset" />
          </mxGeometry>
        </mxCell>
        <mxCell id="MjI_oz7FUHxnhjYQ3JHi-524" style="edgeStyle=orthogonalEdgeStyle;rounded=1;orthogonalLoop=1;jettySize=auto;html=1;startArrow=diamond;startFill=1;labelBackgroundColor=none;strokeColor=#788AA3;fontColor=default;" parent="1" source="MjI_oz7FUHxnhjYQ3JHi-526" target="MjI_oz7FUHxnhjYQ3JHi-498" edge="1">
          <mxGeometry relative="1" as="geometry">
            <Array as="points">
              <mxPoint x="860" y="1489" />
              <mxPoint x="893" y="1489" />
            </Array>
          </mxGeometry>
        </mxCell>
        <mxCell id="MjI_oz7FUHxnhjYQ3JHi-674" value="2" style="edgeLabel;html=1;align=center;verticalAlign=middle;resizable=0;points=[];labelBackgroundColor=none;fontColor=#46495D;rounded=1;" parent="MjI_oz7FUHxnhjYQ3JHi-524" vertex="1" connectable="0">
          <mxGeometry x="-0.5181" relative="1" as="geometry">
            <mxPoint as="offset" />
          </mxGeometry>
        </mxCell>
        <mxCell id="MjI_oz7FUHxnhjYQ3JHi-675" value="1" style="edgeLabel;html=1;align=center;verticalAlign=middle;resizable=0;points=[];labelBackgroundColor=none;fontColor=#46495D;rounded=1;" parent="MjI_oz7FUHxnhjYQ3JHi-524" vertex="1" connectable="0">
          <mxGeometry x="0.4724" y="1" relative="1" as="geometry">
            <mxPoint as="offset" />
          </mxGeometry>
        </mxCell>
        <mxCell id="MjI_oz7FUHxnhjYQ3JHi-526" value="CarteProprietee" style="swimlane;fontStyle=1;align=center;verticalAlign=top;childLayout=stackLayout;horizontal=1;startSize=26;horizontalStack=0;resizeParent=1;resizeParentMax=0;resizeLast=0;collapsible=1;marginBottom=0;whiteSpace=wrap;html=1;labelBackgroundColor=none;fillColor=#B2C9AB;strokeColor=#788AA3;fontColor=#46495D;rounded=1;" parent="1" vertex="1" collapsed="1">
          <mxGeometry x="813" y="1406" width="137" height="30" as="geometry">
            <mxRectangle x="813" y="1406" width="160" height="86" as="alternateBounds" />
          </mxGeometry>
        </mxCell>
        <mxCell id="MjI_oz7FUHxnhjYQ3JHi-527" value="+ field: type" style="text;strokeColor=none;fillColor=none;align=left;verticalAlign=top;spacingLeft=4;spacingRight=4;overflow=hidden;rotatable=0;points=[[0,0.5],[1,0.5]];portConstraint=eastwest;whiteSpace=wrap;html=1;labelBackgroundColor=none;fontColor=#46495D;rounded=1;" parent="MjI_oz7FUHxnhjYQ3JHi-526" vertex="1">
          <mxGeometry y="26" width="160" height="26" as="geometry" />
        </mxCell>
        <mxCell id="MjI_oz7FUHxnhjYQ3JHi-528" value="" style="line;strokeWidth=1;fillColor=none;align=left;verticalAlign=middle;spacingTop=-1;spacingLeft=3;spacingRight=3;rotatable=0;labelPosition=right;points=[];portConstraint=eastwest;strokeColor=#788AA3;labelBackgroundColor=none;fontColor=#46495D;rounded=1;" parent="MjI_oz7FUHxnhjYQ3JHi-526" vertex="1">
          <mxGeometry y="52" width="160" height="8" as="geometry" />
        </mxCell>
        <mxCell id="MjI_oz7FUHxnhjYQ3JHi-529" value="+ method(type): type" style="text;strokeColor=none;fillColor=none;align=left;verticalAlign=top;spacingLeft=4;spacingRight=4;overflow=hidden;rotatable=0;points=[[0,0.5],[1,0.5]];portConstraint=eastwest;whiteSpace=wrap;html=1;labelBackgroundColor=none;fontColor=#46495D;rounded=1;" parent="MjI_oz7FUHxnhjYQ3JHi-526" vertex="1">
          <mxGeometry y="60" width="160" height="26" as="geometry" />
        </mxCell>
        <mxCell id="MjI_oz7FUHxnhjYQ3JHi-530" value="Ressource" style="swimlane;fontStyle=1;align=center;verticalAlign=top;childLayout=stackLayout;horizontal=1;startSize=26;horizontalStack=0;resizeParent=1;resizeParentMax=0;resizeLast=0;collapsible=1;marginBottom=0;whiteSpace=wrap;html=1;labelBackgroundColor=none;fillColor=#B2C9AB;strokeColor=#788AA3;fontColor=#46495D;rounded=1;" parent="1" vertex="1">
          <mxGeometry x="570" y="1130" width="160" height="86" as="geometry">
            <mxRectangle x="180" y="170" width="60" height="30" as="alternateBounds" />
          </mxGeometry>
        </mxCell>
        <mxCell id="MjI_oz7FUHxnhjYQ3JHi-531" value="+ field: type" style="text;strokeColor=none;fillColor=none;align=left;verticalAlign=top;spacingLeft=4;spacingRight=4;overflow=hidden;rotatable=0;points=[[0,0.5],[1,0.5]];portConstraint=eastwest;whiteSpace=wrap;html=1;labelBackgroundColor=none;fontColor=#46495D;rounded=1;" parent="MjI_oz7FUHxnhjYQ3JHi-530" vertex="1">
          <mxGeometry y="26" width="160" height="26" as="geometry" />
        </mxCell>
        <mxCell id="MjI_oz7FUHxnhjYQ3JHi-532" value="" style="line;strokeWidth=1;fillColor=none;align=left;verticalAlign=middle;spacingTop=-1;spacingLeft=3;spacingRight=3;rotatable=0;labelPosition=right;points=[];portConstraint=eastwest;strokeColor=#788AA3;labelBackgroundColor=none;fontColor=#46495D;rounded=1;" parent="MjI_oz7FUHxnhjYQ3JHi-530" vertex="1">
          <mxGeometry y="52" width="160" height="8" as="geometry" />
        </mxCell>
        <mxCell id="MjI_oz7FUHxnhjYQ3JHi-533" value="+ method(type): type" style="text;strokeColor=none;fillColor=none;align=left;verticalAlign=top;spacingLeft=4;spacingRight=4;overflow=hidden;rotatable=0;points=[[0,0.5],[1,0.5]];portConstraint=eastwest;whiteSpace=wrap;html=1;labelBackgroundColor=none;fontColor=#46495D;rounded=1;" parent="MjI_oz7FUHxnhjYQ3JHi-530" vertex="1">
          <mxGeometry y="60" width="160" height="26" as="geometry" />
        </mxCell>
        <mxCell id="MjI_oz7FUHxnhjYQ3JHi-534" style="edgeStyle=orthogonalEdgeStyle;rounded=1;orthogonalLoop=1;jettySize=auto;html=1;endArrow=blockThin;endFill=1;startArrow=diamond;startFill=0;labelBackgroundColor=none;strokeColor=#788AA3;fontColor=default;" parent="1" source="MjI_oz7FUHxnhjYQ3JHi-538" target="MjI_oz7FUHxnhjYQ3JHi-508" edge="1">
          <mxGeometry relative="1" as="geometry">
            <Array as="points">
              <mxPoint x="790" y="1060" />
              <mxPoint x="790" y="1090" />
              <mxPoint x="500" y="1090" />
              <mxPoint x="500" y="850" />
            </Array>
          </mxGeometry>
        </mxCell>
        <mxCell id="MjI_oz7FUHxnhjYQ3JHi-725" value="0..4" style="edgeLabel;html=1;align=center;verticalAlign=middle;resizable=0;points=[];fontColor=#46495D;labelBackgroundColor=none;" parent="MjI_oz7FUHxnhjYQ3JHi-534" vertex="1" connectable="0">
          <mxGeometry x="0.9237" y="3" relative="1" as="geometry">
            <mxPoint as="offset" />
          </mxGeometry>
        </mxCell>
        <mxCell id="MjI_oz7FUHxnhjYQ3JHi-730" value="peut contenir un pion" style="edgeLabel;html=1;align=center;verticalAlign=middle;resizable=0;points=[];fontColor=#46495D;labelBackgroundColor=none;" parent="MjI_oz7FUHxnhjYQ3JHi-534" vertex="1" connectable="0">
          <mxGeometry x="-0.3928" y="-1" relative="1" as="geometry">
            <mxPoint x="-65" as="offset" />
          </mxGeometry>
        </mxCell>
        <mxCell id="nFjOk-xrcSDJZlxNWX2R-5" value="1" style="edgeLabel;html=1;align=center;verticalAlign=middle;resizable=0;points=[];labelBackgroundColor=none;fontColor=#46495D;" parent="MjI_oz7FUHxnhjYQ3JHi-534" vertex="1" connectable="0">
          <mxGeometry x="-0.9421" y="1" relative="1" as="geometry">
            <mxPoint as="offset" />
          </mxGeometry>
        </mxCell>
        <mxCell id="MjI_oz7FUHxnhjYQ3JHi-537" style="edgeStyle=orthogonalEdgeStyle;rounded=1;orthogonalLoop=1;jettySize=auto;html=1;entryX=1;entryY=0.5;entryDx=0;entryDy=0;startArrow=diamond;startFill=0;labelBackgroundColor=none;strokeColor=#788AA3;fontColor=default;" parent="1" source="MjI_oz7FUHxnhjYQ3JHi-538" target="MjI_oz7FUHxnhjYQ3JHi-531" edge="1">
          <mxGeometry relative="1" as="geometry">
            <Array as="points">
              <mxPoint x="750" y="1030" />
              <mxPoint x="750" y="1170" />
            </Array>
          </mxGeometry>
        </mxCell>
        <mxCell id="nFjOk-xrcSDJZlxNWX2R-4" value="1" style="edgeLabel;html=1;align=center;verticalAlign=middle;resizable=0;points=[];labelBackgroundColor=none;fontColor=#46495D;" parent="MjI_oz7FUHxnhjYQ3JHi-537" vertex="1" connectable="0">
          <mxGeometry x="-0.6728" y="-1" relative="1" as="geometry">
            <mxPoint x="23" as="offset" />
          </mxGeometry>
        </mxCell>
        <mxCell id="nFjOk-xrcSDJZlxNWX2R-6" value="0..2" style="edgeLabel;html=1;align=center;verticalAlign=middle;resizable=0;points=[];labelBackgroundColor=none;fontColor=#46495D;" parent="MjI_oz7FUHxnhjYQ3JHi-537" vertex="1" connectable="0">
          <mxGeometry x="0.7032" relative="1" as="geometry">
            <mxPoint as="offset" />
          </mxGeometry>
        </mxCell>
        <mxCell id="MjI_oz7FUHxnhjYQ3JHi-693" style="edgeStyle=orthogonalEdgeStyle;rounded=0;orthogonalLoop=1;jettySize=auto;html=1;endArrow=block;endFill=0;labelBackgroundColor=none;strokeColor=#788AA3;fontColor=default;" parent="1" source="MjI_oz7FUHxnhjYQ3JHi-538" target="MjI_oz7FUHxnhjYQ3JHi-600" edge="1">
          <mxGeometry relative="1" as="geometry" />
        </mxCell>
        <mxCell id="MjI_oz7FUHxnhjYQ3JHi-710" value="1" style="edgeLabel;html=1;align=center;verticalAlign=middle;resizable=0;points=[];fontColor=#46495D;labelBackgroundColor=none;" parent="MjI_oz7FUHxnhjYQ3JHi-693" vertex="1" connectable="0">
          <mxGeometry x="-0.637" y="1" relative="1" as="geometry">
            <mxPoint as="offset" />
          </mxGeometry>
        </mxCell>
        <mxCell id="MjI_oz7FUHxnhjYQ3JHi-711" value="1" style="edgeLabel;html=1;align=center;verticalAlign=middle;resizable=0;points=[];fontColor=#46495D;labelBackgroundColor=none;" parent="MjI_oz7FUHxnhjYQ3JHi-693" vertex="1" connectable="0">
          <mxGeometry x="0.2932" y="-1" relative="1" as="geometry">
            <mxPoint as="offset" />
          </mxGeometry>
        </mxCell>
        <mxCell id="MjI_oz7FUHxnhjYQ3JHi-695" style="edgeStyle=orthogonalEdgeStyle;rounded=0;orthogonalLoop=1;jettySize=auto;html=1;endArrow=block;endFill=0;labelBackgroundColor=none;strokeColor=#788AA3;fontColor=default;" parent="1" source="MjI_oz7FUHxnhjYQ3JHi-538" target="MjI_oz7FUHxnhjYQ3JHi-608" edge="1">
          <mxGeometry relative="1" as="geometry">
            <Array as="points">
              <mxPoint x="1248" y="1032" />
            </Array>
          </mxGeometry>
        </mxCell>
        <mxCell id="MjI_oz7FUHxnhjYQ3JHi-714" value="1" style="edgeLabel;html=1;align=center;verticalAlign=middle;resizable=0;points=[];fontColor=#46495D;labelBackgroundColor=none;" parent="MjI_oz7FUHxnhjYQ3JHi-695" vertex="1" connectable="0">
          <mxGeometry x="0.9028" y="-1" relative="1" as="geometry">
            <mxPoint as="offset" />
          </mxGeometry>
        </mxCell>
        <mxCell id="MjI_oz7FUHxnhjYQ3JHi-697" style="edgeStyle=orthogonalEdgeStyle;rounded=0;orthogonalLoop=1;jettySize=auto;html=1;endArrow=block;endFill=0;labelBackgroundColor=none;strokeColor=#788AA3;fontColor=default;" parent="1" source="MjI_oz7FUHxnhjYQ3JHi-538" target="MjI_oz7FUHxnhjYQ3JHi-616" edge="1">
          <mxGeometry relative="1" as="geometry">
            <Array as="points">
              <mxPoint x="1605" y="1032" />
            </Array>
          </mxGeometry>
        </mxCell>
        <mxCell id="MjI_oz7FUHxnhjYQ3JHi-716" value="1" style="edgeLabel;html=1;align=center;verticalAlign=middle;resizable=0;points=[];fontColor=#46495D;labelBackgroundColor=none;" parent="MjI_oz7FUHxnhjYQ3JHi-697" vertex="1" connectable="0">
          <mxGeometry x="0.9452" y="3" relative="1" as="geometry">
            <mxPoint as="offset" />
          </mxGeometry>
        </mxCell>
        <mxCell id="fvR2didN9V42rClz2dMw-5" style="edgeStyle=orthogonalEdgeStyle;rounded=0;orthogonalLoop=1;jettySize=auto;html=1;entryX=0.5;entryY=0;entryDx=0;entryDy=0;endArrow=blockThin;endFill=0;labelBackgroundColor=none;strokeColor=#788AA3;fontColor=default;" parent="1" source="MjI_oz7FUHxnhjYQ3JHi-538" target="fvR2didN9V42rClz2dMw-1" edge="1">
          <mxGeometry relative="1" as="geometry" />
        </mxCell>
        <mxCell id="fvR2didN9V42rClz2dMw-6" value="1&lt;br&gt;" style="edgeLabel;html=1;align=center;verticalAlign=middle;resizable=0;points=[];labelBackgroundColor=none;fontColor=#46495D;" parent="fvR2didN9V42rClz2dMw-5" vertex="1" connectable="0">
          <mxGeometry x="0.9678" y="2" relative="1" as="geometry">
            <mxPoint as="offset" />
          </mxGeometry>
        </mxCell>
        <mxCell id="MjI_oz7FUHxnhjYQ3JHi-538" value="Case" style="swimlane;fontStyle=1;align=center;verticalAlign=top;childLayout=stackLayout;horizontal=1;startSize=26;horizontalStack=0;resizeParent=1;resizeParentMax=0;resizeLast=0;collapsible=1;marginBottom=0;whiteSpace=wrap;html=1;labelBackgroundColor=none;fillColor=#B2C9AB;strokeColor=#788AA3;fontColor=#46495D;rounded=1;" parent="1" vertex="1">
          <mxGeometry x="813" y="990" width="160" height="86" as="geometry">
            <mxRectangle x="180" y="170" width="60" height="30" as="alternateBounds" />
          </mxGeometry>
        </mxCell>
        <mxCell id="MjI_oz7FUHxnhjYQ3JHi-539" value="+ numero: int" style="text;strokeColor=none;fillColor=none;align=left;verticalAlign=top;spacingLeft=4;spacingRight=4;overflow=hidden;rotatable=0;points=[[0,0.5],[1,0.5]];portConstraint=eastwest;whiteSpace=wrap;html=1;labelBackgroundColor=none;fontColor=#46495D;rounded=1;" parent="MjI_oz7FUHxnhjYQ3JHi-538" vertex="1">
          <mxGeometry y="26" width="160" height="26" as="geometry" />
        </mxCell>
        <mxCell id="MjI_oz7FUHxnhjYQ3JHi-540" value="" style="line;strokeWidth=1;fillColor=none;align=left;verticalAlign=middle;spacingTop=-1;spacingLeft=3;spacingRight=3;rotatable=0;labelPosition=right;points=[];portConstraint=eastwest;strokeColor=#788AA3;labelBackgroundColor=none;fontColor=#46495D;rounded=1;" parent="MjI_oz7FUHxnhjYQ3JHi-538" vertex="1">
          <mxGeometry y="52" width="160" height="8" as="geometry" />
        </mxCell>
        <mxCell id="MjI_oz7FUHxnhjYQ3JHi-541" value="/" style="text;strokeColor=none;fillColor=none;align=left;verticalAlign=top;spacingLeft=4;spacingRight=4;overflow=hidden;rotatable=0;points=[[0,0.5],[1,0.5]];portConstraint=eastwest;whiteSpace=wrap;html=1;labelBackgroundColor=none;fontColor=#46495D;rounded=1;" parent="MjI_oz7FUHxnhjYQ3JHi-538" vertex="1">
          <mxGeometry y="60" width="160" height="26" as="geometry" />
        </mxCell>
        <mxCell id="MjI_oz7FUHxnhjYQ3JHi-542" style="edgeStyle=orthogonalEdgeStyle;rounded=1;orthogonalLoop=1;jettySize=auto;html=1;endArrow=none;endFill=0;labelBackgroundColor=none;strokeColor=#788AA3;fontColor=default;" parent="1" source="MjI_oz7FUHxnhjYQ3JHi-543" target="MjI_oz7FUHxnhjYQ3JHi-508" edge="1">
          <mxGeometry relative="1" as="geometry">
            <Array as="points">
              <mxPoint x="875.02" y="804" />
              <mxPoint x="875.02" y="780" />
            </Array>
          </mxGeometry>
        </mxCell>
        <mxCell id="MjI_oz7FUHxnhjYQ3JHi-702" value="2..4" style="edgeLabel;html=1;align=center;verticalAlign=middle;resizable=0;points=[];fontColor=#46495D;labelBackgroundColor=none;" parent="MjI_oz7FUHxnhjYQ3JHi-542" vertex="1" connectable="0">
          <mxGeometry x="0.8628" y="-2" relative="1" as="geometry">
            <mxPoint as="offset" />
          </mxGeometry>
        </mxCell>
        <mxCell id="MjI_oz7FUHxnhjYQ3JHi-706" value="1" style="edgeLabel;html=1;align=center;verticalAlign=middle;resizable=0;points=[];fontColor=#46495D;labelBackgroundColor=none;" parent="MjI_oz7FUHxnhjYQ3JHi-542" vertex="1" connectable="0">
          <mxGeometry x="-0.9343" relative="1" as="geometry">
            <mxPoint as="offset" />
          </mxGeometry>
        </mxCell>
        <mxCell id="MjI_oz7FUHxnhjYQ3JHi-543" value="Banque" style="swimlane;fontStyle=1;align=center;verticalAlign=top;childLayout=stackLayout;horizontal=1;startSize=26;horizontalStack=0;resizeParent=1;resizeParentMax=0;resizeLast=0;collapsible=1;marginBottom=0;whiteSpace=wrap;html=1;labelBackgroundColor=none;fillColor=#B2C9AB;strokeColor=#788AA3;fontColor=#46495D;rounded=1;" parent="1" vertex="1">
          <mxGeometry x="1020" y="710" width="160" height="150" as="geometry">
            <mxRectangle x="310" y="90" width="60" height="30" as="alternateBounds" />
          </mxGeometry>
        </mxCell>
        <mxCell id="MjI_oz7FUHxnhjYQ3JHi-544" value="+ envoyeur: Joueur" style="text;strokeColor=none;fillColor=none;align=left;verticalAlign=top;spacingLeft=4;spacingRight=4;overflow=hidden;rotatable=0;points=[[0,0.5],[1,0.5]];portConstraint=eastwest;whiteSpace=wrap;html=1;labelBackgroundColor=none;fontColor=#46495D;rounded=1;" parent="MjI_oz7FUHxnhjYQ3JHi-543" vertex="1">
          <mxGeometry y="26" width="160" height="26" as="geometry" />
        </mxCell>
        <mxCell id="fvR2didN9V42rClz2dMw-7" value="+ receveur: Joueur" style="text;strokeColor=none;fillColor=none;align=left;verticalAlign=top;spacingLeft=4;spacingRight=4;overflow=hidden;rotatable=0;points=[[0,0.5],[1,0.5]];portConstraint=eastwest;whiteSpace=wrap;html=1;labelBackgroundColor=none;fontColor=#46495D;rounded=1;" parent="MjI_oz7FUHxnhjYQ3JHi-543" vertex="1">
          <mxGeometry y="52" width="160" height="26" as="geometry" />
        </mxCell>
        <mxCell id="MjI_oz7FUHxnhjYQ3JHi-545" value="" style="line;strokeWidth=1;fillColor=none;align=left;verticalAlign=middle;spacingTop=-1;spacingLeft=3;spacingRight=3;rotatable=0;labelPosition=right;points=[];portConstraint=eastwest;strokeColor=#788AA3;labelBackgroundColor=none;fontColor=#46495D;rounded=1;" parent="MjI_oz7FUHxnhjYQ3JHi-543" vertex="1">
          <mxGeometry y="78" width="160" height="8" as="geometry" />
        </mxCell>
        <mxCell id="MjI_oz7FUHxnhjYQ3JHi-546" value="+ transferer(somme)" style="text;strokeColor=none;fillColor=none;align=left;verticalAlign=top;spacingLeft=4;spacingRight=4;overflow=hidden;rotatable=0;points=[[0,0.5],[1,0.5]];portConstraint=eastwest;whiteSpace=wrap;html=1;labelBackgroundColor=none;fontColor=#46495D;rounded=1;" parent="MjI_oz7FUHxnhjYQ3JHi-543" vertex="1">
          <mxGeometry y="86" width="160" height="26" as="geometry" />
        </mxCell>
        <mxCell id="fvR2didN9V42rClz2dMw-8" value="+ modifierBalance(joueur, somme)" style="text;strokeColor=none;fillColor=none;align=left;verticalAlign=top;spacingLeft=4;spacingRight=4;overflow=hidden;rotatable=0;points=[[0,0.5],[1,0.5]];portConstraint=eastwest;whiteSpace=wrap;html=1;labelBackgroundColor=none;fontColor=#46495D;rounded=1;" parent="MjI_oz7FUHxnhjYQ3JHi-543" vertex="1">
          <mxGeometry y="112" width="160" height="38" as="geometry" />
        </mxCell>
        <mxCell id="MjI_oz7FUHxnhjYQ3JHi-547" value="Etage" style="swimlane;fontStyle=1;align=center;verticalAlign=top;childLayout=stackLayout;horizontal=1;startSize=26;horizontalStack=0;resizeParent=1;resizeParentMax=0;resizeLast=0;collapsible=1;marginBottom=0;whiteSpace=wrap;html=1;labelBackgroundColor=none;fillColor=#B2C9AB;strokeColor=#788AA3;fontColor=#46495D;rounded=1;" parent="1" vertex="1" collapsed="1">
          <mxGeometry x="1600" y="1436" width="90" height="30" as="geometry">
            <mxRectangle x="1620" y="1410" width="160" height="86" as="alternateBounds" />
          </mxGeometry>
        </mxCell>
        <mxCell id="MjI_oz7FUHxnhjYQ3JHi-548" value="+ field: type" style="text;strokeColor=none;fillColor=none;align=left;verticalAlign=top;spacingLeft=4;spacingRight=4;overflow=hidden;rotatable=0;points=[[0,0.5],[1,0.5]];portConstraint=eastwest;whiteSpace=wrap;html=1;labelBackgroundColor=none;fontColor=#46495D;rounded=1;" parent="MjI_oz7FUHxnhjYQ3JHi-547" vertex="1">
          <mxGeometry y="26" width="160" height="26" as="geometry" />
        </mxCell>
        <mxCell id="MjI_oz7FUHxnhjYQ3JHi-549" value="" style="line;strokeWidth=1;fillColor=none;align=left;verticalAlign=middle;spacingTop=-1;spacingLeft=3;spacingRight=3;rotatable=0;labelPosition=right;points=[];portConstraint=eastwest;strokeColor=#788AA3;labelBackgroundColor=none;fontColor=#46495D;rounded=1;" parent="MjI_oz7FUHxnhjYQ3JHi-547" vertex="1">
          <mxGeometry y="52" width="160" height="8" as="geometry" />
        </mxCell>
        <mxCell id="MjI_oz7FUHxnhjYQ3JHi-550" value="+ method(type): type" style="text;strokeColor=none;fillColor=none;align=left;verticalAlign=top;spacingLeft=4;spacingRight=4;overflow=hidden;rotatable=0;points=[[0,0.5],[1,0.5]];portConstraint=eastwest;whiteSpace=wrap;html=1;labelBackgroundColor=none;fontColor=#46495D;rounded=1;" parent="MjI_oz7FUHxnhjYQ3JHi-547" vertex="1">
          <mxGeometry y="60" width="160" height="26" as="geometry" />
        </mxCell>
        <mxCell id="MjI_oz7FUHxnhjYQ3JHi-551" style="edgeStyle=orthogonalEdgeStyle;rounded=1;orthogonalLoop=1;jettySize=auto;html=1;entryX=0.5;entryY=0;entryDx=0;entryDy=0;startArrow=diamond;startFill=1;labelBackgroundColor=none;strokeColor=#788AA3;fontColor=default;" parent="1" source="MjI_oz7FUHxnhjYQ3JHi-490" target="MjI_oz7FUHxnhjYQ3JHi-543" edge="1">
          <mxGeometry relative="1" as="geometry" />
        </mxCell>
        <mxCell id="MjI_oz7FUHxnhjYQ3JHi-707" value="1" style="edgeLabel;html=1;align=center;verticalAlign=middle;resizable=0;points=[];fontColor=#46495D;labelBackgroundColor=none;" parent="MjI_oz7FUHxnhjYQ3JHi-551" vertex="1" connectable="0">
          <mxGeometry x="-0.7861" relative="1" as="geometry">
            <mxPoint as="offset" />
          </mxGeometry>
        </mxCell>
        <mxCell id="MjI_oz7FUHxnhjYQ3JHi-708" value="1" style="edgeLabel;html=1;align=center;verticalAlign=middle;resizable=0;points=[];fontColor=#46495D;labelBackgroundColor=none;" parent="MjI_oz7FUHxnhjYQ3JHi-551" vertex="1" connectable="0">
          <mxGeometry x="0.787" y="-1" relative="1" as="geometry">
            <mxPoint as="offset" />
          </mxGeometry>
        </mxCell>
        <mxCell id="MjI_oz7FUHxnhjYQ3JHi-552" style="edgeStyle=orthogonalEdgeStyle;rounded=1;orthogonalLoop=1;jettySize=auto;html=1;entryX=0;entryY=0.5;entryDx=0;entryDy=0;startArrow=diamond;startFill=1;labelBackgroundColor=none;strokeColor=#788AA3;fontColor=default;" parent="1" source="MjI_oz7FUHxnhjYQ3JHi-490" target="MjI_oz7FUHxnhjYQ3JHi-520" edge="1">
          <mxGeometry relative="1" as="geometry">
            <Array as="points">
              <mxPoint x="170" y="590" />
              <mxPoint x="170" y="912" />
            </Array>
          </mxGeometry>
        </mxCell>
        <mxCell id="MjI_oz7FUHxnhjYQ3JHi-663" value="0..25" style="edgeLabel;html=1;align=center;verticalAlign=middle;resizable=0;points=[];labelBackgroundColor=none;fontColor=#46495D;rounded=1;" parent="MjI_oz7FUHxnhjYQ3JHi-552" vertex="1" connectable="0">
          <mxGeometry x="0.9188" y="-1" relative="1" as="geometry">
            <mxPoint as="offset" />
          </mxGeometry>
        </mxCell>
        <mxCell id="MjI_oz7FUHxnhjYQ3JHi-729" value="1" style="edgeLabel;html=1;align=center;verticalAlign=middle;resizable=0;points=[];fontColor=#46495D;labelBackgroundColor=none;" parent="MjI_oz7FUHxnhjYQ3JHi-552" vertex="1" connectable="0">
          <mxGeometry x="-0.9185" y="-2" relative="1" as="geometry">
            <mxPoint as="offset" />
          </mxGeometry>
        </mxCell>
        <mxCell id="MjI_oz7FUHxnhjYQ3JHi-557" style="edgeStyle=orthogonalEdgeStyle;rounded=1;orthogonalLoop=1;jettySize=auto;html=1;entryX=1;entryY=0.5;entryDx=0;entryDy=0;startArrow=diamond;startFill=0;endArrow=blockThin;endFill=1;labelBackgroundColor=none;strokeColor=#788AA3;fontColor=default;" parent="1" source="MjI_oz7FUHxnhjYQ3JHi-509" target="MjI_oz7FUHxnhjYQ3JHi-520" edge="1">
          <mxGeometry relative="1" as="geometry">
            <Array as="points">
              <mxPoint x="470" y="680" />
              <mxPoint x="470" y="929" />
              <mxPoint x="400" y="929" />
            </Array>
          </mxGeometry>
        </mxCell>
        <mxCell id="MjI_oz7FUHxnhjYQ3JHi-664" value="0..3" style="edgeLabel;html=1;align=center;verticalAlign=middle;resizable=0;points=[];labelBackgroundColor=none;fontColor=#46495D;rounded=1;" parent="MjI_oz7FUHxnhjYQ3JHi-557" vertex="1" connectable="0">
          <mxGeometry x="0.8224" y="1" relative="1" as="geometry">
            <mxPoint as="offset" />
          </mxGeometry>
        </mxCell>
        <mxCell id="MjI_oz7FUHxnhjYQ3JHi-735" value="1" style="edgeLabel;html=1;align=center;verticalAlign=middle;resizable=0;points=[];fontColor=#46495D;labelBackgroundColor=none;" parent="MjI_oz7FUHxnhjYQ3JHi-557" vertex="1" connectable="0">
          <mxGeometry x="-0.8445" relative="1" as="geometry">
            <mxPoint as="offset" />
          </mxGeometry>
        </mxCell>
        <mxCell id="MjI_oz7FUHxnhjYQ3JHi-594" style="edgeStyle=orthogonalEdgeStyle;rounded=1;orthogonalLoop=1;jettySize=auto;html=1;entryX=-0.003;entryY=-0.132;entryDx=0;entryDy=0;entryPerimeter=0;labelBackgroundColor=none;strokeColor=#788AA3;fontColor=default;" parent="1" source="MjI_oz7FUHxnhjYQ3JHi-508" target="MjI_oz7FUHxnhjYQ3JHi-527" edge="1">
          <mxGeometry relative="1" as="geometry">
            <Array as="points">
              <mxPoint x="780" y="817" />
              <mxPoint x="780" y="1360" />
              <mxPoint x="813" y="1360" />
            </Array>
          </mxGeometry>
        </mxCell>
        <mxCell id="MjI_oz7FUHxnhjYQ3JHi-671" value="0..16" style="edgeLabel;html=1;align=center;verticalAlign=middle;resizable=0;points=[];labelBackgroundColor=none;fontColor=#46495D;rounded=1;" parent="MjI_oz7FUHxnhjYQ3JHi-594" vertex="1" connectable="0">
          <mxGeometry x="0.9467" y="2" relative="1" as="geometry">
            <mxPoint as="offset" />
          </mxGeometry>
        </mxCell>
        <mxCell id="MjI_oz7FUHxnhjYQ3JHi-703" value="1" style="edgeLabel;html=1;align=center;verticalAlign=middle;resizable=0;points=[];fontColor=#46495D;labelBackgroundColor=none;" parent="MjI_oz7FUHxnhjYQ3JHi-594" vertex="1" connectable="0">
          <mxGeometry x="-0.9336" y="2" relative="1" as="geometry">
            <mxPoint as="offset" />
          </mxGeometry>
        </mxCell>
        <mxCell id="MjI_oz7FUHxnhjYQ3JHi-654" style="edgeStyle=orthogonalEdgeStyle;rounded=1;orthogonalLoop=1;jettySize=auto;html=1;entryX=0.25;entryY=0;entryDx=0;entryDy=0;startArrow=diamond;startFill=1;labelBackgroundColor=none;strokeColor=#788AA3;fontColor=default;" parent="1" source="MjI_oz7FUHxnhjYQ3JHi-600" target="MjI_oz7FUHxnhjYQ3JHi-526" edge="1">
          <mxGeometry relative="1" as="geometry">
            <Array as="points">
              <mxPoint x="847" y="1350" />
              <mxPoint x="847" y="1350" />
            </Array>
          </mxGeometry>
        </mxCell>
        <mxCell id="MjI_oz7FUHxnhjYQ3JHi-668" value="1" style="edgeLabel;html=1;align=center;verticalAlign=middle;resizable=0;points=[];labelBackgroundColor=none;fontColor=#46495D;rounded=1;" parent="MjI_oz7FUHxnhjYQ3JHi-654" vertex="1" connectable="0">
          <mxGeometry x="-0.8316" y="-2" relative="1" as="geometry">
            <mxPoint as="offset" />
          </mxGeometry>
        </mxCell>
        <mxCell id="MjI_oz7FUHxnhjYQ3JHi-669" value="1" style="edgeLabel;html=1;align=center;verticalAlign=middle;resizable=0;points=[];labelBackgroundColor=none;fontColor=#46495D;rounded=1;" parent="MjI_oz7FUHxnhjYQ3JHi-654" vertex="1" connectable="0">
          <mxGeometry x="0.8581" y="-1" relative="1" as="geometry">
            <mxPoint as="offset" />
          </mxGeometry>
        </mxCell>
        <mxCell id="DPkY8M5NOTegdsCLXGKW-1" style="edgeStyle=orthogonalEdgeStyle;rounded=0;orthogonalLoop=1;jettySize=auto;html=1;startArrow=diamond;startFill=1;" parent="1" source="MjI_oz7FUHxnhjYQ3JHi-600" target="MjI_oz7FUHxnhjYQ3JHi-498" edge="1">
          <mxGeometry relative="1" as="geometry">
            <Array as="points">
              <mxPoint x="1010" y="1270" />
              <mxPoint x="1010" y="1560" />
            </Array>
          </mxGeometry>
        </mxCell>
        <mxCell id="DPkY8M5NOTegdsCLXGKW-2" value="1" style="edgeLabel;html=1;align=center;verticalAlign=middle;resizable=0;points=[];" parent="DPkY8M5NOTegdsCLXGKW-1" vertex="1" connectable="0">
          <mxGeometry x="-0.8842" relative="1" as="geometry">
            <mxPoint as="offset" />
          </mxGeometry>
        </mxCell>
        <mxCell id="DPkY8M5NOTegdsCLXGKW-3" value="1" style="edgeLabel;html=1;align=center;verticalAlign=middle;resizable=0;points=[];" parent="DPkY8M5NOTegdsCLXGKW-1" vertex="1" connectable="0">
          <mxGeometry x="0.8807" y="-2" relative="1" as="geometry">
            <mxPoint as="offset" />
          </mxGeometry>
        </mxCell>
        <mxCell id="MjI_oz7FUHxnhjYQ3JHi-600" value="Case_propriete" style="swimlane;fontStyle=1;align=center;verticalAlign=top;childLayout=stackLayout;horizontal=1;startSize=26;horizontalStack=0;resizeParent=1;resizeParentMax=0;resizeLast=0;collapsible=1;marginBottom=0;whiteSpace=wrap;html=1;labelBackgroundColor=none;fillColor=#B2C9AB;strokeColor=#788AA3;fontColor=#46495D;rounded=1;" parent="1" vertex="1">
          <mxGeometry x="813" y="1122" width="160" height="164" as="geometry">
            <mxRectangle x="180" y="170" width="60" height="30" as="alternateBounds" />
          </mxGeometry>
        </mxCell>
        <mxCell id="MjI_oz7FUHxnhjYQ3JHi-601" value="+ nom: str" style="text;strokeColor=none;fillColor=none;align=left;verticalAlign=top;spacingLeft=4;spacingRight=4;overflow=hidden;rotatable=0;points=[[0,0.5],[1,0.5]];portConstraint=eastwest;whiteSpace=wrap;html=1;labelBackgroundColor=none;fontColor=#46495D;rounded=1;" parent="MjI_oz7FUHxnhjYQ3JHi-600" vertex="1">
          <mxGeometry y="26" width="160" height="26" as="geometry" />
        </mxCell>
        <mxCell id="vgZAcrqW0Am1pJLElLVy-2" value="+ appartenu: Joueur" style="text;strokeColor=none;fillColor=none;align=left;verticalAlign=top;spacingLeft=4;spacingRight=4;overflow=hidden;rotatable=0;points=[[0,0.5],[1,0.5]];portConstraint=eastwest;whiteSpace=wrap;html=1;labelBackgroundColor=none;fontColor=#46495D;rounded=1;" parent="MjI_oz7FUHxnhjYQ3JHi-600" vertex="1">
          <mxGeometry y="52" width="160" height="26" as="geometry" />
        </mxCell>
        <mxCell id="fVdyF2DpzFF5kkDFJE-n-1" value="+ prix: int" style="text;strokeColor=none;fillColor=none;align=left;verticalAlign=top;spacingLeft=4;spacingRight=4;overflow=hidden;rotatable=0;points=[[0,0.5],[1,0.5]];portConstraint=eastwest;whiteSpace=wrap;html=1;labelBackgroundColor=none;fontColor=#46495D;rounded=1;" parent="MjI_oz7FUHxnhjYQ3JHi-600" vertex="1">
          <mxGeometry y="78" width="160" height="26" as="geometry" />
        </mxCell>
        <mxCell id="fVdyF2DpzFF5kkDFJE-n-2" value="+ loyer: int" style="text;strokeColor=none;fillColor=none;align=left;verticalAlign=top;spacingLeft=4;spacingRight=4;overflow=hidden;rotatable=0;points=[[0,0.5],[1,0.5]];portConstraint=eastwest;whiteSpace=wrap;html=1;labelBackgroundColor=none;fontColor=#46495D;rounded=1;" parent="MjI_oz7FUHxnhjYQ3JHi-600" vertex="1">
          <mxGeometry y="104" width="160" height="26" as="geometry" />
        </mxCell>
        <mxCell id="MjI_oz7FUHxnhjYQ3JHi-602" value="" style="line;strokeWidth=1;fillColor=none;align=left;verticalAlign=middle;spacingTop=-1;spacingLeft=3;spacingRight=3;rotatable=0;labelPosition=right;points=[];portConstraint=eastwest;strokeColor=#788AA3;labelBackgroundColor=none;fontColor=#46495D;rounded=1;" parent="MjI_oz7FUHxnhjYQ3JHi-600" vertex="1">
          <mxGeometry y="130" width="160" height="8" as="geometry" />
        </mxCell>
        <mxCell id="MjI_oz7FUHxnhjYQ3JHi-603" value="+ method(type): type" style="text;strokeColor=none;fillColor=none;align=left;verticalAlign=top;spacingLeft=4;spacingRight=4;overflow=hidden;rotatable=0;points=[[0,0.5],[1,0.5]];portConstraint=eastwest;whiteSpace=wrap;html=1;labelBackgroundColor=none;fontColor=#46495D;rounded=1;" parent="MjI_oz7FUHxnhjYQ3JHi-600" vertex="1">
          <mxGeometry y="138" width="160" height="26" as="geometry" />
        </mxCell>
        <mxCell id="MjI_oz7FUHxnhjYQ3JHi-662" style="edgeStyle=orthogonalEdgeStyle;rounded=1;orthogonalLoop=1;jettySize=auto;html=1;entryX=0;entryY=0.5;entryDx=0;entryDy=0;labelBackgroundColor=none;strokeColor=#788AA3;fontColor=default;" parent="1" source="MjI_oz7FUHxnhjYQ3JHi-604" target="MjI_oz7FUHxnhjYQ3JHi-522" edge="1">
          <mxGeometry relative="1" as="geometry">
            <Array as="points">
              <mxPoint x="1070" y="1310" />
              <mxPoint x="250" y="1310" />
              <mxPoint x="250" y="1050" />
              <mxPoint x="200" y="1050" />
              <mxPoint x="200" y="1000" />
              <mxPoint x="240" y="1000" />
            </Array>
          </mxGeometry>
        </mxCell>
        <mxCell id="MjI_oz7FUHxnhjYQ3JHi-665" value="1" style="edgeLabel;html=1;align=center;verticalAlign=middle;resizable=0;points=[];labelBackgroundColor=none;fontColor=#46495D;rounded=1;" parent="MjI_oz7FUHxnhjYQ3JHi-662" vertex="1" connectable="0">
          <mxGeometry x="0.9357" relative="1" as="geometry">
            <mxPoint as="offset" />
          </mxGeometry>
        </mxCell>
        <mxCell id="MjI_oz7FUHxnhjYQ3JHi-666" value="1" style="edgeLabel;html=1;align=center;verticalAlign=middle;resizable=0;points=[];labelBackgroundColor=none;fontColor=#46495D;rounded=1;" parent="MjI_oz7FUHxnhjYQ3JHi-662" vertex="1" connectable="0">
          <mxGeometry x="-0.974" y="1" relative="1" as="geometry">
            <mxPoint as="offset" />
          </mxGeometry>
        </mxCell>
        <mxCell id="MjI_oz7FUHxnhjYQ3JHi-604" value="Case_chance" style="swimlane;fontStyle=1;align=center;verticalAlign=top;childLayout=stackLayout;horizontal=1;startSize=26;horizontalStack=0;resizeParent=1;resizeParentMax=0;resizeLast=0;collapsible=1;marginBottom=0;whiteSpace=wrap;html=1;labelBackgroundColor=none;fillColor=#B2C9AB;strokeColor=#788AA3;fontColor=#46495D;rounded=1;" parent="1" vertex="1">
          <mxGeometry x="990" y="1122" width="160" height="86" as="geometry">
            <mxRectangle x="990" y="1122" width="60" height="30" as="alternateBounds" />
          </mxGeometry>
        </mxCell>
        <mxCell id="MjI_oz7FUHxnhjYQ3JHi-605" value="/" style="text;strokeColor=none;fillColor=none;align=left;verticalAlign=top;spacingLeft=4;spacingRight=4;overflow=hidden;rotatable=0;points=[[0,0.5],[1,0.5]];portConstraint=eastwest;whiteSpace=wrap;html=1;labelBackgroundColor=none;fontColor=#46495D;rounded=1;" parent="MjI_oz7FUHxnhjYQ3JHi-604" vertex="1">
          <mxGeometry y="26" width="160" height="26" as="geometry" />
        </mxCell>
        <mxCell id="MjI_oz7FUHxnhjYQ3JHi-606" value="" style="line;strokeWidth=1;fillColor=none;align=left;verticalAlign=middle;spacingTop=-1;spacingLeft=3;spacingRight=3;rotatable=0;labelPosition=right;points=[];portConstraint=eastwest;strokeColor=#788AA3;labelBackgroundColor=none;fontColor=#46495D;rounded=1;" parent="MjI_oz7FUHxnhjYQ3JHi-604" vertex="1">
          <mxGeometry y="52" width="160" height="8" as="geometry" />
        </mxCell>
        <mxCell id="MjI_oz7FUHxnhjYQ3JHi-607" value="+ chance(): None" style="text;strokeColor=none;fillColor=none;align=left;verticalAlign=top;spacingLeft=4;spacingRight=4;overflow=hidden;rotatable=0;points=[[0,0.5],[1,0.5]];portConstraint=eastwest;whiteSpace=wrap;html=1;labelBackgroundColor=none;fontColor=#46495D;rounded=1;" parent="MjI_oz7FUHxnhjYQ3JHi-604" vertex="1">
          <mxGeometry y="60" width="160" height="26" as="geometry" />
        </mxCell>
        <mxCell id="MjI_oz7FUHxnhjYQ3JHi-608" value="Case_ressource" style="swimlane;fontStyle=1;align=center;verticalAlign=top;childLayout=stackLayout;horizontal=1;startSize=26;horizontalStack=0;resizeParent=1;resizeParentMax=0;resizeLast=0;collapsible=1;marginBottom=0;whiteSpace=wrap;html=1;labelBackgroundColor=none;fillColor=#B2C9AB;strokeColor=#788AA3;fontColor=#46495D;rounded=1;" parent="1" vertex="1">
          <mxGeometry x="1168" y="1122" width="160" height="100" as="geometry">
            <mxRectangle x="180" y="170" width="60" height="30" as="alternateBounds" />
          </mxGeometry>
        </mxCell>
        <mxCell id="MjI_oz7FUHxnhjYQ3JHi-609" value="+ recource_contenue: str" style="text;strokeColor=none;fillColor=none;align=left;verticalAlign=top;spacingLeft=4;spacingRight=4;overflow=hidden;rotatable=0;points=[[0,0.5],[1,0.5]];portConstraint=eastwest;whiteSpace=wrap;html=1;labelBackgroundColor=none;fontColor=#46495D;rounded=1;" parent="MjI_oz7FUHxnhjYQ3JHi-608" vertex="1">
          <mxGeometry y="26" width="160" height="26" as="geometry" />
        </mxCell>
        <mxCell id="MjI_oz7FUHxnhjYQ3JHi-610" value="" style="line;strokeWidth=1;fillColor=none;align=left;verticalAlign=middle;spacingTop=-1;spacingLeft=3;spacingRight=3;rotatable=0;labelPosition=right;points=[];portConstraint=eastwest;strokeColor=#788AA3;labelBackgroundColor=none;fontColor=#46495D;rounded=1;" parent="MjI_oz7FUHxnhjYQ3JHi-608" vertex="1">
          <mxGeometry y="52" width="160" height="8" as="geometry" />
        </mxCell>
        <mxCell id="MjI_oz7FUHxnhjYQ3JHi-611" value="+ donnerResource(): None" style="text;strokeColor=none;fillColor=none;align=left;verticalAlign=top;spacingLeft=4;spacingRight=4;overflow=hidden;rotatable=0;points=[[0,0.5],[1,0.5]];portConstraint=eastwest;whiteSpace=wrap;html=1;labelBackgroundColor=none;fontColor=#46495D;rounded=1;" parent="MjI_oz7FUHxnhjYQ3JHi-608" vertex="1">
          <mxGeometry y="60" width="160" height="40" as="geometry" />
        </mxCell>
        <mxCell id="MjI_oz7FUHxnhjYQ3JHi-612" value="Case_depart" style="swimlane;fontStyle=1;align=center;verticalAlign=top;childLayout=stackLayout;horizontal=1;startSize=26;horizontalStack=0;resizeParent=1;resizeParentMax=0;resizeLast=0;collapsible=1;marginBottom=0;whiteSpace=wrap;html=1;labelBackgroundColor=none;fillColor=#B2C9AB;strokeColor=#788AA3;fontColor=#46495D;rounded=1;" parent="1" vertex="1">
          <mxGeometry x="1344.98" y="1122" width="160" height="86" as="geometry">
            <mxRectangle x="180" y="170" width="60" height="30" as="alternateBounds" />
          </mxGeometry>
        </mxCell>
        <mxCell id="MjI_oz7FUHxnhjYQ3JHi-613" value="+ field: type" style="text;strokeColor=none;fillColor=none;align=left;verticalAlign=top;spacingLeft=4;spacingRight=4;overflow=hidden;rotatable=0;points=[[0,0.5],[1,0.5]];portConstraint=eastwest;whiteSpace=wrap;html=1;labelBackgroundColor=none;fontColor=#46495D;rounded=1;" parent="MjI_oz7FUHxnhjYQ3JHi-612" vertex="1">
          <mxGeometry y="26" width="160" height="26" as="geometry" />
        </mxCell>
        <mxCell id="MjI_oz7FUHxnhjYQ3JHi-614" value="" style="line;strokeWidth=1;fillColor=none;align=left;verticalAlign=middle;spacingTop=-1;spacingLeft=3;spacingRight=3;rotatable=0;labelPosition=right;points=[];portConstraint=eastwest;strokeColor=#788AA3;labelBackgroundColor=none;fontColor=#46495D;rounded=1;" parent="MjI_oz7FUHxnhjYQ3JHi-612" vertex="1">
          <mxGeometry y="52" width="160" height="8" as="geometry" />
        </mxCell>
        <mxCell id="MjI_oz7FUHxnhjYQ3JHi-615" value="+ method(type): type" style="text;strokeColor=none;fillColor=none;align=left;verticalAlign=top;spacingLeft=4;spacingRight=4;overflow=hidden;rotatable=0;points=[[0,0.5],[1,0.5]];portConstraint=eastwest;whiteSpace=wrap;html=1;labelBackgroundColor=none;fontColor=#46495D;rounded=1;" parent="MjI_oz7FUHxnhjYQ3JHi-612" vertex="1">
          <mxGeometry y="60" width="160" height="26" as="geometry" />
        </mxCell>
        <mxCell id="MjI_oz7FUHxnhjYQ3JHi-616" value="Case_parc" style="swimlane;fontStyle=1;align=center;verticalAlign=top;childLayout=stackLayout;horizontal=1;startSize=26;horizontalStack=0;resizeParent=1;resizeParentMax=0;resizeLast=0;collapsible=1;marginBottom=0;whiteSpace=wrap;html=1;labelBackgroundColor=none;fillColor=#B2C9AB;strokeColor=#788AA3;fontColor=#46495D;rounded=1;" parent="1" vertex="1">
          <mxGeometry x="1524.98" y="1122" width="160" height="86" as="geometry">
            <mxRectangle x="180" y="170" width="60" height="30" as="alternateBounds" />
          </mxGeometry>
        </mxCell>
        <mxCell id="MjI_oz7FUHxnhjYQ3JHi-617" value="+ field: type" style="text;strokeColor=none;fillColor=none;align=left;verticalAlign=top;spacingLeft=4;spacingRight=4;overflow=hidden;rotatable=0;points=[[0,0.5],[1,0.5]];portConstraint=eastwest;whiteSpace=wrap;html=1;labelBackgroundColor=none;fontColor=#46495D;rounded=1;" parent="MjI_oz7FUHxnhjYQ3JHi-616" vertex="1">
          <mxGeometry y="26" width="160" height="26" as="geometry" />
        </mxCell>
        <mxCell id="MjI_oz7FUHxnhjYQ3JHi-618" value="" style="line;strokeWidth=1;fillColor=none;align=left;verticalAlign=middle;spacingTop=-1;spacingLeft=3;spacingRight=3;rotatable=0;labelPosition=right;points=[];portConstraint=eastwest;strokeColor=#788AA3;labelBackgroundColor=none;fontColor=#46495D;rounded=1;" parent="MjI_oz7FUHxnhjYQ3JHi-616" vertex="1">
          <mxGeometry y="52" width="160" height="8" as="geometry" />
        </mxCell>
        <mxCell id="MjI_oz7FUHxnhjYQ3JHi-619" value="+ method(type): type" style="text;strokeColor=none;fillColor=none;align=left;verticalAlign=top;spacingLeft=4;spacingRight=4;overflow=hidden;rotatable=0;points=[[0,0.5],[1,0.5]];portConstraint=eastwest;whiteSpace=wrap;html=1;labelBackgroundColor=none;fontColor=#46495D;rounded=1;" parent="MjI_oz7FUHxnhjYQ3JHi-616" vertex="1">
          <mxGeometry y="60" width="160" height="26" as="geometry" />
        </mxCell>
        <mxCell id="MjI_oz7FUHxnhjYQ3JHi-620" value="Case_vol" style="swimlane;fontStyle=1;align=center;verticalAlign=top;childLayout=stackLayout;horizontal=1;startSize=26;horizontalStack=0;resizeParent=1;resizeParentMax=0;resizeLast=0;collapsible=1;marginBottom=0;whiteSpace=wrap;html=1;labelBackgroundColor=none;fillColor=#B2C9AB;strokeColor=#788AA3;fontColor=#46495D;rounded=1;" parent="1" vertex="1">
          <mxGeometry x="1704.98" y="1122" width="160" height="86" as="geometry">
            <mxRectangle x="180" y="170" width="60" height="30" as="alternateBounds" />
          </mxGeometry>
        </mxCell>
        <mxCell id="MjI_oz7FUHxnhjYQ3JHi-621" value="+ field: type" style="text;strokeColor=none;fillColor=none;align=left;verticalAlign=top;spacingLeft=4;spacingRight=4;overflow=hidden;rotatable=0;points=[[0,0.5],[1,0.5]];portConstraint=eastwest;whiteSpace=wrap;html=1;labelBackgroundColor=none;fontColor=#46495D;rounded=1;" parent="MjI_oz7FUHxnhjYQ3JHi-620" vertex="1">
          <mxGeometry y="26" width="160" height="26" as="geometry" />
        </mxCell>
        <mxCell id="MjI_oz7FUHxnhjYQ3JHi-622" value="" style="line;strokeWidth=1;fillColor=none;align=left;verticalAlign=middle;spacingTop=-1;spacingLeft=3;spacingRight=3;rotatable=0;labelPosition=right;points=[];portConstraint=eastwest;strokeColor=#788AA3;labelBackgroundColor=none;fontColor=#46495D;rounded=1;" parent="MjI_oz7FUHxnhjYQ3JHi-620" vertex="1">
          <mxGeometry y="52" width="160" height="8" as="geometry" />
        </mxCell>
        <mxCell id="MjI_oz7FUHxnhjYQ3JHi-623" value="+ method(type): type" style="text;strokeColor=none;fillColor=none;align=left;verticalAlign=top;spacingLeft=4;spacingRight=4;overflow=hidden;rotatable=0;points=[[0,0.5],[1,0.5]];portConstraint=eastwest;whiteSpace=wrap;html=1;labelBackgroundColor=none;fontColor=#46495D;rounded=1;" parent="MjI_oz7FUHxnhjYQ3JHi-620" vertex="1">
          <mxGeometry y="60" width="160" height="26" as="geometry" />
        </mxCell>
        <mxCell id="MjI_oz7FUHxnhjYQ3JHi-624" value="&amp;nbsp; Case_police" style="swimlane;fontStyle=1;align=center;verticalAlign=top;childLayout=stackLayout;horizontal=1;startSize=26;horizontalStack=0;resizeParent=1;resizeParentMax=0;resizeLast=0;collapsible=1;marginBottom=0;whiteSpace=wrap;html=1;labelBackgroundColor=none;fillColor=#B2C9AB;strokeColor=#788AA3;fontColor=#46495D;rounded=1;" parent="1" vertex="1">
          <mxGeometry x="1880" y="1122" width="160" height="86" as="geometry">
            <mxRectangle x="180" y="170" width="60" height="30" as="alternateBounds" />
          </mxGeometry>
        </mxCell>
        <mxCell id="MjI_oz7FUHxnhjYQ3JHi-625" value="+ field: type" style="text;strokeColor=none;fillColor=none;align=left;verticalAlign=top;spacingLeft=4;spacingRight=4;overflow=hidden;rotatable=0;points=[[0,0.5],[1,0.5]];portConstraint=eastwest;whiteSpace=wrap;html=1;labelBackgroundColor=none;fontColor=#46495D;rounded=1;" parent="MjI_oz7FUHxnhjYQ3JHi-624" vertex="1">
          <mxGeometry y="26" width="160" height="26" as="geometry" />
        </mxCell>
        <mxCell id="MjI_oz7FUHxnhjYQ3JHi-626" value="" style="line;strokeWidth=1;fillColor=none;align=left;verticalAlign=middle;spacingTop=-1;spacingLeft=3;spacingRight=3;rotatable=0;labelPosition=right;points=[];portConstraint=eastwest;strokeColor=#788AA3;labelBackgroundColor=none;fontColor=#46495D;rounded=1;" parent="MjI_oz7FUHxnhjYQ3JHi-624" vertex="1">
          <mxGeometry y="52" width="160" height="8" as="geometry" />
        </mxCell>
        <mxCell id="MjI_oz7FUHxnhjYQ3JHi-627" value="+ method(type): type" style="text;strokeColor=none;fillColor=none;align=left;verticalAlign=top;spacingLeft=4;spacingRight=4;overflow=hidden;rotatable=0;points=[[0,0.5],[1,0.5]];portConstraint=eastwest;whiteSpace=wrap;html=1;labelBackgroundColor=none;fontColor=#46495D;rounded=1;" parent="MjI_oz7FUHxnhjYQ3JHi-624" vertex="1">
          <mxGeometry y="60" width="160" height="26" as="geometry" />
        </mxCell>
        <mxCell id="MjI_oz7FUHxnhjYQ3JHi-658" style="edgeStyle=orthogonalEdgeStyle;rounded=1;orthogonalLoop=1;jettySize=auto;html=1;entryX=0.75;entryY=0;entryDx=0;entryDy=0;startArrow=diamond;startFill=1;labelBackgroundColor=none;strokeColor=#788AA3;fontColor=default;" parent="1" source="MjI_oz7FUHxnhjYQ3JHi-484" target="MjI_oz7FUHxnhjYQ3JHi-503" edge="1">
          <mxGeometry relative="1" as="geometry">
            <Array as="points">
              <mxPoint x="1160" y="886" />
              <mxPoint x="1160" y="1330" />
              <mxPoint x="1215" y="1330" />
            </Array>
          </mxGeometry>
        </mxCell>
        <mxCell id="MjI_oz7FUHxnhjYQ3JHi-660" value="16" style="edgeLabel;html=1;align=center;verticalAlign=middle;resizable=0;points=[];labelBackgroundColor=none;fontColor=#46495D;rounded=1;" parent="MjI_oz7FUHxnhjYQ3JHi-658" vertex="1" connectable="0">
          <mxGeometry x="0.9408" y="-4" relative="1" as="geometry">
            <mxPoint as="offset" />
          </mxGeometry>
        </mxCell>
        <mxCell id="MjI_oz7FUHxnhjYQ3JHi-709" value="1" style="edgeLabel;html=1;align=center;verticalAlign=middle;resizable=0;points=[];fontColor=#46495D;labelBackgroundColor=none;" parent="MjI_oz7FUHxnhjYQ3JHi-658" vertex="1" connectable="0">
          <mxGeometry x="-0.9288" relative="1" as="geometry">
            <mxPoint as="offset" />
          </mxGeometry>
        </mxCell>
        <mxCell id="MjI_oz7FUHxnhjYQ3JHi-694" style="edgeStyle=orthogonalEdgeStyle;rounded=0;orthogonalLoop=1;jettySize=auto;html=1;endArrow=block;endFill=0;labelBackgroundColor=none;strokeColor=#788AA3;fontColor=default;" parent="1" source="MjI_oz7FUHxnhjYQ3JHi-539" target="MjI_oz7FUHxnhjYQ3JHi-604" edge="1">
          <mxGeometry relative="1" as="geometry">
            <Array as="points">
              <mxPoint x="1070" y="1032" />
            </Array>
          </mxGeometry>
        </mxCell>
        <mxCell id="MjI_oz7FUHxnhjYQ3JHi-713" value="1" style="edgeLabel;html=1;align=center;verticalAlign=middle;resizable=0;points=[];fontColor=#46495D;labelBackgroundColor=none;" parent="MjI_oz7FUHxnhjYQ3JHi-694" vertex="1" connectable="0">
          <mxGeometry x="0.7714" y="-1" relative="1" as="geometry">
            <mxPoint as="offset" />
          </mxGeometry>
        </mxCell>
        <mxCell id="MjI_oz7FUHxnhjYQ3JHi-696" style="edgeStyle=orthogonalEdgeStyle;rounded=0;orthogonalLoop=1;jettySize=auto;html=1;entryX=0.5;entryY=0;entryDx=0;entryDy=0;endArrow=block;endFill=0;labelBackgroundColor=none;strokeColor=#788AA3;fontColor=default;" parent="1" source="MjI_oz7FUHxnhjYQ3JHi-539" target="MjI_oz7FUHxnhjYQ3JHi-612" edge="1">
          <mxGeometry relative="1" as="geometry">
            <Array as="points">
              <mxPoint x="1425" y="1032" />
            </Array>
          </mxGeometry>
        </mxCell>
        <mxCell id="MjI_oz7FUHxnhjYQ3JHi-715" value="1" style="edgeLabel;html=1;align=center;verticalAlign=middle;resizable=0;points=[];fontColor=#46495D;labelBackgroundColor=none;" parent="MjI_oz7FUHxnhjYQ3JHi-696" vertex="1" connectable="0">
          <mxGeometry x="0.929" y="-1" relative="1" as="geometry">
            <mxPoint as="offset" />
          </mxGeometry>
        </mxCell>
        <mxCell id="MjI_oz7FUHxnhjYQ3JHi-698" style="edgeStyle=orthogonalEdgeStyle;rounded=0;orthogonalLoop=1;jettySize=auto;html=1;endArrow=block;endFill=0;labelBackgroundColor=none;strokeColor=#788AA3;fontColor=default;" parent="1" source="MjI_oz7FUHxnhjYQ3JHi-539" target="MjI_oz7FUHxnhjYQ3JHi-620" edge="1">
          <mxGeometry relative="1" as="geometry">
            <Array as="points">
              <mxPoint x="1785" y="1032" />
            </Array>
          </mxGeometry>
        </mxCell>
        <mxCell id="MjI_oz7FUHxnhjYQ3JHi-717" value="1" style="edgeLabel;html=1;align=center;verticalAlign=middle;resizable=0;points=[];fontColor=#46495D;labelBackgroundColor=none;" parent="MjI_oz7FUHxnhjYQ3JHi-698" vertex="1" connectable="0">
          <mxGeometry x="0.9574" y="-4" relative="1" as="geometry">
            <mxPoint as="offset" />
          </mxGeometry>
        </mxCell>
        <mxCell id="MjI_oz7FUHxnhjYQ3JHi-699" style="edgeStyle=orthogonalEdgeStyle;rounded=0;orthogonalLoop=1;jettySize=auto;html=1;endArrow=block;endFill=0;labelBackgroundColor=none;strokeColor=#788AA3;fontColor=default;" parent="1" source="MjI_oz7FUHxnhjYQ3JHi-539" target="MjI_oz7FUHxnhjYQ3JHi-624" edge="1">
          <mxGeometry relative="1" as="geometry">
            <Array as="points">
              <mxPoint x="1960" y="1032" />
            </Array>
          </mxGeometry>
        </mxCell>
        <mxCell id="MjI_oz7FUHxnhjYQ3JHi-712" value="1" style="edgeLabel;html=1;align=center;verticalAlign=middle;resizable=0;points=[];fontColor=#46495D;labelBackgroundColor=none;" parent="MjI_oz7FUHxnhjYQ3JHi-699" vertex="1" connectable="0">
          <mxGeometry x="-0.9753" y="2" relative="1" as="geometry">
            <mxPoint as="offset" />
          </mxGeometry>
        </mxCell>
        <mxCell id="MjI_oz7FUHxnhjYQ3JHi-718" value="1" style="edgeLabel;html=1;align=center;verticalAlign=middle;resizable=0;points=[];fontColor=#46495D;labelBackgroundColor=none;" parent="MjI_oz7FUHxnhjYQ3JHi-699" vertex="1" connectable="0">
          <mxGeometry x="0.9605" y="3" relative="1" as="geometry">
            <mxPoint as="offset" />
          </mxGeometry>
        </mxCell>
        <mxCell id="MjI_oz7FUHxnhjYQ3JHi-731" value="A" style="shape=note;whiteSpace=wrap;html=1;backgroundOutline=1;darkOpacity=0.05;strokeColor=#788AA3;fontColor=#46495D;fillColor=#B2C9AB;size=10;labelBackgroundColor=none;" parent="1" vertex="1">
          <mxGeometry x="450" y="840" width="30" height="33" as="geometry" />
        </mxCell>
        <mxCell id="MjI_oz7FUHxnhjYQ3JHi-736" value="B" style="shape=note;whiteSpace=wrap;html=1;backgroundOutline=1;darkOpacity=0.05;strokeColor=#788AA3;fontColor=#46495D;fillColor=#B2C9AB;size=10;labelBackgroundColor=none;" parent="1" vertex="1">
          <mxGeometry x="950" y="787.5" width="30" height="33" as="geometry" />
        </mxCell>
        <mxCell id="fvR2didN9V42rClz2dMw-1" value="&amp;nbsp; Case_prison" style="swimlane;fontStyle=1;align=center;verticalAlign=top;childLayout=stackLayout;horizontal=1;startSize=26;horizontalStack=0;resizeParent=1;resizeParentMax=0;resizeLast=0;collapsible=1;marginBottom=0;whiteSpace=wrap;html=1;labelBackgroundColor=none;fillColor=#B2C9AB;strokeColor=#788AA3;fontColor=#46495D;rounded=1;" parent="1" vertex="1">
          <mxGeometry x="2056" y="1123" width="160" height="86" as="geometry">
            <mxRectangle x="180" y="170" width="60" height="30" as="alternateBounds" />
          </mxGeometry>
        </mxCell>
        <mxCell id="fvR2didN9V42rClz2dMw-2" value="+ field: type" style="text;strokeColor=none;fillColor=none;align=left;verticalAlign=top;spacingLeft=4;spacingRight=4;overflow=hidden;rotatable=0;points=[[0,0.5],[1,0.5]];portConstraint=eastwest;whiteSpace=wrap;html=1;labelBackgroundColor=none;fontColor=#46495D;rounded=1;" parent="fvR2didN9V42rClz2dMw-1" vertex="1">
          <mxGeometry y="26" width="160" height="26" as="geometry" />
        </mxCell>
        <mxCell id="fvR2didN9V42rClz2dMw-3" value="" style="line;strokeWidth=1;fillColor=none;align=left;verticalAlign=middle;spacingTop=-1;spacingLeft=3;spacingRight=3;rotatable=0;labelPosition=right;points=[];portConstraint=eastwest;strokeColor=#788AA3;labelBackgroundColor=none;fontColor=#46495D;rounded=1;" parent="fvR2didN9V42rClz2dMw-1" vertex="1">
          <mxGeometry y="52" width="160" height="8" as="geometry" />
        </mxCell>
        <mxCell id="fvR2didN9V42rClz2dMw-4" value="+ method(type): type" style="text;strokeColor=none;fillColor=none;align=left;verticalAlign=top;spacingLeft=4;spacingRight=4;overflow=hidden;rotatable=0;points=[[0,0.5],[1,0.5]];portConstraint=eastwest;whiteSpace=wrap;html=1;labelBackgroundColor=none;fontColor=#46495D;rounded=1;" parent="fvR2didN9V42rClz2dMw-1" vertex="1">
          <mxGeometry y="60" width="160" height="26" as="geometry" />
        </mxCell>
        <mxCell id="-OmZr9gVB3smvno8yra1-5" style="edgeStyle=orthogonalEdgeStyle;rounded=0;orthogonalLoop=1;jettySize=auto;html=1;startArrow=diamond;startFill=1;" edge="1" parent="1" source="GqGR0B924bRJaxxiQxbl-1" target="MjI_oz7FUHxnhjYQ3JHi-508">
          <mxGeometry relative="1" as="geometry">
            <Array as="points">
              <mxPoint x="520" y="883" />
            </Array>
          </mxGeometry>
        </mxCell>
        <mxCell id="-OmZr9gVB3smvno8yra1-6" value="1" style="edgeLabel;html=1;align=center;verticalAlign=middle;resizable=0;points=[];" vertex="1" connectable="0" parent="-OmZr9gVB3smvno8yra1-5">
          <mxGeometry x="0.8746" y="1" relative="1" as="geometry">
            <mxPoint as="offset" />
          </mxGeometry>
        </mxCell>
        <mxCell id="-OmZr9gVB3smvno8yra1-7" value="1" style="edgeLabel;html=1;align=center;verticalAlign=middle;resizable=0;points=[];" vertex="1" connectable="0" parent="-OmZr9gVB3smvno8yra1-5">
          <mxGeometry x="-0.9076" y="-1" relative="1" as="geometry">
            <mxPoint as="offset" />
          </mxGeometry>
        </mxCell>
        <mxCell id="GqGR0B924bRJaxxiQxbl-1" value="GestionnaireDePion" style="swimlane;fontStyle=1;align=center;verticalAlign=top;childLayout=stackLayout;horizontal=1;startSize=26;horizontalStack=0;resizeParent=1;resizeParentMax=0;resizeLast=0;collapsible=1;marginBottom=0;whiteSpace=wrap;html=1;labelBackgroundColor=none;fillColor=#B2C9AB;strokeColor=#788AA3;fontColor=#46495D;rounded=1;" parent="1" vertex="1">
          <mxGeometry x="385" y="1129" width="160" height="86" as="geometry">
            <mxRectangle x="180" y="170" width="60" height="30" as="alternateBounds" />
          </mxGeometry>
        </mxCell>
        <mxCell id="GqGR0B924bRJaxxiQxbl-2" value="/" style="text;strokeColor=none;fillColor=none;align=left;verticalAlign=top;spacingLeft=4;spacingRight=4;overflow=hidden;rotatable=0;points=[[0,0.5],[1,0.5]];portConstraint=eastwest;whiteSpace=wrap;html=1;labelBackgroundColor=none;fontColor=#46495D;rounded=1;" parent="GqGR0B924bRJaxxiQxbl-1" vertex="1">
          <mxGeometry y="26" width="160" height="26" as="geometry" />
        </mxCell>
        <mxCell id="GqGR0B924bRJaxxiQxbl-3" value="" style="line;strokeWidth=1;fillColor=none;align=left;verticalAlign=middle;spacingTop=-1;spacingLeft=3;spacingRight=3;rotatable=0;labelPosition=right;points=[];portConstraint=eastwest;strokeColor=#788AA3;labelBackgroundColor=none;fontColor=#46495D;rounded=1;" parent="GqGR0B924bRJaxxiQxbl-1" vertex="1">
          <mxGeometry y="52" width="160" height="8" as="geometry" />
        </mxCell>
        <mxCell id="GqGR0B924bRJaxxiQxbl-4" value="+ choisir()" style="text;strokeColor=none;fillColor=none;align=left;verticalAlign=top;spacingLeft=4;spacingRight=4;overflow=hidden;rotatable=0;points=[[0,0.5],[1,0.5]];portConstraint=eastwest;whiteSpace=wrap;html=1;labelBackgroundColor=none;fontColor=#46495D;rounded=1;" parent="GqGR0B924bRJaxxiQxbl-1" vertex="1">
          <mxGeometry y="60" width="160" height="26" as="geometry" />
        </mxCell>
        <mxCell id="-OmZr9gVB3smvno8yra1-4" style="edgeStyle=orthogonalEdgeStyle;rounded=0;orthogonalLoop=1;jettySize=auto;html=1;shape=link;fillColor=#f8cecc;strokeColor=#b85450;" edge="1" parent="1" source="-OmZr9gVB3smvno8yra1-3" target="MjI_oz7FUHxnhjYQ3JHi-522">
          <mxGeometry relative="1" as="geometry">
            <Array as="points">
              <mxPoint x="220" y="960" />
              <mxPoint x="220" y="998" />
            </Array>
          </mxGeometry>
        </mxCell>
        <mxCell id="-OmZr9gVB3smvno8yra1-3" value="faire les methode pour chaque carte chance dans le jeu (2 3 pour commancer et si le tmp plus )" style="rounded=0;whiteSpace=wrap;html=1;fillColor=#f8cecc;strokeColor=#b85450;" vertex="1" parent="1">
          <mxGeometry x="10" y="940" width="150" height="90" as="geometry" />
        </mxCell>
      </root>
    </mxGraphModel>
  </diagram>
  <diagram id="7tXG9CqI5JnREmKTy40y" name="justification de 4 liens">
    <mxGraphModel dx="607" dy="870" grid="1" gridSize="10" guides="1" tooltips="1" connect="1" arrows="1" fold="1" page="1" pageScale="1" pageWidth="827" pageHeight="1169" math="0" shadow="0">
      <root>
        <mxCell id="0" />
        <mxCell id="1" parent="0" />
        <mxCell id="e_wJrSxDnCayRWQOndfp-1" value="" style="shape=table;startSize=0;container=1;collapsible=0;childLayout=tableLayout;fontFamily=Consolas;fontSize=14;strokeWidth=1;strokeColor=none;labelBackgroundColor=none;fillColor=#B2C9AB;fontColor=#46495D;" parent="1" vertex="1">
          <mxGeometry x="846" y="20" width="790" height="812.9999999999997" as="geometry" />
        </mxCell>
        <mxCell id="e_wJrSxDnCayRWQOndfp-2" value="" style="shape=tableRow;horizontal=0;startSize=0;swimlaneHead=0;swimlaneBody=0;strokeColor=#788AA3;top=0;left=0;bottom=0;right=0;collapsible=0;dropTarget=0;fillColor=none;points=[[0,0.5],[1,0.5]];portConstraint=eastwest;fontStyle=0;labelBackgroundColor=none;fontColor=#46495D;" parent="e_wJrSxDnCayRWQOndfp-1" vertex="1">
          <mxGeometry width="790" height="28" as="geometry" />
        </mxCell>
        <mxCell id="e_wJrSxDnCayRWQOndfp-3" value="Justification des choix des relations" style="shape=partialRectangle;html=1;whiteSpace=wrap;connectable=0;strokeColor=#788AA3;overflow=hidden;fillColor=#B2C9AB;top=1;left=1;bottom=0;right=1;pointerEvents=1;fontFamily=Consolas;fontSize=16;align=center;verticalAlign=middle;fontStyle=1;labelBackgroundColor=none;strokeWidth=1;rowspan=1;colspan=5;fontColor=#46495D;" parent="e_wJrSxDnCayRWQOndfp-2" vertex="1">
          <mxGeometry width="790" height="28" as="geometry">
            <mxRectangle width="40" height="28" as="alternateBounds" />
          </mxGeometry>
        </mxCell>
        <mxCell id="e_wJrSxDnCayRWQOndfp-4" value="" style="shape=partialRectangle;html=1;whiteSpace=wrap;connectable=0;strokeColor=#788AA3;overflow=hidden;fillColor=none;top=0;left=0;bottom=0;right=0;pointerEvents=1;fontFamily=Consolas;labelBackgroundColor=none;fontColor=#46495D;" parent="e_wJrSxDnCayRWQOndfp-2" vertex="1" visible="0">
          <mxGeometry x="40" width="120" height="28" as="geometry">
            <mxRectangle width="120" height="28" as="alternateBounds" />
          </mxGeometry>
        </mxCell>
        <mxCell id="e_wJrSxDnCayRWQOndfp-5" value="" style="shape=partialRectangle;html=1;whiteSpace=wrap;connectable=0;strokeColor=#788AA3;overflow=hidden;fillColor=none;top=0;left=0;bottom=0;right=0;pointerEvents=1;fontFamily=Consolas;labelBackgroundColor=none;fontColor=#46495D;" parent="e_wJrSxDnCayRWQOndfp-2" vertex="1" visible="0">
          <mxGeometry x="160" width="120" height="28" as="geometry">
            <mxRectangle width="120" height="28" as="alternateBounds" />
          </mxGeometry>
        </mxCell>
        <mxCell id="e_wJrSxDnCayRWQOndfp-6" style="shape=partialRectangle;html=1;whiteSpace=wrap;connectable=0;strokeColor=#788AA3;overflow=hidden;fillColor=none;top=0;left=0;bottom=0;right=0;pointerEvents=1;fontFamily=Consolas;labelBackgroundColor=none;fontColor=#46495D;" parent="e_wJrSxDnCayRWQOndfp-2" vertex="1" visible="0">
          <mxGeometry x="280" width="120" height="28" as="geometry">
            <mxRectangle width="120" height="28" as="alternateBounds" />
          </mxGeometry>
        </mxCell>
        <mxCell id="e_wJrSxDnCayRWQOndfp-7" style="shape=partialRectangle;html=1;whiteSpace=wrap;connectable=0;strokeColor=#788AA3;overflow=hidden;fillColor=none;top=0;left=0;bottom=0;right=0;pointerEvents=1;fontFamily=Consolas;labelBackgroundColor=none;fontColor=#46495D;" parent="e_wJrSxDnCayRWQOndfp-2" vertex="1" visible="0">
          <mxGeometry x="400" width="390" height="28" as="geometry">
            <mxRectangle width="390" height="28" as="alternateBounds" />
          </mxGeometry>
        </mxCell>
        <mxCell id="e_wJrSxDnCayRWQOndfp-8" value="" style="shape=tableRow;horizontal=0;startSize=0;swimlaneHead=0;swimlaneBody=0;strokeColor=#788AA3;top=0;left=0;bottom=0;right=0;collapsible=0;dropTarget=0;fillColor=none;points=[[0,0.5],[1,0.5]];portConstraint=eastwest;labelBackgroundColor=none;fontColor=#46495D;" parent="e_wJrSxDnCayRWQOndfp-1" vertex="1">
          <mxGeometry y="28" width="790" height="28" as="geometry" />
        </mxCell>
        <mxCell id="e_wJrSxDnCayRWQOndfp-9" value="L°" style="shape=partialRectangle;html=1;whiteSpace=wrap;connectable=0;strokeColor=#788AA3;overflow=hidden;fillColor=#B2C9AB;top=1;left=1;bottom=1;right=1;pointerEvents=1;fontFamily=Consolas;fontSize=14;align=center;verticalAlign=middle;strokeWidth=0.5;fontStyle=1;labelBackgroundColor=none;fontColor=#46495D;" parent="e_wJrSxDnCayRWQOndfp-8" vertex="1">
          <mxGeometry width="40" height="28" as="geometry">
            <mxRectangle width="40" height="28" as="alternateBounds" />
          </mxGeometry>
        </mxCell>
        <mxCell id="e_wJrSxDnCayRWQOndfp-10" value="De" style="shape=partialRectangle;html=1;whiteSpace=wrap;connectable=0;strokeColor=#788AA3;overflow=hidden;fillColor=#B2C9AB;top=1;left=1;bottom=1;right=1;pointerEvents=1;fontFamily=Consolas;fontSize=14;align=right;verticalAlign=middle;strokeWidth=0.5;fontStyle=1;spacing=5;labelBackgroundColor=none;fontColor=#46495D;" parent="e_wJrSxDnCayRWQOndfp-8" vertex="1">
          <mxGeometry x="40" width="120" height="28" as="geometry">
            <mxRectangle width="120" height="28" as="alternateBounds" />
          </mxGeometry>
        </mxCell>
        <mxCell id="e_wJrSxDnCayRWQOndfp-11" value="Vers" style="shape=partialRectangle;html=1;whiteSpace=wrap;connectable=0;strokeColor=#788AA3;overflow=hidden;fillColor=#B2C9AB;top=1;left=1;bottom=1;right=1;pointerEvents=1;fontFamily=Consolas;fontSize=14;align=left;verticalAlign=middle;strokeWidth=0.5;fontStyle=1;spacing=5;labelBackgroundColor=none;fontColor=#46495D;" parent="e_wJrSxDnCayRWQOndfp-8" vertex="1">
          <mxGeometry x="160" width="120" height="28" as="geometry">
            <mxRectangle width="120" height="28" as="alternateBounds" />
          </mxGeometry>
        </mxCell>
        <mxCell id="e_wJrSxDnCayRWQOndfp-12" value="Type" style="shape=partialRectangle;html=1;whiteSpace=wrap;connectable=0;strokeColor=#788AA3;overflow=hidden;fillColor=#B2C9AB;top=1;left=1;bottom=1;right=1;pointerEvents=1;fontFamily=Consolas;fontSize=14;align=center;verticalAlign=middle;strokeWidth=0.5;fontStyle=1;labelBackgroundColor=none;fontColor=#46495D;" parent="e_wJrSxDnCayRWQOndfp-8" vertex="1">
          <mxGeometry x="280" width="120" height="28" as="geometry">
            <mxRectangle width="120" height="28" as="alternateBounds" />
          </mxGeometry>
        </mxCell>
        <mxCell id="e_wJrSxDnCayRWQOndfp-13" value="Justification" style="shape=partialRectangle;html=1;whiteSpace=wrap;connectable=0;strokeColor=#788AA3;overflow=hidden;fillColor=#B2C9AB;top=1;left=1;bottom=1;right=1;pointerEvents=1;fontFamily=Consolas;fontSize=14;align=center;verticalAlign=middle;strokeWidth=0.5;fontStyle=1;labelBackgroundColor=none;fontColor=#46495D;" parent="e_wJrSxDnCayRWQOndfp-8" vertex="1">
          <mxGeometry x="400" width="390" height="28" as="geometry">
            <mxRectangle width="390" height="28" as="alternateBounds" />
          </mxGeometry>
        </mxCell>
        <mxCell id="e_wJrSxDnCayRWQOndfp-14" value="" style="shape=tableRow;horizontal=0;startSize=0;swimlaneHead=0;swimlaneBody=0;strokeColor=#788AA3;top=0;left=0;bottom=0;right=0;collapsible=0;dropTarget=0;fillColor=none;points=[[0,0.5],[1,0.5]];portConstraint=eastwest;fontStyle=0;labelBackgroundColor=none;fontColor=#46495D;" parent="e_wJrSxDnCayRWQOndfp-1" vertex="1">
          <mxGeometry y="56" width="790" height="24" as="geometry" />
        </mxCell>
        <mxCell id="e_wJrSxDnCayRWQOndfp-15" value="RIGAUX Amory - 2023/11/07 15h34" style="shape=partialRectangle;html=1;whiteSpace=wrap;connectable=0;strokeColor=#788AA3;overflow=hidden;fillColor=#B2C9AB;top=0;left=1;bottom=1;right=1;pointerEvents=1;fontFamily=Consolas;fontSize=12;align=center;verticalAlign=middle;fontStyle=1;labelBackgroundColor=none;strokeWidth=1;rowspan=1;colspan=5;fontColor=#46495D;" parent="e_wJrSxDnCayRWQOndfp-14" vertex="1">
          <mxGeometry width="790" height="24" as="geometry">
            <mxRectangle width="40" height="24" as="alternateBounds" />
          </mxGeometry>
        </mxCell>
        <mxCell id="e_wJrSxDnCayRWQOndfp-16" value="" style="shape=partialRectangle;html=1;whiteSpace=wrap;connectable=0;strokeColor=#788AA3;overflow=hidden;fillColor=none;top=0;left=0;bottom=0;right=0;pointerEvents=1;fontFamily=Consolas;labelBackgroundColor=none;fontColor=#46495D;" parent="e_wJrSxDnCayRWQOndfp-14" vertex="1" visible="0">
          <mxGeometry x="40" width="120" height="24" as="geometry">
            <mxRectangle width="120" height="24" as="alternateBounds" />
          </mxGeometry>
        </mxCell>
        <mxCell id="e_wJrSxDnCayRWQOndfp-17" value="" style="shape=partialRectangle;html=1;whiteSpace=wrap;connectable=0;strokeColor=#788AA3;overflow=hidden;fillColor=none;top=0;left=0;bottom=0;right=0;pointerEvents=1;fontFamily=Consolas;labelBackgroundColor=none;fontColor=#46495D;" parent="e_wJrSxDnCayRWQOndfp-14" vertex="1" visible="0">
          <mxGeometry x="160" width="120" height="24" as="geometry">
            <mxRectangle width="120" height="24" as="alternateBounds" />
          </mxGeometry>
        </mxCell>
        <mxCell id="e_wJrSxDnCayRWQOndfp-18" style="shape=partialRectangle;html=1;whiteSpace=wrap;connectable=0;strokeColor=#788AA3;overflow=hidden;fillColor=none;top=0;left=0;bottom=0;right=0;pointerEvents=1;fontFamily=Consolas;labelBackgroundColor=none;fontColor=#46495D;" parent="e_wJrSxDnCayRWQOndfp-14" vertex="1" visible="0">
          <mxGeometry x="280" width="120" height="24" as="geometry">
            <mxRectangle width="120" height="24" as="alternateBounds" />
          </mxGeometry>
        </mxCell>
        <mxCell id="e_wJrSxDnCayRWQOndfp-19" style="shape=partialRectangle;html=1;whiteSpace=wrap;connectable=0;strokeColor=#788AA3;overflow=hidden;fillColor=none;top=0;left=0;bottom=0;right=0;pointerEvents=1;fontFamily=Consolas;labelBackgroundColor=none;fontColor=#46495D;" parent="e_wJrSxDnCayRWQOndfp-14" vertex="1" visible="0">
          <mxGeometry x="400" width="390" height="24" as="geometry">
            <mxRectangle width="390" height="24" as="alternateBounds" />
          </mxGeometry>
        </mxCell>
        <mxCell id="e_wJrSxDnCayRWQOndfp-20" value="" style="shape=tableRow;horizontal=0;startSize=0;swimlaneHead=0;swimlaneBody=0;strokeColor=#788AA3;top=0;left=0;bottom=0;right=0;collapsible=0;dropTarget=0;fillColor=none;points=[[0,0.5],[1,0.5]];portConstraint=eastwest;labelBackgroundColor=none;fontColor=#46495D;" parent="e_wJrSxDnCayRWQOndfp-1" vertex="1">
          <mxGeometry y="80" width="790" height="40" as="geometry" />
        </mxCell>
        <mxCell id="e_wJrSxDnCayRWQOndfp-21" value="A" style="shape=partialRectangle;html=1;whiteSpace=wrap;connectable=0;strokeColor=#788AA3;overflow=hidden;fillColor=#B2C9AB;top=1;left=1;bottom=0;right=1;pointerEvents=1;fontFamily=Consolas;fontSize=14;align=center;verticalAlign=top;strokeWidth=0.5;spacing=5;spacingTop=0;spacingLeft=0;spacingBottom=0;fontStyle=1;labelBackgroundColor=none;fontColor=#46495D;" parent="e_wJrSxDnCayRWQOndfp-20" vertex="1">
          <mxGeometry width="40" height="40" as="geometry">
            <mxRectangle width="40" height="40" as="alternateBounds" />
          </mxGeometry>
        </mxCell>
        <mxCell id="e_wJrSxDnCayRWQOndfp-22" value="Joueur" style="shape=partialRectangle;html=1;whiteSpace=wrap;connectable=0;strokeColor=#788AA3;overflow=hidden;fillColor=none;top=1;left=1;bottom=0;right=1;pointerEvents=1;fontFamily=Consolas;fontSize=14;align=right;verticalAlign=top;strokeWidth=0.5;spacing=5;spacingTop=0;spacingLeft=0;spacingBottom=0;spacingRight=0;fontStyle=1;labelBackgroundColor=none;fontColor=#46495D;" parent="e_wJrSxDnCayRWQOndfp-20" vertex="1">
          <mxGeometry x="40" width="120" height="40" as="geometry">
            <mxRectangle width="120" height="40" as="alternateBounds" />
          </mxGeometry>
        </mxCell>
        <mxCell id="e_wJrSxDnCayRWQOndfp-23" value="Carte_chance" style="shape=partialRectangle;html=1;whiteSpace=wrap;connectable=0;strokeColor=#788AA3;overflow=hidden;fillColor=none;top=1;left=1;bottom=0;right=1;pointerEvents=1;fontFamily=Consolas;fontSize=14;align=left;verticalAlign=top;strokeWidth=0.5;spacing=5;spacingTop=0;spacingLeft=0;spacingBottom=0;fontStyle=1;spacingRight=0;labelBackgroundColor=none;fontColor=#46495D;" parent="e_wJrSxDnCayRWQOndfp-20" vertex="1">
          <mxGeometry x="160" width="120" height="40" as="geometry">
            <mxRectangle width="120" height="40" as="alternateBounds" />
          </mxGeometry>
        </mxCell>
        <mxCell id="e_wJrSxDnCayRWQOndfp-24" value="Agrégation" style="shape=partialRectangle;html=1;whiteSpace=wrap;connectable=0;strokeColor=#788AA3;overflow=hidden;fillColor=none;top=1;left=1;bottom=0;right=1;pointerEvents=1;fontFamily=Consolas;fontSize=14;align=center;verticalAlign=top;strokeWidth=0.5;spacing=5;spacingTop=0;spacingLeft=0;spacingBottom=0;fontStyle=0;labelBackgroundColor=none;fontColor=#46495D;" parent="e_wJrSxDnCayRWQOndfp-20" vertex="1">
          <mxGeometry x="280" width="120" height="40" as="geometry">
            <mxRectangle width="120" height="40" as="alternateBounds" />
          </mxGeometry>
        </mxCell>
        <mxCell id="e_wJrSxDnCayRWQOndfp-25" value="&lt;div&gt;Les joueurs ont la possibilité d&#39;obtenir une carte chance quand ils arrivent sur la case dédié à cet effet.&lt;/div&gt;&lt;div&gt;&lt;br&gt;&lt;/div&gt;&lt;div&gt;Le nombre de carte chance disponible étant de 25,l&#39;une de celles-ci sera tirée au sort et donné au joueur qui pourra l&#39;utiliser quand il le veut et si la carte le lui permet.&lt;/div&gt;&lt;div&gt;&lt;br&gt;&lt;/div&gt;&lt;div&gt;Mais chaque joueur n&#39;a le droit que d&#39;avoir 3 cartes chance dans son inventaire. S&#39;il venait à avoir plus de 3 cartes, il devra s&#39;en débarrasser d&#39;une !&lt;br&gt;&lt;/div&gt;" style="shape=partialRectangle;html=1;whiteSpace=wrap;connectable=0;strokeColor=#788AA3;overflow=hidden;fillColor=none;top=1;left=1;bottom=1;right=1;pointerEvents=1;fontFamily=Consolas;fontSize=14;align=left;verticalAlign=top;strokeWidth=0.5;spacing=0;spacingTop=5;spacingLeft=5;spacingBottom=5;fontStyle=2;rowspan=2;colspan=1;labelBackgroundColor=none;fontColor=#46495D;" parent="e_wJrSxDnCayRWQOndfp-20" vertex="1">
          <mxGeometry x="400" width="390" height="193" as="geometry">
            <mxRectangle width="390" height="40" as="alternateBounds" />
          </mxGeometry>
        </mxCell>
        <mxCell id="e_wJrSxDnCayRWQOndfp-26" value="" style="shape=tableRow;horizontal=0;startSize=0;swimlaneHead=0;swimlaneBody=0;strokeColor=#788AA3;top=0;left=0;bottom=0;right=0;collapsible=0;dropTarget=0;fillColor=none;points=[[0,0.5],[1,0.5]];portConstraint=eastwest;labelBackgroundColor=none;fontColor=#46495D;" parent="e_wJrSxDnCayRWQOndfp-1" vertex="1">
          <mxGeometry y="120" width="790" height="153" as="geometry" />
        </mxCell>
        <mxCell id="e_wJrSxDnCayRWQOndfp-27" value="" style="shape=partialRectangle;html=1;whiteSpace=wrap;connectable=0;strokeColor=#788AA3;overflow=hidden;fillColor=#B2C9AB;top=0;left=1;bottom=1;right=1;pointerEvents=1;fontFamily=Consolas;fontSize=14;align=center;verticalAlign=top;strokeWidth=0.5;spacing=0;spacingTop=5;spacingLeft=5;spacingBottom=5;fontStyle=1;labelBackgroundColor=none;fontColor=#46495D;" parent="e_wJrSxDnCayRWQOndfp-26" vertex="1">
          <mxGeometry width="40" height="153" as="geometry">
            <mxRectangle width="40" height="153" as="alternateBounds" />
          </mxGeometry>
        </mxCell>
        <mxCell id="e_wJrSxDnCayRWQOndfp-28" value="1" style="shape=partialRectangle;html=1;whiteSpace=wrap;connectable=0;strokeColor=#788AA3;overflow=hidden;fillColor=none;top=0;left=1;bottom=1;right=1;pointerEvents=1;fontFamily=Consolas;fontSize=14;align=right;verticalAlign=top;strokeWidth=0.5;spacing=5;spacingTop=0;spacingLeft=0;spacingBottom=0;fontStyle=0;spacingRight=0;labelBackgroundColor=none;fontColor=#46495D;" parent="e_wJrSxDnCayRWQOndfp-26" vertex="1">
          <mxGeometry x="40" width="120" height="153" as="geometry">
            <mxRectangle width="120" height="153" as="alternateBounds" />
          </mxGeometry>
        </mxCell>
        <mxCell id="e_wJrSxDnCayRWQOndfp-29" value="3" style="shape=partialRectangle;html=1;whiteSpace=wrap;connectable=0;strokeColor=#788AA3;overflow=hidden;fillColor=none;top=0;left=1;bottom=1;right=1;pointerEvents=1;fontFamily=Consolas;fontSize=14;align=left;verticalAlign=top;strokeWidth=0.5;spacing=5;spacingTop=0;spacingLeft=0;spacingBottom=0;fontStyle=0;spacingRight=0;labelBackgroundColor=none;fontColor=#46495D;" parent="e_wJrSxDnCayRWQOndfp-26" vertex="1">
          <mxGeometry x="160" width="120" height="153" as="geometry">
            <mxRectangle width="120" height="153" as="alternateBounds" />
          </mxGeometry>
        </mxCell>
        <mxCell id="e_wJrSxDnCayRWQOndfp-30" style="shape=partialRectangle;html=1;whiteSpace=wrap;connectable=0;strokeColor=#788AA3;overflow=hidden;fillColor=none;top=0;left=1;bottom=1;right=1;pointerEvents=1;fontFamily=Consolas;fontSize=14;align=left;verticalAlign=top;strokeWidth=0.5;spacing=5;spacingTop=0;spacingLeft=0;spacingBottom=0;fontStyle=0;labelBackgroundColor=none;fontColor=#46495D;" parent="e_wJrSxDnCayRWQOndfp-26" vertex="1">
          <mxGeometry x="280" width="120" height="153" as="geometry">
            <mxRectangle width="120" height="153" as="alternateBounds" />
          </mxGeometry>
        </mxCell>
        <mxCell id="e_wJrSxDnCayRWQOndfp-31" style="shape=partialRectangle;html=1;whiteSpace=wrap;connectable=0;strokeColor=#788AA3;overflow=hidden;fillColor=none;top=1;left=1;bottom=1;right=1;pointerEvents=1;fontFamily=Consolas;fontSize=14;align=left;verticalAlign=top;strokeWidth=0.5;spacing=0;spacingTop=5;spacingLeft=5;spacingBottom=5;fontStyle=2;labelBackgroundColor=none;fontColor=#46495D;" parent="e_wJrSxDnCayRWQOndfp-26" vertex="1" visible="0">
          <mxGeometry x="400" width="390" height="153" as="geometry">
            <mxRectangle width="390" height="153" as="alternateBounds" />
          </mxGeometry>
        </mxCell>
        <mxCell id="e_wJrSxDnCayRWQOndfp-32" value="" style="shape=tableRow;horizontal=0;startSize=0;swimlaneHead=0;swimlaneBody=0;strokeColor=#788AA3;top=0;left=0;bottom=0;right=0;collapsible=0;dropTarget=0;fillColor=none;points=[[0,0.5],[1,0.5]];portConstraint=eastwest;labelBackgroundColor=none;fontColor=#46495D;" parent="e_wJrSxDnCayRWQOndfp-1" vertex="1">
          <mxGeometry y="273" width="790" height="37" as="geometry" />
        </mxCell>
        <mxCell id="e_wJrSxDnCayRWQOndfp-33" value="B" style="shape=partialRectangle;html=1;whiteSpace=wrap;connectable=0;strokeColor=#788AA3;overflow=hidden;fillColor=#B2C9AB;top=1;left=1;bottom=0;right=1;pointerEvents=1;fontFamily=Consolas;fontSize=14;align=center;verticalAlign=top;strokeWidth=0.5;spacing=5;spacingTop=0;spacingLeft=0;spacingBottom=0;fontStyle=1;labelBackgroundColor=none;fontColor=#46495D;" parent="e_wJrSxDnCayRWQOndfp-32" vertex="1">
          <mxGeometry width="40" height="37" as="geometry">
            <mxRectangle width="40" height="37" as="alternateBounds" />
          </mxGeometry>
        </mxCell>
        <mxCell id="e_wJrSxDnCayRWQOndfp-34" value="Joueur" style="shape=partialRectangle;html=1;whiteSpace=wrap;connectable=0;strokeColor=#788AA3;overflow=hidden;fillColor=none;top=1;left=1;bottom=0;right=1;pointerEvents=1;fontFamily=Consolas;fontSize=14;align=right;verticalAlign=top;strokeWidth=0.5;spacing=5;spacingTop=0;spacingLeft=0;spacingBottom=0;spacingRight=0;fontStyle=1;labelBackgroundColor=none;fontColor=#46495D;" parent="e_wJrSxDnCayRWQOndfp-32" vertex="1">
          <mxGeometry x="40" width="120" height="37" as="geometry">
            <mxRectangle width="120" height="37" as="alternateBounds" />
          </mxGeometry>
        </mxCell>
        <mxCell id="e_wJrSxDnCayRWQOndfp-35" value="Banque" style="shape=partialRectangle;html=1;whiteSpace=wrap;connectable=0;strokeColor=#788AA3;overflow=hidden;fillColor=none;top=1;left=1;bottom=0;right=1;pointerEvents=1;fontFamily=Consolas;fontSize=14;align=left;verticalAlign=top;strokeWidth=0.5;spacing=5;spacingTop=0;spacingLeft=0;spacingBottom=0;fontStyle=1;spacingRight=0;labelBackgroundColor=none;fontColor=#46495D;" parent="e_wJrSxDnCayRWQOndfp-32" vertex="1">
          <mxGeometry x="160" width="120" height="37" as="geometry">
            <mxRectangle width="120" height="37" as="alternateBounds" />
          </mxGeometry>
        </mxCell>
        <mxCell id="e_wJrSxDnCayRWQOndfp-36" value="" style="shape=partialRectangle;html=1;whiteSpace=wrap;connectable=0;strokeColor=#788AA3;overflow=hidden;fillColor=none;top=1;left=1;bottom=0;right=1;pointerEvents=1;fontFamily=Consolas;fontSize=14;align=center;verticalAlign=top;strokeWidth=0.5;spacing=5;spacingTop=0;spacingLeft=0;spacingBottom=0;fontStyle=0;labelBackgroundColor=none;fontColor=#46495D;" parent="e_wJrSxDnCayRWQOndfp-32" vertex="1">
          <mxGeometry x="280" width="120" height="37" as="geometry">
            <mxRectangle width="120" height="37" as="alternateBounds" />
          </mxGeometry>
        </mxCell>
        <mxCell id="e_wJrSxDnCayRWQOndfp-37" value="&lt;div&gt;Les joueurs ont la possibilité de recevoir/donner de l&#39;argent à la banque qui s&#39;occupera de gérer la plupart des transactions qui se feront lors de la partie.&lt;/div&gt;&lt;div&gt;&lt;br&gt;&lt;/div&gt;&lt;div&gt;Elle s&#39;occupera, bien évidemment, de donner un certain montant en début de partie, pour que les joueurs puissent jouer et acheter diverses choses s&#39;ils le souhaitent.&lt;br&gt;&lt;/div&gt;" style="shape=partialRectangle;html=1;whiteSpace=wrap;connectable=0;strokeColor=#788AA3;overflow=hidden;fillColor=none;top=1;left=1;bottom=1;right=1;pointerEvents=1;fontFamily=Consolas;fontSize=14;align=left;verticalAlign=top;strokeWidth=0.5;spacing=0;spacingTop=5;spacingLeft=5;spacingBottom=5;fontStyle=2;rowspan=2;colspan=1;labelBackgroundColor=none;fontColor=#46495D;" parent="e_wJrSxDnCayRWQOndfp-32" vertex="1">
          <mxGeometry x="400" width="390" height="157" as="geometry">
            <mxRectangle width="390" height="37" as="alternateBounds" />
          </mxGeometry>
        </mxCell>
        <mxCell id="e_wJrSxDnCayRWQOndfp-38" value="" style="shape=tableRow;horizontal=0;startSize=0;swimlaneHead=0;swimlaneBody=0;strokeColor=#788AA3;top=0;left=0;bottom=0;right=0;collapsible=0;dropTarget=0;fillColor=none;points=[[0,0.5],[1,0.5]];portConstraint=eastwest;labelBackgroundColor=none;fontColor=#46495D;" parent="e_wJrSxDnCayRWQOndfp-1" vertex="1">
          <mxGeometry y="310" width="790" height="120" as="geometry" />
        </mxCell>
        <mxCell id="e_wJrSxDnCayRWQOndfp-39" value="" style="shape=partialRectangle;html=1;whiteSpace=wrap;connectable=0;strokeColor=#788AA3;overflow=hidden;fillColor=#B2C9AB;top=0;left=1;bottom=1;right=1;pointerEvents=1;fontFamily=Consolas;fontSize=14;align=center;verticalAlign=top;strokeWidth=0.5;spacing=0;spacingTop=5;spacingLeft=5;spacingBottom=5;fontStyle=1;labelBackgroundColor=none;fontColor=#46495D;" parent="e_wJrSxDnCayRWQOndfp-38" vertex="1">
          <mxGeometry width="40" height="120" as="geometry">
            <mxRectangle width="40" height="120" as="alternateBounds" />
          </mxGeometry>
        </mxCell>
        <mxCell id="e_wJrSxDnCayRWQOndfp-40" value="2..4" style="shape=partialRectangle;html=1;whiteSpace=wrap;connectable=0;strokeColor=#788AA3;overflow=hidden;fillColor=none;top=0;left=1;bottom=1;right=1;pointerEvents=1;fontFamily=Consolas;fontSize=14;align=right;verticalAlign=top;strokeWidth=0.5;spacing=5;spacingTop=0;spacingLeft=0;spacingBottom=0;fontStyle=0;spacingRight=0;labelBackgroundColor=none;fontColor=#46495D;" parent="e_wJrSxDnCayRWQOndfp-38" vertex="1">
          <mxGeometry x="40" width="120" height="120" as="geometry">
            <mxRectangle width="120" height="120" as="alternateBounds" />
          </mxGeometry>
        </mxCell>
        <mxCell id="e_wJrSxDnCayRWQOndfp-41" value="1" style="shape=partialRectangle;html=1;whiteSpace=wrap;connectable=0;strokeColor=#788AA3;overflow=hidden;fillColor=none;top=0;left=1;bottom=1;right=1;pointerEvents=1;fontFamily=Consolas;fontSize=14;align=left;verticalAlign=top;strokeWidth=0.5;spacing=5;spacingTop=0;spacingLeft=0;spacingBottom=0;fontStyle=0;spacingRight=0;labelBackgroundColor=none;fontColor=#46495D;" parent="e_wJrSxDnCayRWQOndfp-38" vertex="1">
          <mxGeometry x="160" width="120" height="120" as="geometry">
            <mxRectangle width="120" height="120" as="alternateBounds" />
          </mxGeometry>
        </mxCell>
        <mxCell id="e_wJrSxDnCayRWQOndfp-42" value="Association" style="shape=partialRectangle;html=1;whiteSpace=wrap;connectable=0;strokeColor=#788AA3;overflow=hidden;fillColor=none;top=0;left=1;bottom=1;right=1;pointerEvents=1;fontFamily=Consolas;fontSize=14;align=left;verticalAlign=top;strokeWidth=0.5;spacing=5;spacingTop=0;spacingLeft=0;spacingBottom=0;fontStyle=0;labelBackgroundColor=none;fontColor=#46495D;" parent="e_wJrSxDnCayRWQOndfp-38" vertex="1">
          <mxGeometry x="280" width="120" height="120" as="geometry">
            <mxRectangle width="120" height="120" as="alternateBounds" />
          </mxGeometry>
        </mxCell>
        <mxCell id="e_wJrSxDnCayRWQOndfp-43" style="shape=partialRectangle;html=1;whiteSpace=wrap;connectable=0;strokeColor=#788AA3;overflow=hidden;fillColor=none;top=1;left=1;bottom=1;right=1;pointerEvents=1;fontFamily=Consolas;fontSize=14;align=left;verticalAlign=top;strokeWidth=0.5;spacing=0;spacingTop=5;spacingLeft=5;spacingBottom=5;fontStyle=2;labelBackgroundColor=none;fontColor=#46495D;" parent="e_wJrSxDnCayRWQOndfp-38" vertex="1" visible="0">
          <mxGeometry x="400" width="390" height="120" as="geometry">
            <mxRectangle width="390" height="120" as="alternateBounds" />
          </mxGeometry>
        </mxCell>
        <mxCell id="e_wJrSxDnCayRWQOndfp-44" value="" style="shape=tableRow;horizontal=0;startSize=0;swimlaneHead=0;swimlaneBody=0;strokeColor=#788AA3;top=0;left=0;bottom=0;right=0;collapsible=0;dropTarget=0;fillColor=none;points=[[0,0.5],[1,0.5]];portConstraint=eastwest;fontStyle=0;labelBackgroundColor=none;fontColor=#46495D;" parent="e_wJrSxDnCayRWQOndfp-1" vertex="1">
          <mxGeometry y="430" width="790" height="20" as="geometry" />
        </mxCell>
        <mxCell id="e_wJrSxDnCayRWQOndfp-45" value="&lt;span style=&quot;font-weight: normal; font-size: 12px;&quot;&gt;&lt;font style=&quot;font-size: 12px;&quot;&gt;LEBRUN Nathan - 28/12/23 ??/??&lt;/font&gt;&lt;/span&gt;" style="shape=partialRectangle;html=1;whiteSpace=wrap;connectable=0;strokeColor=#788AA3;overflow=hidden;fillColor=#B2C9AB;top=0;left=1;bottom=1;right=1;pointerEvents=1;fontFamily=Consolas;fontSize=12;align=center;verticalAlign=middle;fontStyle=1;labelBackgroundColor=none;strokeWidth=1;rowspan=1;colspan=5;fontColor=#46495D;" parent="e_wJrSxDnCayRWQOndfp-44" vertex="1">
          <mxGeometry width="790" height="20" as="geometry">
            <mxRectangle width="40" height="20" as="alternateBounds" />
          </mxGeometry>
        </mxCell>
        <mxCell id="e_wJrSxDnCayRWQOndfp-46" value="" style="shape=partialRectangle;html=1;whiteSpace=wrap;connectable=0;strokeColor=#788AA3;overflow=hidden;fillColor=none;top=0;left=0;bottom=0;right=0;pointerEvents=1;fontFamily=Consolas;labelBackgroundColor=none;fontColor=#46495D;" parent="e_wJrSxDnCayRWQOndfp-44" vertex="1" visible="0">
          <mxGeometry x="40" width="120" height="20" as="geometry">
            <mxRectangle width="120" height="20" as="alternateBounds" />
          </mxGeometry>
        </mxCell>
        <mxCell id="e_wJrSxDnCayRWQOndfp-47" value="" style="shape=partialRectangle;html=1;whiteSpace=wrap;connectable=0;strokeColor=#788AA3;overflow=hidden;fillColor=none;top=0;left=0;bottom=0;right=0;pointerEvents=1;fontFamily=Consolas;labelBackgroundColor=none;fontColor=#46495D;" parent="e_wJrSxDnCayRWQOndfp-44" vertex="1" visible="0">
          <mxGeometry x="160" width="120" height="20" as="geometry">
            <mxRectangle width="120" height="20" as="alternateBounds" />
          </mxGeometry>
        </mxCell>
        <mxCell id="e_wJrSxDnCayRWQOndfp-48" style="shape=partialRectangle;html=1;whiteSpace=wrap;connectable=0;strokeColor=#788AA3;overflow=hidden;fillColor=none;top=0;left=0;bottom=0;right=0;pointerEvents=1;fontFamily=Consolas;labelBackgroundColor=none;fontColor=#46495D;" parent="e_wJrSxDnCayRWQOndfp-44" vertex="1" visible="0">
          <mxGeometry x="280" width="120" height="20" as="geometry">
            <mxRectangle width="120" height="20" as="alternateBounds" />
          </mxGeometry>
        </mxCell>
        <mxCell id="e_wJrSxDnCayRWQOndfp-49" style="shape=partialRectangle;html=1;whiteSpace=wrap;connectable=0;strokeColor=#788AA3;overflow=hidden;fillColor=none;top=0;left=0;bottom=0;right=0;pointerEvents=1;fontFamily=Consolas;labelBackgroundColor=none;fontColor=#46495D;" parent="e_wJrSxDnCayRWQOndfp-44" vertex="1" visible="0">
          <mxGeometry x="400" width="390" height="20" as="geometry">
            <mxRectangle width="390" height="20" as="alternateBounds" />
          </mxGeometry>
        </mxCell>
        <mxCell id="e_wJrSxDnCayRWQOndfp-50" value="" style="shape=tableRow;horizontal=0;startSize=0;swimlaneHead=0;swimlaneBody=0;strokeColor=#788AA3;top=0;left=0;bottom=0;right=0;collapsible=0;dropTarget=0;fillColor=none;points=[[0,0.5],[1,0.5]];portConstraint=eastwest;labelBackgroundColor=none;fontColor=#46495D;" parent="e_wJrSxDnCayRWQOndfp-1" vertex="1">
          <mxGeometry y="450" width="790" height="41" as="geometry" />
        </mxCell>
        <mxCell id="e_wJrSxDnCayRWQOndfp-51" value="C" style="shape=partialRectangle;html=1;whiteSpace=wrap;connectable=0;strokeColor=#788AA3;overflow=hidden;fillColor=#B2C9AB;top=1;left=1;bottom=0;right=1;pointerEvents=1;fontFamily=Consolas;fontSize=14;align=center;verticalAlign=top;strokeWidth=0.5;spacing=5;spacingTop=0;spacingLeft=0;spacingBottom=0;fontStyle=1;labelBackgroundColor=none;fontColor=#46495D;" parent="e_wJrSxDnCayRWQOndfp-50" vertex="1">
          <mxGeometry width="40" height="41" as="geometry">
            <mxRectangle width="40" height="41" as="alternateBounds" />
          </mxGeometry>
        </mxCell>
        <mxCell id="e_wJrSxDnCayRWQOndfp-52" value="" style="shape=partialRectangle;html=1;whiteSpace=wrap;connectable=0;strokeColor=#788AA3;overflow=hidden;fillColor=none;top=1;left=1;bottom=0;right=1;pointerEvents=1;fontFamily=Consolas;fontSize=14;align=right;verticalAlign=top;strokeWidth=0.5;spacing=5;spacingTop=0;spacingLeft=0;spacingBottom=0;spacingRight=0;fontStyle=1;labelBackgroundColor=none;fontColor=#46495D;" parent="e_wJrSxDnCayRWQOndfp-50" vertex="1">
          <mxGeometry x="40" width="120" height="41" as="geometry">
            <mxRectangle width="120" height="41" as="alternateBounds" />
          </mxGeometry>
        </mxCell>
        <mxCell id="e_wJrSxDnCayRWQOndfp-53" value="" style="shape=partialRectangle;html=1;whiteSpace=wrap;connectable=0;strokeColor=#788AA3;overflow=hidden;fillColor=none;top=1;left=1;bottom=0;right=1;pointerEvents=1;fontFamily=Consolas;fontSize=14;align=left;verticalAlign=top;strokeWidth=0.5;spacing=5;spacingTop=0;spacingLeft=0;spacingBottom=0;fontStyle=1;spacingRight=0;labelBackgroundColor=none;fontColor=#46495D;" parent="e_wJrSxDnCayRWQOndfp-50" vertex="1">
          <mxGeometry x="160" width="120" height="41" as="geometry">
            <mxRectangle width="120" height="41" as="alternateBounds" />
          </mxGeometry>
        </mxCell>
        <mxCell id="e_wJrSxDnCayRWQOndfp-54" value="" style="shape=partialRectangle;html=1;whiteSpace=wrap;connectable=0;strokeColor=#788AA3;overflow=hidden;fillColor=none;top=1;left=1;bottom=0;right=1;pointerEvents=1;fontFamily=Consolas;fontSize=14;align=center;verticalAlign=top;strokeWidth=0.5;spacing=5;spacingTop=0;spacingLeft=0;spacingBottom=0;fontStyle=0;labelBackgroundColor=none;fontColor=#46495D;" parent="e_wJrSxDnCayRWQOndfp-50" vertex="1">
          <mxGeometry x="280" width="120" height="41" as="geometry">
            <mxRectangle width="120" height="41" as="alternateBounds" />
          </mxGeometry>
        </mxCell>
        <mxCell id="e_wJrSxDnCayRWQOndfp-55" value="" style="shape=partialRectangle;html=1;whiteSpace=wrap;connectable=0;strokeColor=#788AA3;overflow=hidden;fillColor=none;top=1;left=1;bottom=1;right=1;pointerEvents=1;fontFamily=Consolas;fontSize=14;align=left;verticalAlign=top;strokeWidth=0.5;spacing=0;spacingTop=5;spacingLeft=5;spacingBottom=5;fontStyle=2;rowspan=2;colspan=1;labelBackgroundColor=none;fontColor=#46495D;" parent="e_wJrSxDnCayRWQOndfp-50" vertex="1">
          <mxGeometry x="400" width="390" height="168" as="geometry">
            <mxRectangle width="390" height="41" as="alternateBounds" />
          </mxGeometry>
        </mxCell>
        <mxCell id="e_wJrSxDnCayRWQOndfp-56" value="" style="shape=tableRow;horizontal=0;startSize=0;swimlaneHead=0;swimlaneBody=0;strokeColor=#788AA3;top=0;left=0;bottom=0;right=0;collapsible=0;dropTarget=0;fillColor=none;points=[[0,0.5],[1,0.5]];portConstraint=eastwest;labelBackgroundColor=none;fontColor=#46495D;" parent="e_wJrSxDnCayRWQOndfp-1" vertex="1">
          <mxGeometry y="491" width="790" height="127" as="geometry" />
        </mxCell>
        <mxCell id="e_wJrSxDnCayRWQOndfp-57" value="" style="shape=partialRectangle;html=1;whiteSpace=wrap;connectable=0;strokeColor=#788AA3;overflow=hidden;fillColor=#B2C9AB;top=0;left=1;bottom=1;right=1;pointerEvents=1;fontFamily=Consolas;fontSize=14;align=center;verticalAlign=top;strokeWidth=0.5;spacing=0;spacingTop=5;spacingLeft=5;spacingBottom=5;fontStyle=1;labelBackgroundColor=none;fontColor=#46495D;" parent="e_wJrSxDnCayRWQOndfp-56" vertex="1">
          <mxGeometry width="40" height="127" as="geometry">
            <mxRectangle width="40" height="127" as="alternateBounds" />
          </mxGeometry>
        </mxCell>
        <mxCell id="e_wJrSxDnCayRWQOndfp-58" value="" style="shape=partialRectangle;html=1;whiteSpace=wrap;connectable=0;strokeColor=#788AA3;overflow=hidden;fillColor=none;top=0;left=1;bottom=1;right=1;pointerEvents=1;fontFamily=Consolas;fontSize=14;align=right;verticalAlign=top;strokeWidth=0.5;spacing=5;spacingTop=0;spacingLeft=0;spacingBottom=0;fontStyle=0;spacingRight=0;labelBackgroundColor=none;fontColor=#46495D;" parent="e_wJrSxDnCayRWQOndfp-56" vertex="1">
          <mxGeometry x="40" width="120" height="127" as="geometry">
            <mxRectangle width="120" height="127" as="alternateBounds" />
          </mxGeometry>
        </mxCell>
        <mxCell id="e_wJrSxDnCayRWQOndfp-59" value="" style="shape=partialRectangle;html=1;whiteSpace=wrap;connectable=0;strokeColor=#788AA3;overflow=hidden;fillColor=none;top=0;left=1;bottom=1;right=1;pointerEvents=1;fontFamily=Consolas;fontSize=14;align=left;verticalAlign=top;strokeWidth=0.5;spacing=5;spacingTop=0;spacingLeft=0;spacingBottom=0;fontStyle=0;spacingRight=0;labelBackgroundColor=none;fontColor=#46495D;" parent="e_wJrSxDnCayRWQOndfp-56" vertex="1">
          <mxGeometry x="160" width="120" height="127" as="geometry">
            <mxRectangle width="120" height="127" as="alternateBounds" />
          </mxGeometry>
        </mxCell>
        <mxCell id="e_wJrSxDnCayRWQOndfp-60" style="shape=partialRectangle;html=1;whiteSpace=wrap;connectable=0;strokeColor=#788AA3;overflow=hidden;fillColor=none;top=0;left=1;bottom=1;right=1;pointerEvents=1;fontFamily=Consolas;fontSize=14;align=left;verticalAlign=top;strokeWidth=0.5;spacing=5;spacingTop=0;spacingLeft=0;spacingBottom=0;fontStyle=0;labelBackgroundColor=none;fontColor=#46495D;" parent="e_wJrSxDnCayRWQOndfp-56" vertex="1">
          <mxGeometry x="280" width="120" height="127" as="geometry">
            <mxRectangle width="120" height="127" as="alternateBounds" />
          </mxGeometry>
        </mxCell>
        <mxCell id="e_wJrSxDnCayRWQOndfp-61" style="shape=partialRectangle;html=1;whiteSpace=wrap;connectable=0;strokeColor=#788AA3;overflow=hidden;fillColor=none;top=1;left=1;bottom=1;right=1;pointerEvents=1;fontFamily=Consolas;fontSize=14;align=left;verticalAlign=top;strokeWidth=0.5;spacing=0;spacingTop=5;spacingLeft=5;spacingBottom=5;fontStyle=2;labelBackgroundColor=none;fontColor=#46495D;" parent="e_wJrSxDnCayRWQOndfp-56" vertex="1" visible="0">
          <mxGeometry x="400" width="390" height="127" as="geometry">
            <mxRectangle width="390" height="127" as="alternateBounds" />
          </mxGeometry>
        </mxCell>
        <mxCell id="e_wJrSxDnCayRWQOndfp-62" value="" style="shape=tableRow;horizontal=0;startSize=0;swimlaneHead=0;swimlaneBody=0;strokeColor=#788AA3;top=0;left=0;bottom=0;right=0;collapsible=0;dropTarget=0;fillColor=none;points=[[0,0.5],[1,0.5]];portConstraint=eastwest;labelBackgroundColor=none;fontColor=#46495D;" parent="e_wJrSxDnCayRWQOndfp-1" vertex="1">
          <mxGeometry y="618" width="790" height="43" as="geometry" />
        </mxCell>
        <mxCell id="e_wJrSxDnCayRWQOndfp-63" value="D" style="shape=partialRectangle;html=1;whiteSpace=wrap;connectable=0;strokeColor=#788AA3;overflow=hidden;fillColor=#B2C9AB;top=1;left=1;bottom=0;right=1;pointerEvents=1;fontFamily=Consolas;fontSize=14;align=center;verticalAlign=top;strokeWidth=0.5;spacing=5;spacingTop=0;spacingLeft=0;spacingBottom=0;fontStyle=1;labelBackgroundColor=none;fontColor=#46495D;" parent="e_wJrSxDnCayRWQOndfp-62" vertex="1">
          <mxGeometry width="40" height="43" as="geometry">
            <mxRectangle width="40" height="43" as="alternateBounds" />
          </mxGeometry>
        </mxCell>
        <mxCell id="e_wJrSxDnCayRWQOndfp-64" value="" style="shape=partialRectangle;html=1;whiteSpace=wrap;connectable=0;strokeColor=#788AA3;overflow=hidden;fillColor=none;top=1;left=1;bottom=0;right=1;pointerEvents=1;fontFamily=Consolas;fontSize=14;align=right;verticalAlign=top;strokeWidth=0.5;spacing=5;spacingTop=0;spacingLeft=0;spacingBottom=0;spacingRight=0;fontStyle=1;labelBackgroundColor=none;fontColor=#46495D;" parent="e_wJrSxDnCayRWQOndfp-62" vertex="1">
          <mxGeometry x="40" width="120" height="43" as="geometry">
            <mxRectangle width="120" height="43" as="alternateBounds" />
          </mxGeometry>
        </mxCell>
        <mxCell id="e_wJrSxDnCayRWQOndfp-65" value="" style="shape=partialRectangle;html=1;whiteSpace=wrap;connectable=0;strokeColor=#788AA3;overflow=hidden;fillColor=none;top=1;left=1;bottom=0;right=1;pointerEvents=1;fontFamily=Consolas;fontSize=14;align=left;verticalAlign=top;strokeWidth=0.5;spacing=5;spacingTop=0;spacingLeft=0;spacingBottom=0;fontStyle=1;spacingRight=0;labelBackgroundColor=none;fontColor=#46495D;" parent="e_wJrSxDnCayRWQOndfp-62" vertex="1">
          <mxGeometry x="160" width="120" height="43" as="geometry">
            <mxRectangle width="120" height="43" as="alternateBounds" />
          </mxGeometry>
        </mxCell>
        <mxCell id="e_wJrSxDnCayRWQOndfp-66" value="" style="shape=partialRectangle;html=1;whiteSpace=wrap;connectable=0;strokeColor=#788AA3;overflow=hidden;fillColor=none;top=1;left=1;bottom=0;right=1;pointerEvents=1;fontFamily=Consolas;fontSize=14;align=center;verticalAlign=top;strokeWidth=0.5;spacing=5;spacingTop=0;spacingLeft=0;spacingBottom=0;fontStyle=0;labelBackgroundColor=none;fontColor=#46495D;" parent="e_wJrSxDnCayRWQOndfp-62" vertex="1">
          <mxGeometry x="280" width="120" height="43" as="geometry">
            <mxRectangle width="120" height="43" as="alternateBounds" />
          </mxGeometry>
        </mxCell>
        <mxCell id="e_wJrSxDnCayRWQOndfp-67" value="" style="shape=partialRectangle;html=1;whiteSpace=wrap;connectable=0;strokeColor=#788AA3;overflow=hidden;fillColor=none;top=1;left=1;bottom=1;right=1;pointerEvents=1;fontFamily=Consolas;fontSize=14;align=left;verticalAlign=top;strokeWidth=0.5;spacing=0;spacingTop=5;spacingLeft=5;spacingBottom=5;fontStyle=2;rowspan=2;colspan=1;labelBackgroundColor=none;fontColor=#46495D;" parent="e_wJrSxDnCayRWQOndfp-62" vertex="1">
          <mxGeometry x="400" width="390" height="195" as="geometry">
            <mxRectangle width="390" height="43" as="alternateBounds" />
          </mxGeometry>
        </mxCell>
        <mxCell id="e_wJrSxDnCayRWQOndfp-68" value="" style="shape=tableRow;horizontal=0;startSize=0;swimlaneHead=0;swimlaneBody=0;strokeColor=#788AA3;top=0;left=0;bottom=0;right=0;collapsible=0;dropTarget=0;fillColor=none;points=[[0,0.5],[1,0.5]];portConstraint=eastwest;labelBackgroundColor=none;fontColor=#46495D;" parent="e_wJrSxDnCayRWQOndfp-1" vertex="1">
          <mxGeometry y="661" width="790" height="152" as="geometry" />
        </mxCell>
        <mxCell id="e_wJrSxDnCayRWQOndfp-69" value="" style="shape=partialRectangle;html=1;whiteSpace=wrap;connectable=0;strokeColor=#788AA3;overflow=hidden;fillColor=#B2C9AB;top=0;left=1;bottom=1;right=1;pointerEvents=1;fontFamily=Consolas;fontSize=14;align=center;verticalAlign=top;strokeWidth=0.5;spacing=0;spacingTop=5;spacingLeft=5;spacingBottom=5;fontStyle=1;labelBackgroundColor=none;fontColor=#46495D;" parent="e_wJrSxDnCayRWQOndfp-68" vertex="1">
          <mxGeometry width="40" height="152" as="geometry">
            <mxRectangle width="40" height="152" as="alternateBounds" />
          </mxGeometry>
        </mxCell>
        <mxCell id="e_wJrSxDnCayRWQOndfp-70" value="" style="shape=partialRectangle;html=1;whiteSpace=wrap;connectable=0;strokeColor=#788AA3;overflow=hidden;fillColor=none;top=0;left=1;bottom=1;right=1;pointerEvents=1;fontFamily=Consolas;fontSize=14;align=right;verticalAlign=top;strokeWidth=0.5;spacing=5;spacingTop=0;spacingLeft=0;spacingBottom=0;fontStyle=0;spacingRight=0;labelBackgroundColor=none;fontColor=#46495D;" parent="e_wJrSxDnCayRWQOndfp-68" vertex="1">
          <mxGeometry x="40" width="120" height="152" as="geometry">
            <mxRectangle width="120" height="152" as="alternateBounds" />
          </mxGeometry>
        </mxCell>
        <mxCell id="e_wJrSxDnCayRWQOndfp-71" value="" style="shape=partialRectangle;html=1;whiteSpace=wrap;connectable=0;strokeColor=#788AA3;overflow=hidden;fillColor=none;top=0;left=1;bottom=1;right=1;pointerEvents=1;fontFamily=Consolas;fontSize=14;align=left;verticalAlign=top;strokeWidth=0.5;spacing=5;spacingTop=0;spacingLeft=0;spacingBottom=0;fontStyle=0;spacingRight=0;labelBackgroundColor=none;fontColor=#46495D;" parent="e_wJrSxDnCayRWQOndfp-68" vertex="1">
          <mxGeometry x="160" width="120" height="152" as="geometry">
            <mxRectangle width="120" height="152" as="alternateBounds" />
          </mxGeometry>
        </mxCell>
        <mxCell id="e_wJrSxDnCayRWQOndfp-72" style="shape=partialRectangle;html=1;whiteSpace=wrap;connectable=0;strokeColor=#788AA3;overflow=hidden;fillColor=none;top=0;left=1;bottom=1;right=1;pointerEvents=1;fontFamily=Consolas;fontSize=14;align=left;verticalAlign=top;strokeWidth=0.5;spacing=5;spacingTop=0;spacingLeft=0;spacingBottom=0;fontStyle=0;labelBackgroundColor=none;fontColor=#46495D;" parent="e_wJrSxDnCayRWQOndfp-68" vertex="1">
          <mxGeometry x="280" width="120" height="152" as="geometry">
            <mxRectangle width="120" height="152" as="alternateBounds" />
          </mxGeometry>
        </mxCell>
        <mxCell id="e_wJrSxDnCayRWQOndfp-73" style="shape=partialRectangle;html=1;whiteSpace=wrap;connectable=0;strokeColor=#788AA3;overflow=hidden;fillColor=none;top=1;left=1;bottom=1;right=1;pointerEvents=1;fontFamily=Consolas;fontSize=14;align=left;verticalAlign=top;strokeWidth=0.5;spacing=0;spacingTop=5;spacingLeft=5;spacingBottom=5;fontStyle=2;labelBackgroundColor=none;fontColor=#46495D;" parent="e_wJrSxDnCayRWQOndfp-68" vertex="1" visible="0">
          <mxGeometry x="400" width="390" height="152" as="geometry">
            <mxRectangle width="390" height="152" as="alternateBounds" />
          </mxGeometry>
        </mxCell>
      </root>
    </mxGraphModel>
  </diagram>
</mxfile>
